<?xml version="1.0" encoding="UTF-8"?>
<svg id="_レイヤー_1" data-name="レイヤー 1" xmlns="http://www.w3.org/2000/svg" version="1.1" viewBox="0 0 478.2 185.1">
  <defs>
    <style>
      .cls-1 {
        fill: #000;
        stroke-width: 0px;
      }

      .cls-2 {
        isolation: isolate;
      }
    </style>
  </defs>
  <g id="_グループ_1766" data-name="グループ 1766">
    <path id="_パス_908" data-name="パス 908" class="cls-1" d="M116.3,26.7c-.6,0-1.2,0-1.6,0-.6,0-1.2-.1-1.8-.1-.6,0-1.2,0-1.8-.3-.6-.1-1.2-.3-1.8-.5-.5-.2-1-.4-1.5-.7-.4-.3-.8-.7-1.2-1-.3-.4-.6-.9-.8-1.4-.2-.6-.3-1.2-.3-1.8,0-.6,0-1.3.2-1.9.1-.6.3-1.2.6-1.8.2-.3.3-.6.5-.9.1-.3.3-.5.5-.8.2-.4.5-.5.6-.8.1-.4.5-.3.7-.8,0-.2.6-.5.7-.7.2-.3.4-.4.8-.7.2-.2.5-.4.8-.6.3-.1.6-.3.8-.6.3-.2.6-.4.9-.5.3-.2.4-.4.8-.5.5-.3,1.1-.5,1.6-.7.5-.2,1-.4,1.5-.5.5,0,1.1-.2,1.6-.4.4,0,.9,0,1.6-.2.5-.1,1.1-.2,1.6-.2.4,0,.8,0,1.2-.2.6-.2,1.2-.4,1.2-1.1,0-.4-.4-.9-.6-1.4-.3-.5-.8-.4-1.4-.6-.5-.1-1,0-1.4.2-.3.2-.8.1-1,.2-.3.2-.6.3-1,.2-.5,0-1.2.2-1.9.4-.7.1-1.3.2-2,.2-.7,0-1.2.1-2,.1-.7,0-1.4,0-2.1,0-.6,0-1.2-.1-1.8-.3-.3-.2-.7-.4-1-.5-.6-.2-.7-.5-1.2-.8-.3-.2-.9-.4-1.1-.6-.3-.2-.4-.2-.7,0-.2.2-.1.5,0,.8.2.2.4.6.8,1,.3.4.7.7,1.1,1,.3.1.7.5,1,.7.3.2.7.4,1,.5.6,0,1.2.4,1.3,1.1.1.5.2.9-.3,1.3-.3.3-.6.4-.8.7-.3.2-.5.4-.8.7-.2.3-.5.5-.7.7-.3.2-.5.5-.7.7-.2.2-.4.4-.6.8-.2.4-.6.4-.6.8,0,.5-.4.5-.6.8-.1.3-.3.6-.5.8-.3.3-.2.5-.4.9,0,.3-.2.6-.4.9-.4.4-.2.8-.2,1-.2.7-.3,1.4-.2,2,0,.4,0,.8.1,1.2.2.5.2.7.3,1.2,0,.4.2.7.4,1,.2.2.3.6.6.9.2.2.4.5.8.8.3.2.5.5.8.7.3.2.7.4,1,.6.3.3.8.4,1,.5.2.1.7.2,1.1.4.4.2.7.3,1.1.3l1.2.2c.2,0,.8.2,1.2.2.4,0,.8,0,1.2.1.2,0,.8,0,1.1,0,.7,0,1.4.1,2.1,0,.6,0,1.2,0,1.8,0,.7,0,1.4,0,2.1,0,.7,0,1.4,0,2.1-.2.6,0,1.2,0,1.8-.4.2-.2.7-.4.9-.5.2-.2.3-.6.4-.9,0-.3-.1-.6-.3-.9-.2-.2-.5-.4-.8-.6-.5-.4-1.2-.5-1.8-.4-.5.1-1.1.2-1.6.3-.5,0-.9.1-1.4.3-.5.1-1,.2-1.4.2-.3,0-1.1.1-1.4.1h-1.4ZM155.2,14.8c-.2.6-.6,1-.6,1.3,0,.3-.3.5-.4.9,0,.3-.2.6-.4.9-.2.3-.3.5-.5.8,0,.4-.2.5-.4.8-.1.3-.3.6-.5.8-.2.2-.3.6-.5.8-.2.3-.4.5-.6.8-.2.3-.4.6-.6.8-.3.4-.6.7-.9.9-.4.2-.8.3-1.2.4-.6.2-.9-.1-1.3-.6-.3-.5-.6-1.1-.8-1.6-.2-.6-.3-1.3-.4-1.9-.1-.5-.2-1-.1-1.6l.2-2c0-.4,0-.7.3-1,.2-.3.3-.6.4-1,.2-.4.3-.5.5-1,.2-.5.5-.7.6-.9.2-.3.4-.6.6-.8.3-.2.5-.5.7-.8.1-.3.4-.4.8-.8.3-.2.5-.5.8-.6.3-.2.6-.4.9-.6.3-.3.6-.5,1-.6.5-.1.5-.3.9-.4.5-.2,1-.4,1.5-.4.5-.1,1,0,1.5.2.7.4.5,1.8.5,2,0,.3.1.6-.2.9-.3.4-.3,1-.5,1.4-.2.4-.4.9-.5,1.4l-.6,1.4ZM151.3,7c-.5.2-.9.5-1.3.8-.5.2-.9.5-1.2.9-.4.4-.9.6-1.2,1-.3.4-.6.8-1,1.1-.3.4-.6.7-.9,1.2l-.8,1.3c-.2.3-.4,1-.6,1.4-.2.5-.4,1-.5,1.5,0,.5-.1,1-.3,1.6-.1.5-.2,1.1-.1,1.6,0,.6.1,1.2.1,1.8,0,.6.2,1.2.4,1.7.2.6.4,1.1.6,1.6l.4.8c0,.3.3.5.5.7.2.2.4.4.6.6.2.2.5.4.7.6.5.3,1.1.5,1.6.5.5,0,1.3,0,1.6-.3.2-.3.5-.5.8-.6.3,0,.5-.3.7-.6.1-.3.5-.4.6-.7,0-.3.4-.4.6-.7.3-.5.6-1,1-1.4.4-.4.6-.8.8-1.3.2-.5.5-1,.8-1.4.3-.5.4-.8.8-1.4.3-.5.5-.9.7-1.4.3-.5.5-1,.7-1.5.1-.4.6-1.1.7-1.5.2-.4.5-1,.7-1.6.1-.4.5-1.1.7-1.6.3-.5.5-1.1.6-1.6,0-.5-.1-1-.4-1.4-.3-.3-.6-.7-.7-1.1,0-.3.2-.6.5-.6.5,0,1,0,1.4,0,.4,0,.9.1,1.4.2.4,0,.9.1,1.3.2.4,0,.8.2,1.2.4l1.2.5c.4.2.8.4,1.1.6.3.3.7.5,1.1.8.4.3.8.7,1,.8.2.3.4.5.6.7.4.2.3.5.5.7.2.3.4.4.5.8,0,.3.2.6.4.8.3.5.5,1.1.6,1.7.1.6.2,1.2.2,1.8,0,.4,0,1,0,1.4,0,.6,0,1-.2,1.3-.3.3-.3.8-.4,1.2-.2.5-.5.9-.5,1.2-.1.5-.6.6-.6,1,0,.5-.6.7-.8,1-.2.4-.5.7-.8.9-.3.2-.7.4-1,.7-.4.3-.5.4-1,.8-.5.2-.6.5-1,.7-.6.2-1,.5-1.3.6-.4.1-.7.4-1,.4-.4.2-.8.3-1.2.4-.3.2-.7.4-1.1.4-.3,0-.9.3-1.3.4-.6,0-1.2.2-1.7.4-.6.3-.3,1.5.3,1.6.5.2,1,.2,1.4.1.4-.1.8-.2,1.2-.2.5,0,.8-.2,1.3-.3.4-.2.7-.3,1.1-.3.4-.1.8-.3,1.2-.5.4-.2.6-.2,1.1-.5.3-.2.7-.4,1.1-.4.4-.1.9-.4,1.2-.6.2-.1.4-.4.7-.4.3,0,.6-.3.8-.5.2-.2.5-.4.7-.5.3-.1.5-.3.7-.6.3-.3.3-.5.6-.6.3-.1.4-.2.6-.6.2-.5.6-1,1-1.4.4-.4.6-.9.8-1.5.3-.5.5-1,.6-1.6,0-.5.4-1,.4-1.7s0-1,.1-1.8c0-.4,0-1.1,0-1.4,0-.4-.2-.9-.2-1.4,0-.4-.2-.9-.4-1.3-.2-.5-.4-.9-.5-1.2-.2-.4-.4-.8-.7-1.1-.2-.4-.5-.7-.8-1-.4-.3-.7-.6-.9-.9-.3-.3-.6-.6-1-.8-.4-.3-.7-.4-1.1-.7-.3-.3-.7-.5-1.2-.6-.4-.2-.8-.4-1.2-.6-.4,0-.7-.3-1.3-.4-.4,0-.9-.2-1.3-.3-.4-.2-.9-.3-1.4-.3-.5,0-.9,0-1.4-.2-.4-.2-.9-.2-1.4,0-.5.1-1,.2-1.5,0-.5,0-1,0-1.6.2-.6,0-1,.3-1.5.3-.6,0-1,.4-1.4.4-.5,0-1,.3-1.5.5l-1.4.7ZM199.4,2c-.4,0-.9,0-1.3,0-.6.2-.7,0-1.3,0-.5,0-.9,0-1.4,0-.4,0-.9,0-1.3,0-.4,0-.9,0-1.3,0-.4.2-.9.2-1.3,0-.4-.2-1,.2-1.3,0-.4-.1-.9-.1-1.3,0-.4,0-.9,0-1.3,0-.4,0-.9,0-1.3,0-.5,0-1.1-.1-1.3,0-.4.2-.4,1.1-.5,1.7-.2.6-.4,1.1-.5,1.7,0,.5-.4,1.2-.5,1.7-.2.6-.4,1.2-.5,1.8,0,.4,1,.7,1.3.6.4-.3.6-.7.8-1.1.2-.5.7-.8.8-1,.2-.4.5-.7.8-1,.3-.3.6-.6.9-.9.3-.3.6-.5.9-.8.3-.2.7-.4,1.1-.6.6-.2.9-.3,1.2-.4.4-.1.8-.2,1.3-.2.5,0,.9.2,1.4.4.2,0,.3.9.2,1.3,0,.4,0,.8,0,1.2v1.2c0,.4,0,.8,0,1.2,0,.4,0,.8,0,1.2,0,.4,0,.8,0,1.2-.1.4-.1.8,0,1.2,0,.4,0,.8,0,1.2,0,.4,0,.8,0,1.2v1.2c0,.4,0,.8,0,1.2-.2.4,0,.7,0,1.2-.1.4-.1.8,0,1.2.1.4,0,.9,0,1.2,0,.4,0,.8,0,1.2,0,.4,0,.8,0,1.2,0,.4,0,.8,0,1.2,0,.5,0,1,0,1.4-.2.5-.1.7-.3,1-.2.3-.5.5-.9.6-.4.2-.9.2-1.4.2-.6,0-.8-.2-1.2.1-.5.4-.6,1.8.1,1.9.6.1.9-.1,1.3-.1.5,0,1,0,1.4,0,.4-.1,1,0,1.4-.1.5,0,.9,0,1.4,0,.4-.2.9,0,1.5,0,.5,0,1,0,1.4.1.5,0,1,0,1.4,0,.5,0,.9,0,1.4,0,.6,0,.6-1.5.1-1.8s-.7,0-1.1,0c-.6.2-1-.2-1.5-.2-.4,0-.7-.3-.8-.6-.3-.3-.4-.6-.4-1,0-.5,0-1,0-1.5,0-.4,0-.8,0-1.2,0-.4,0-.8,0-1.2v-3.6c0-.4,0-.8,0-1.2,0-.4,0-.8,0-1.2,0-.4,0-.9,0-1.2,0-.4,0-.8,0-1.2v-1.2c0-.4,0-.8,0-1.2,0-.4,0-.9,0-1.2,0-.4,0-.8,0-1.2,0-.4,0-.8,0-1.2v-1.2c0-.4,0-.8,0-1.2,0-.7,0-1,.3-1.4.4-.3.9-.4,1.4-.3l1.3.2c.5.1.8,0,1.1.4.3.2.9.4,1,.6.2.2.6.4,1,.7.3.3.7.7.9.9.3.3.6.6.8,1l.8,1c.2.3.4,1.1.8,1.1.6,0,1.4-.3,1.4-.6-.1-.6-.3-1.2-.5-1.8-.1-.6-.3-1.2-.5-1.7-.3-.5-.5-1.1-.5-1.7,0-.6,0-1.4-.5-1.7-.4-.1-.9-.1-1.3,0-.6,0-.8,0-1.3,0s-.9,0-1.3,0-.8,0-1.3,0h-1.3ZM235.3,18.8c-.4.3-1,.7-1.2.9-.4.4-.8.6-1.3.9-.5.3-.9.6-1.3.9-.5.3-.8.6-1.3.9l-1.3.8c-.3.3-.7.5-1,.7-.4.2-.7.4-1,.7-.3.2-.7.5-1.1.6-.6.2-.9.5-1.1.6-.6.2-.8.4-1.2.2-.3,0-.5-.1-.7-.3-.4-.3-.6-.4-.8-.6-.3-.4-1-.5-1.4-.2,0,0,0,0-.1.1-.4.4,0,.6,0,1.1,0,.2.7.6.8,1,.2.4.4.6.7.8.3.3.6.6.9.9.3.3.6.5,1,.7.3.2.7.3,1,.3.4,0,.8-.2,1-.6.2-.3.5-.6.8-.8.4-.4.9-.7,1.4-1,.2,0,.3-.5.8-.5.4,0,.4-.2.7-.5l1.2-.8c.4-.3.9-.5,1.2-.9.4-.4.9-.6,1.2-.9.3-.3.8-.4,1.2-.9.3-.4.8-.6,1.2-.9.4-.4.7-.7,1.1-1,.2-.2.6-.6,1.2-1,.4-.3.8-.6,1.1-1,.3-.4.7-.7,1.1-1,.3-.2.5-.8,1.1-1.1.4-.3.8-.7,1.1-1,.8-.8,1.8-1.7,2.1-2,.4-.5.8-.8,1.1-1.2.2-.5.6-.6.9-1.2.2-.4.9-1,.8-1.4s-.3-.6-.8-.8c-.6-.2-.8.4-1.2.6-.4.2-.5.7-.8,1.1-.4.4-.7.5-1,.9-.3.2-.6.4-.8.7-.3.4-.7.7-1.1,1-.5.4-1,1-1.5,1.4-.4.2-.7.4-1,.8-.4.5-.7.5-1.2,1-.6.5-.8.7-1.2,1l-1.3,1ZM219.8,14.2c.3.3.6.6.8,1,.2.3.3.8.7,1.1.3.4.5.8.8,1.2.2.4.7.6,1.2.6.6,0,.7,0,1.1-.6.4-.4.6-.7.4-1.2,0-.4,0-.7-.2-1.1,0-.2-.2-.7-.5-.9-.4-.3-.4-.6-.8-.7-.4-.2-.7-.3-1-.6-.2-.2-1-.2-1.3-.5-.4-.3-.9-.4-1.4-.4-.4,0-.9,0-1.3,0-.3,0-.7,0-.7.5,0,.4.5.8.8.8.5.2,1,.4,1.4.8ZM223.1,3.9c-.2.4.3.6.7.9.6.4,1.2.6,1.4.8.2.4.5.7.8,1,.4.3.4.8.6,1.1.3.5.3,1.1.7,1.3.3.2.8.7,1.3.6.5,0,.9-.3,1.2-.6.3-.4.4-.8.5-1.3,0-.4,0-.8-.2-1.1-.1-.5-.3-.5-.5-.9-.2-.3-.4-.6-.8-.8-.3-.3-.6-.4-1-.5-.3,0-.7-.4-1.2-.6-.5-.2-.9-.4-1.4-.4-.4,0-.8,0-1.2,0-.3,0-.6.2-.8.5ZM276.8,15.5c-.6.2-1.1.3-1.7.2-.4,0-.8-.4-1-1.2-.2-.6-.6-1.3-.4-1.8,0-.2,0,0,0-.4.1-.5.4-.7.4-1.6s-.2-.4-.4-.6c-.3-.2-.6-.4-.9-.4-.6-.2-1.3-.4-1.9-.4-.2,0-1.2.3-1.4.3-.4,0-.8.3-.8.7,0,.2,0,.3.1.4.3.8,1.4,0,1.7.5.2.3.4.6.5,1,.2.6.4,1.1.5,1.7,0,.3.1.6.2,1,.1.3.2.6.2,1,0,.4-.2.7-.5.9-.4.3-.8.5-1.2.6-.4.1-.8.2-1.2.2-.4,0-.8.1-1.1.3-.6.2-1,.2-1.6.4-.5.2-1.1.2-1.6.2-.5,0-1-.2-1.4-.5-.5-.4-.8-.4-1.2,0-.3.3-.2.6.1,1,.3.2.5.4.8.7.3.3.6.6.9.9.3.3.7.5,1.1.6.3,0,.8,0,1.2-.2.2,0,.3-.2.8-.5.3-.1.8-.3,1.2-.4.5-.2.7-.2,1.3-.4.5-.1,1.1-.3,1.6-.4.8-.2,1.5,0,1.6.2.3.5.5,1.1.6,1.7.1.5.2,1,.4,1.6,0,.5.2.9.3,1.4.1.4.2.9.3,1.3.1.4.2.9.3,1.3.1.6.2,1.1.3,1.3.1.5.2,1.2.4,1.6.2.5.3,1.1.4,1.6,0,.4.1.8.4,1.2.5.5.6.9,1.2.9.5,0,1.4,0,1.3-.8,0-.6-.1-1.1-.3-1.7-.2-.4-.3-.9-.4-1.3-.2-.4-.3-.8-.4-1.2-.1-.3-.1-1-.4-1.3-.3-.4-.2-.9-.4-1.3-.2-.4-.4-.8-.3-1.3,0-.5-.4-.8-.4-1.3,0-.5-.2-.9-.4-1.4-.2-.5-.3-.9-.4-1.4,0-.4-.1-.9-.2-1.3.1-.3.3-.6.5-.8.3-.2.6-.3,1-.4.5-.2,1.1-.3,1.6-.4.5,0,.9-.2,1.4-.4.6-.2,1.2-.4,1.9-.5.4,0,.7.1.7.3,0,.4,0,.8-.4,1-.3.4-.7.8-1,1.2-.4.4-.7.8-1,1.2-.2.3-.4.6-.6,1,0,.5,0,.7.2.9.5.4,1.2.2,1.8-.4.2-.2.4-.6.8-.7.4-.2.4-.4.7-.7.4-.4.7-.9,1.2-1.2.3-.3.6-.9,1.2-1.2l.8-.6c.3-.3.7-.5,1.2-.5.5-.1,1-.2.9-.8-.1-.3-.3-.5-.4-.8-.3-.4-.7-.7-1.2-.9-.5-.5-1.1-.9-1.8-1.2-1-.2-1,.4-1.2.5-.5.3-.4.6-1.3.8-.6.1-1.2.3-1.7.4-.3,0-.6.1-.9.2-.3.2-.6.3-1,.3l-1.6.4ZM311.4,11.2c-.1-.3-.3-.6-.4-.9-.2-.3-.4-.5-.6-.8-.3-.2-.6-.6-.8-.7-.3-.3-.7-.5-1-.7-.3-.2-.7-.7-1.2-.7-.4,0-.8-.2-1.1-.3-.3-.1-.7,0-.8.3-.2.4,0,.9.4,1.1,0,0,.1,0,.2,0,.2,0,.4.4.7.6.2.1.4.3.5.6.2.4.4.9.6,1.3.2.4.4.9.5,1.4,0,.5.3,1,.5,1.4.2.5.6.8,1.2.8.6,0,1.2-.1,1.4-.8.1-.5.5-1.2.4-1.6l-.2-1ZM318.2,23.9c-.6.4-.6.6-1,.9-.4.2-.8.5-1,.8-.3.3-.6.6-1,.8-.4.2-.8.6-1.1.7-.4.2-.7.5-1.1.7-.5.2-.8.6-1.1.7-.5,0-.8.5-1.2.6-.5.2-.9.4-1.2.8-.4.2-.7.5-1,.9-.2.4.2.9.5,1,.4.2.6-.3,1.2-.2.4,0,.7-.3,1.1-.4.4-.1.7-.3,1-.5.2-.1.5-.3,1-.5.3-.2.6-.4.9-.6.3-.2.6-.3.9-.6.2-.1.4-.6.9-.6.6,0,.6-.3.9-.6.2-.2.7-.3.9-.6.2-.3.5-.4.8-.6.2-.3.5-.5.8-.7.4-.1.7-.4.9-.7.3-.4.4-.3.8-.7.2-.3.5-.5.8-.8.2-.2.4-.5.8-.8.4-.3.5-.7.8-.8.3-.1.3-.4.6-.7.2-.2.4-.4.6-.7,0-.3.3-.6.6-.7.3-.1.3-.4.6-.7.2-.2.4-.5.5-.7,0-.2.3-.4.5-.7.3-.4.5-.5.5-.7s.4-.6.5-.8c0-.3.2-.5.4-.8.3-.3.2-.4.5-.8.2-.2.4-.5.4-.8s.2-.5.4-.8c.2-.4.6-1.1.8-1.6.2-.5.8-1,.8-1.6,0-.3.2-.5.4-.7.3-.2.5-.4.8-.7.4-.3.7-.6.8-1,0-.5-.4-.9-.6-1.2-.2-.4-.6-.7-1-.9-.3-.1-.6-.4-.8-.6-.2-.2-.5-.3-.8-.4-.4,0-1-.2-1.9-.3-.3,0-1.7-.1-1.3.9.2.4.9.4,1.4.5.5.1.8.6.8,1.1,0,.3,0,.5-.2.8,0,.2-.4.8-.4,1.2-.1.6-.6,1-.6,1.4-.2.5-.4,1.1-.8,1.5-.3.5-.6,1-.8,1.5-.2.4-.6,1-.8,1.4-.2.4-.5.9-.6,1.1-.2.4-.2.6-.4.7-.6.2-.5.7-.8,1.1-.3.3-.5.7-.8,1.1-.1.6-.5.6-.8,1-.4.4-.4.7-.8,1-.4.3-.7.6-.9,1-.3.4-.6.7-.9.9l-1,.9ZM314.5,4.9c-.3.4,0,.8.4,1.1.5.4.8.8,1.1,1.3.2.5.4.9.5,1.4.2.5.2,1,.4,1.7,0,.5.2,1,.4,1.4.4.5.5.8,1.3.8.6,0,1.1-.3,1.3-.9.2-.5.4-1.1.4-1.6,0-.3,0-.7-.2-1,0-.3-.2-.6-.4-.9-.2-.4-.4-.6-.6-.8-.2-.3-.5-.5-.7-.7-.4-.3-.5-.4-1-.8s-.8-.6-1.1-.8c-.3-.2-.7-.4-1.1-.4-.3-.1-.6,0-.8.2ZM353.9,11.4c-.5.1-1,.2-1.4.3-.6,0-1,.2-1.5.2h-1.4c-.6.1-1,0-1.3-.4-.2-.3-.4-1.2-1.4-.9-.6.2-.3,1.2-.2,1.6s.4.7.7,1.2c.2.4.7.5,1.1,1,.3.3.7.4,1.1.4.4,0,.7-.1,1-.3.3-.1.6-.3,1.3-.6.3,0,.6-.1.9-.3.3-.2.8-.1,1.2-.4.3-.2.7.2.9.5.2.5.2,1-.1,1.5-.2.4-.3.7-.6,1.1-.2.3-.4.6-.5,1,0,.2-.4.4-.5.9-.1.4-.4.6-.5,1,0,.4-.3.7-.5.9-.3.2-.3.8-.5.9-.2.2-.3.6-.5.9-.3.4-.1.6-.5.9-.2.2-.3.4-.5.9s-.4.6-.6.9c-.2.3-.3.6-.6.9-.2.4-.4.5-.6.9-.1.3-.3.7-.6.9-.3.4-.6.8-.8,1.2-.2.4-.4.9-.5,1.4,0,.4,0,.7.4.9.5.2,1.1.3,1.7.2.5,0,.5-.6.6-.8.3-.4.5-.8.7-1.2.3-.5.6-.7.7-1.2.1-.4.4-.5.5-.9,0-.6.4-.7.6-1.1.1-.4.3-.8.6-1.1.4-.3.1-.7.6-1.1.3-.3.5-.6.6-1,0-.5.3-1,.7-1.3.4-.3.5-1,.7-1.3.3-.4.5-.8.7-1.3.1-.5.3-.9.6-1.3.3-.3.3-.9.6-1.4.3-.4.5-.9.6-1.3.1-.4.4-.8.6-1.4.2-.4.5-.8.8-1,.4-.3.9-.5,1.4-.6.4,0,1.1-.2,1.7-.2s1.2.2,1.5.8c.3.5.5,1.1.5,1.7,0,.4,0,.9,0,1.3,0,.4,0,.9-.1,1.3-.2.4-.3.9-.2,1.3,0,.4-.1.9-.3,1.3,0,.3-.3,1.1-.3,1.3l-.4,1.3c-.2.6-.3.9-.5,1.2-.2.6-.3.7-.5,1.2-.2.5-.5.6-.6,1.3-.1.5-.4.9-.8,1.2-.4.3-.6.8-1,.9-.4.2-.9.3-1.4.3-.3,0-.7-.1-1-.2-.5-.2-.6-.2-1.2-.4-.2,0-.8-.8-1.4-.6-.4.2-.4.5-.4.7,0,.5.2.6.4.8.4.3.6.5.9.8.4.4.4.9.5,1.2.4.7.7,1.1,1.2,1,.4-.1.8-.1,1.2,0,.4,0,.7-.1,1-.3.6-.2.5-.4,1-.5.2,0,.6-.4.9-.6.3-.2.6-.5.8-.8.3-.4.5-.5.7-.9.1-.4.5-.7.6-1,.2-.5.5-.7.5-1,.2-.4.3-.9.6-1.3,0-.5.3-.9.5-1.4.3-.5.2-.9.5-1.4.2-.4.4-.9.4-1.4,0-.5.1-1,.3-1.4l.2-1.4c.1-.5.2-1,.1-1.5,0-.5,0-.8,0-1.4,0-.6-.1-1.2-.2-1.8,0-.6-.3-1.1-.7-1.6-.3-.4-.8-.8-1.2-1.1-.6-.3-1.2-.4-1.8-.4-.7,0-1,0-1.3,0s-.6-.6-.4-1.1c.1-.4.3-.6.4-.9.2-.4.3-.8.6-1.2.2-.4.5-.8.8-1.1.2-.3.9-.4.8-1.1,0-.4-.3-.8-.6-1.1-.4-.4-.9-.7-1.4-.9-.5-.3-1-.5-1.6-.6-.5-.1-1-.4-1.2-.2-.4,0-.8.1-1.2.1-.6,0-1,.4-.8,1.1.1.5,1.4.1,2,.4.5.2.9.7.9,1.3,0,.6-.1,1.2-.4,1.7-.2.3-.3.7-.4,1.1,0,.4-.2.8-.4,1.1-.3.4-.2.8-.4,1.1-.1.2-.3.5-.5.7-.2.2-.3.4-1.5.7l-1.5.3ZM369.9,4.2c.3.4.5.5,1,.7.6.2.7.7,1,.9.2.1.6.8.8,1,.4.3.4,1,.8,1.3.4.4.9.8,1.2.8.3,0,.8-.2,1-.5.2-.3.3-.6.3-1,0-.4-.1-.7-.2-1,0-.3-.2-.7-.5-.9-.2-.2-.5-.4-.8-.7-.4-.4-.8-.2-1-.6-.2-.2-.9-.3-1.2-.6-.4-.3-.8-.5-1.3-.5-.2,0-.7-.2-1.1-.2-.3,0-.6.2-.8.5-.2.5.5.6.6.7h0ZM371.8,15.4c.3.2.5.4.8.6.3.2.6.4.8.7.2.3.5.3.7.7.2.3.4.4.6.8.3.3.6.6.8,1,.1.4.3.8.4,1.2.2.4-.4.6-.9.7s-.8.4-1.2.5c-.4,0-.7.4-1.1.5-.4,0-.7.1-1,.2-.5.2-.7.3-1.1.4-.6.2-.6.4-.5.9,0,.3.5.6,1.3.4.4-.3.8,0,1.3-.1.6,0,1-.2,1.6-.2.5,0,1-.1,1.5-.2.3,0,.7,0,1,0,.3,0,.6,0,.8.2.4.3.8.5,1.3.6.5,0,.8-.2.8-.6.1-.3.2-.7.2-1.1,0-.6-.2-1.3-.4-1.9-.1-.3-.4-.6-.5-.9-.1-.3-.3-.6-.6-.9-.3-.4-.5-.4-.7-.9,0-.4-.6-.4-.7-.8-.1-.4-.4-.4-.7-.7-.2-.2-.6-.2-.7-.6-.2-.3-.4-.5-.8-.6-.3-.1-.6-.3-.8-.6-.2-.3-.5-.4-.9-.5-.3,0-.6-.2-.9-.4-.4-.2-.7-.2-1.1-.4-.4-.2-.9-.4-1.3-.6-.8-.2-1.5-.4-1.7.3,0,.3,0,.3.3.6s.5.3,1,.6c.2.1.8.3,1.2.6l1,.6ZM378.4,1.5c-.2-.3-.8-.4-1-.5-.3,0-.8-.4-1.2-.5-.6-.2-.8-.2-1.3-.4-1-.3-1.6-.2-1.8.3-.2.4.4.6.8.8.5.2,1.1.6,1.4.7.3.2.6.5.9.8.2.3.5.6.8.9.3.4.5.7.8,1.1.3.4.7.6,1.2.6.6,0,.6-.2.9-.5.3-.4.2-.6.3-1,0-.3,0-.7-.2-1-.2-.2-.4-.5-.6-.8l-.8-.7Z"/>
    <path id="_パス_909" data-name="パス 909" class="cls-1" d="M141.3,164.5c-.5,0-1,.2-1.6.3-.4.2-.6.2-1.2.4-.6.3-1.3.5-1.5.3-.1-.1-.2-.5.2-1,.1-.2.7-.6,1-.9.3-.3.4-.6.8-.8.2-.1.5-.5.8-.8.3-.3.5-.5.8-.8.2-.3.5-.6.8-.8.5-.3.5-.4.6-.7s.5-.4.6-.7c.2-.3.4-.5.7-.7.3-.3.3-.5.7-.6.6-.3.6-.7,1.2-1.2.4-.4.8-.7,1.3-.9.5-.2,1.2-.2,1.2-1.1,0-.4-.2-.7-.4-1.1-.3-.4-.6-.8-1-1-.6-.4-.9-.5-1.3-.8-.3-.3-.8-.4-1.2-.4-.6,0-.7.5-1.6.7-.6.2-1.1.4-1.6.7-.5.2-.9.4-1.4.5-.7.2-1,.4-1.7.6-.6.1-1.2.3-1.7.5-.4.2-.9.3-1.3.2-.4,0-.7-.3-1-.5-.4-.3-.2-.9-.9-1-.2,0-.6,0-.8.7,0,.5,0,1,.3,1.5.2.4.5.9.6,1.1.2.3.5.6.8.9.4.3.6,0,1.1.3.2,0,.7-.1,1.1-.4.4-.4.8-.7,1.4-.8.2,0,.4-.3.8-.4.3,0,.7-.2.9-.4.3-.2.6-.3.9-.4.4,0,.7-.2,1-.4.4-.2.6,0,1.2-.3.3-.2,1-.6,1.2-.2.2.4-.2.8-.5,1.2-.2.3-.4.7-.7,1-.4.4-.7.6-.9,1.1-.1.4-.5.6-.9,1.1-.3.4-.6.8-.9,1.1-.4.3-.7.6-.9,1.1-.2.5-.7.8-1,1-.3.4-.6.7-1,1-.4.4-.7.8-1,1-.4.4-.5.6-1,1-.2.2-.4.5-.7.6l-.8.6c-.2.2-.6.4-.8.6-.3.2-.6.3-.8.5-.3.2-.6.3-.9.4-.3.2-.8.2-1,.4-.3.2-.7.4-1.1.3-.4,0-.8.1-1.2.2-.5,0-.9.3-1.1.6-.2.4-.4.8-.4,1.2,0,.8.4,1.2,1.2,1.2.4,0,.8-.1,1.2-.2.5,0,1-.2,1.3-.5.2-.2.4-.2,1.2-.5.4-.1.9-.5,1.2-.5.5,0,.9-.1,1.2-.4.4-.2.8-.3,1.2-.4.4-.2.7-.2,1.2-.4.4-.2.8-.3,1.3-.4.4,0,.8-.2,1.2-.4.5-.2.8-.1,1.3-.4.2,0,.4-.1.6-.1.2,0,.5,0,.5.3,0,0,0,.1,0,.2-.2.4-.4.7-.7,1-.3.4-.6.8-.9,1.2-.2.3-.4.7-.5,1-.2.3-.3.7-.4,1,0,.4,0,.7-.2,1.1-.1.4-.1.8,0,1.2,0,.4,0,.8,0,1.2,0,.4.1.7.2,1.1,0,.4.3.7.4,1,0,.3.3.6.5.9.2.2.5.5.6.8.2.4.5.4.7.7.2.2.6.4.8.6.2.3.5.5.9.5.4,0,.7.2,1,.4.3.3.7.4,1,.4.4,0,.6.2,1.1.3.5.1.6.4,1.1.2.3,0,.6,0,1.1.2.3,0,.7,0,1.1.1.7.1,1.4.1,2.1,0,.6,0,1.1,0,1.6-.2.5-.2,1-.4,1-1.2,0-.3,0-.7-.3-.9-.2-.3-.4-.5-.7-.6-.6-.3-1.2-.5-1.8-.5-.4,0-.7,0-1,.2-.4,0-.7.1-1.1.2-.5,0-1,0-1.4,0-.6-.2-1.1-.2-1.5-.3-.6-.2-1-.2-1.4-.4-.4-.2-.9-.4-1.3-.6-.4-.3-.8-.5-1.1-.8-.3-.3-.6-.7-.8-1.1-.2-.4-.4-.9-.6-1.3-.2-.5-.3-1-.2-1.6,0-.5.1-1,.2-1.4,0-.5.2-.9.5-1.3.2-.4.5-.8.8-1.2.3-.4.6-.7,1-1,.3-.2.6-.8,1.2-1,.4-.1.8-.6,1.2-.8.5-.2.8-.4,1.4-.7.4-.2.9-.4,1.3-.5.5-.2,1.1-.3,1.6-.4.6,0,1.1-.3,1.6-.3.5,0,1.1,0,1.6-.1.6,0,1.1-.1,1.7-.1.4,0,.8,0,1.1-.3.4-.2.4-.5.4-1s-.3-.6-.4-.9c-.1-.4-.4-.5-.9-.6-.3-.1-.7-.2-1-.3-.3,0-.5-.3-1-.1-.4.2-.9.3-1.8.6-.4.1-.5.3-.8.4-.3,0-.6.2-.9.3-.4.2-.9.4-1.3.4-.5,0-.9.2-1.4.4-.5.2-.8.2-1.3.4-.4.2-.9.3-1.3.4l-1.5.4ZM181.5,164.5c-.2.6-.6,1-.6,1.3,0,.3-.3.5-.4.9,0,.3-.2.6-.4.9-.2.3-.3.5-.5.8,0,.4-.2.5-.4.8-.1.3-.3.6-.5.8-.2.2-.3.6-.5.8-.2.3-.4.5-.6.8-.2.3-.4.6-.6.8-.3.4-.6.7-.9.9-.4.2-.8.3-1.2.4-.6.2-.9-.1-1.3-.6-.3-.5-.6-1.1-.8-1.6-.2-.6-.3-1.3-.4-1.9-.1-.5-.2-1-.1-1.6l.2-2c0-.4,0-.7.3-1,.2-.3.3-.6.4-1,.2-.4.3-.5.5-1,.2-.5.5-.7.6-.9.2-.3.4-.6.6-.8.3-.2.5-.5.7-.8.1-.3.4-.4.8-.8.3-.2.5-.5.8-.6.3-.2.6-.4.9-.6.3-.3.6-.5,1-.6.5-.1.5-.3.9-.4.5-.2,1-.4,1.5-.4.5-.1,1,0,1.5.2.7.4.5,1.8.5,2,0,.3.1.6-.2.9-.3.4-.3,1-.5,1.4-.2.4-.4.9-.5,1.4l-.6,1.4ZM177.5,156.7c-.5.2-.9.5-1.3.8-.5.2-.9.5-1.2.9-.4.4-.9.6-1.2,1-.3.4-.6.8-1,1.1-.3.4-.6.7-.9,1.2l-.8,1.3c-.2.3-.4,1-.6,1.4-.2.5-.4,1-.5,1.5,0,.5-.1,1-.3,1.6-.1.5-.2,1.1-.1,1.6,0,.6.1,1.2.1,1.8,0,.6.2,1.2.4,1.7.2.6.4,1.1.6,1.6l.4.8c0,.3.3.5.5.7.2.2.4.4.6.6.2.2.5.4.7.6.5.3,1.1.5,1.6.5.5,0,1.3,0,1.6-.3.2-.3.5-.5.8-.6.3,0,.5-.3.7-.6.1-.3.5-.4.6-.7,0-.3.4-.4.6-.7.3-.5.6-1,1-1.4.4-.4.6-.8.8-1.3.2-.5.5-1,.8-1.4.3-.5.4-.8.8-1.4.3-.5.5-.9.7-1.4.3-.5.5-1,.7-1.5.1-.4.6-1.1.7-1.5.2-.4.5-1,.7-1.6.1-.4.5-1.1.7-1.6.3-.5.5-1.1.6-1.6,0-.5-.1-1-.4-1.4-.3-.3-.6-.7-.7-1.1,0-.3.2-.6.5-.6.5,0,1,0,1.4,0,.4,0,.9.1,1.4.2.4,0,.9.1,1.3.2.4,0,.8.2,1.2.4l1.2.5c.4.2.8.4,1.1.6.3.3.7.5,1.1.8.4.3.8.7,1,.8.2.3.4.5.6.7.4.2.3.5.5.7.2.3.4.4.5.8,0,.3.2.6.4.8.3.5.5,1.1.6,1.7.1.6.2,1.2.2,1.8,0,.4,0,1,0,1.4,0,.6,0,1-.2,1.3-.3.3-.3.8-.4,1.2-.2.5-.5.9-.5,1.2-.1.5-.6.6-.6,1,0,.5-.6.7-.8,1-.2.4-.5.7-.8.9-.3.2-.7.4-1,.7-.4.3-.5.4-1,.8-.5.2-.6.5-1,.7-.6.2-1,.5-1.3.6-.4.1-.7.4-1,.4-.4.2-.8.3-1.2.4-.3.2-.7.4-1.1.4-.3,0-.9.3-1.3.4-.6,0-1.2.2-1.7.4-.6.3-.3,1.5.3,1.6.5.2,1,.2,1.4.1.4-.1.8-.2,1.2-.2.5,0,.8-.2,1.3-.3.4-.2.7-.3,1.1-.3.4-.1.8-.3,1.2-.5.4-.2.6-.2,1.1-.5.3-.2.7-.4,1.1-.4.4-.1.9-.4,1.2-.6.2-.1.4-.4.7-.4.3,0,.6-.3.8-.5.2-.2.5-.4.7-.5.3-.1.5-.3.7-.6.3-.3.3-.5.6-.6.3-.1.4-.2.6-.6.2-.5.6-1,1-1.4.4-.4.6-.9.8-1.5.3-.5.5-1,.6-1.6,0-.5.4-1,.4-1.7s0-1,.1-1.8c0-.4,0-1.1,0-1.4,0-.4-.2-.9-.2-1.4,0-.4-.2-.9-.4-1.3-.2-.5-.4-.9-.5-1.2-.2-.4-.4-.8-.7-1.1-.2-.4-.5-.7-.8-1-.4-.3-.7-.6-.9-.9-.3-.3-.6-.6-1-.8-.4-.3-.7-.4-1.1-.7-.3-.3-.7-.5-1.2-.6-.4-.2-.8-.4-1.2-.6-.4,0-.7-.3-1.3-.4-.4,0-.9-.2-1.3-.3-.4-.2-.9-.3-1.4-.3-.5,0-.9,0-1.4-.2-.4-.2-.9-.2-1.4,0-.5.1-1,.2-1.5,0-.5,0-1,0-1.6.2-.6,0-1,.3-1.5.3-.6,0-1,.4-1.4.4-.5,0-1,.3-1.5.5l-1.4.7ZM228.1,165.1c-.2-.3-.4-.5-.6-.4-.2,0-.2.4-.1,1,.1.5.2,1.1.2,1.6-.2.9-.3,1.5-.4,1.8-.1.6-.6.9-.8,1.2-.3.3-.6.7-.8,1.1-.3.4-.4.8-.4,1.3,0,.6,0,.8.4,1,.3.2.6.3,1,.4.5,0,1-.1,1.4-.5.4-.3.7-.7.9-1.2.2-.5.3-1,.4-1.5,0-.5,0-1,.1-1.4,0-.5,0-1-.2-1.5-.3-.6-.2-.9-.4-1.6-.1-.5-.3-.9-.6-1.3ZM232.9,150.1c0,.4,0,.6.7,1,.6.4,1.3.7,1.3,1,.2.4.4.8.7,1.1.3.4.4.8.4,1.2.1.4.3.7.5,1,.2.3.6.6,1,.5.4,0,.9-.1,1.1-.5.2-.3.4-.7.4-1.1,0-.5-.2-.9-.2-1.1,0-.4,0-.7-.4-.9-.4-.2-.3-.4-.6-.7-.3-.3-.4-.6-.8-.6-.3,0-.8-.5-1.1-.6-.4,0-.9-.3-1.2-.5-.3-.3-.8-.3-1.2-.2-.3,0-.7,0-.7.4ZM226.6,158.4c-.2-.3-.5-.5-.8-.7-.2-.2-.7-.6-1-.8-.2-.1-.4,0-.8.8-.1.3-.6.6-.7.8-.3.4-.4.7-.7.8h-1c-.4.2-.7-1-.9-1.5,0-.6,0-1.2,0-1.8,0-.8,0-1.5,0-2.3,0-.4-.4-1,.1-1.2.6-.2.8-.8,1.3-1.1.6-.1,1.2-.3,1.8-.5.2-.1.2.3,1.3,0,.5,0,1.2-.1,1.2-.6,0-.3-.1-.5-.4-.6-.2-.2-.3-.6-.8-.7-.3,0-.6-.5-.9-.6-.2-.2-.4-.3-.6-.4-.8-.2-1,.5-1.5.8-.5.3-1,.5-1.5.7-.5.1-1,.4-1.5.7-.5.3-1,.4-1.6.4-.6,0-1.1.2-1.6.4l-1.7.5c-.2,0-.6,0-.8.2-.3.2-.7.4-1,.4-.9.2-1.4.7-1.1,1.3.3.5.9.7,1.5.6.3,0,.6,0,1.2-.2.4,0,.7-.1,1-.3.5-.3,1-.4,1.5-.4.4,0,.8,0,1,.2.2.3.6.4.6.9,0,.6-.1,1.2-.1,1.6s0,1.2,0,1.9c0,.4-.3.8-.6,1-.4.2-.8.6-1.1.6-.7,0-1.4,0-2,0-.5,0-1.1-.1-1.6-.3-.5-.2-1.1-.1-1.6.1-.8.4-.9.6-.9.9,0,.4.3.6.9.9.5.2,1.1.3,1.6.2.5-.2,1-.3,1.6-.3.5,0,1,0,1.4,0,.4,0,.8.3,1,.6.3.3.4.8.2,1.2-.2.5-.4,1-.6,1.5-.1.5-.3.5-.4.8s-.4.5-.4.8c0,.4-.3.5-.4.8-.2.4-.3.5-.4.8-.1.4-.3.4-.5.7-.1.2-.2.6-.5.8-.3.2-.2.4-.5.7-.2.2-.4.5-.5.8,0,.2-.4.4-.6.8-.2.4-.4.7-.6,1.1-.2.7-.4,1.4,0,1.8s1,.3,1.3-.4c0-.2.5-.4.6-.7,0-.2.4-.4.5-.7,0-.5.4-.7.7-1,.2-.3.4-.7.7-1.1.4-.3.6-.7.8-1.2,0-.2.3-.4.4-.7,0-.2.4-.6.5-.8s.5-.4.6-.1c.2.4.3.9.3,1.4v1.5c0,.4,0,.8,0,1.2-.2.6,0,1.4,0,2.1-.1.6-.1,1.3,0,2,0,.7,0,1.3,0,2,0,.7,0,1.3,0,2,0,.7,0,1.3,0,2,0,.3,0,.6,0,.9,0,.2,0,1.1.6,1.3.5,0,.9,0,1.2-.4.2-.3.4-.2.6-.6.2-.3.4-.7.4-1,0-.6,0-1.3-.2-1.9,0-.6-.1-1.3-.1-1.9,0-.7,0-1.3,0-2,0-.7,0-1.3,0-2,0-.5,0-1.4,0-1.9v-2c0-.4.1-1,.1-1.4,0-.6,0-.8.6-1,.4-.2.7-.1,1,.3.2.3.4.6.5,1,0,.4.5.8.7,1.1.2.4.6.6,1,.5.4-.1.7-.3,1-.6.3-.2.3-.4.4-1,.1-.6-.1-1.3-.6-1.7-.3-.2-.4-.4-.6-.6-.2-.2-.5-.4-.7-.5-.3-.2-.7-.3-1-.4-.3-.2-.7-.3-1-.4-.6,0-1.4-.4-1.4-.6,0-.3,0-.7,0-1,.3-.7.3-1.4,0-2.1,0-.3.8-.8,1.5-.7.6,0,1.2,0,1.8,0,.7-.2,1,.2,1.7,0,.6,0,1.2-.1,1.8,0,.2,0,.4,0,.4-.4,0-.4-.2-.9-.4-1.2l-.8-.7ZM242.4,162c.1-.4.3-.8.4-1.2.2-.4.4-.8.4-1.2,0-.2.3-.7.4-1.2,0-.5.3-.8.4-1.3.1-.6.3-1.2.5-1.7.1-.6.3-1.1.5-1.7l.5-1.1c.2-.5.3-.7.6-.7s1.2-.3,1.2-.9c0-.4-.4-.5-.6-.7-.3-.3-.8-.5-1.2-.6-.3,0-1-.4-1.4-.4-.2,0-.6-.6-1-.2-.2.4,0,.9-.3,1.3-.2.4-.3.8-.3,1.3,0,.4-.1.8-.3,1.2-.1.4-.2.8-.3,1.2,0,.2-.2.7-.3,1.2-.3.6,0,.7-.3,1.2-.2.4-.3.8-.4,1.2l-.4,1.2c-.2.5-.4,1.1-.6,1.7,0,.6-.2,1.1-.6,1.6-.3.5-.3,1-.7,1.6-.3.5-.5,1.1-.7,1.7,0,.3-.2.6-.4.8-.2.2-.4.6-.4.9-.1.5-.4.7-.5,1l-.6,1.2c-.2.4-.6.7-1,.9-.3,0-.4-.3-.4-.8,0-.8,0-1.5,0-2.3-.1-.6-.1-1.2,0-1.8,0-.4,0-1.3,0-1.8,0-.6,0-1.2,0-1.8.2-.7-.2-1.5,0-2.2,0-.3.3-1.2.6-1.4.3-.3.9-.5,1-1,0-.4-.8-.7-1.4-.8-.6,0-1.1-.1-1.6-.3-.5-.3-1-.5-1.4-.2-.5.4.1,1.6,0,2.1,0,.5,0,1,0,1.5,0,.7,0,1,0,1.6,0,.5,0,1,0,1.6,0,.5,0,1.1,0,1.6,0,.6,0,1.3,0,1.9,0,.5,0,.9,0,1.4,0,.4,0,.9,0,1.3,0,.4-.1,1.2,0,1.5,0,.5,0,1.1,0,1.6,0,.6,0,1.2,0,1.8.1.7.1,1.4,0,2-.2.8-.7.7-1.2,1.2-.4.4-.8.7-1.3,1-.5.2-.9.6-1.3,1-.4.4-.9.6-1.3,1-.4.3-.9.6-1.4.8-.5.4-.9.4-1.4.8-.3.2-.6.4-.9.4-.4.1-.7.3-1,.6-.3.1-.6.4-.8.7-.2.2-.2.5-.1.8.4.4,1,.6,1.5.4.6-.2,1.4-.4,1.8-.6.4-.3.9-.6,1.4-.8.5-.2.9-.4,1.3-.7.4-.2.8-.5,1.3-.8.2-.1.8-.6,1.2-.9.4-.2.7-.8,1.2-.9.1,0,.3-.2.4-.3.2-.2.3-.3.4-.3s.1,0,.2.2c.2.7,0,1.3.2,1.9s.6.6,1.2,1c.4.2.8.3,1.2.3.5,0,.9,0,1.4.2.5.1,1,.1,1.4,0,.5-.2.7,0,1.2,0,.6-.1,1,.2,1.8,0,.5,0,.9,0,1.4,0,.5,0,1,0,1.5-.1.5,0,1-.1,1.4-.2.4-.2.8-.3,1.3-.4.2,0,.5-.6.8-.6.2,0,.3-.4.4-.8,0-.4-.2-.6-.5-.9-.4-.5-.6-1.1-.4-1.7,0-.5,0-1.2,0-1.9,0-.8,0-1.2-.6-1.2s-.6.2-.8.6c-.2.4-.2,1.1-.4,1.5-.3.5-.4,1-.4,1.6,0,.4-.2.7-.5,1-.3.4-.8.4-1,.5-.4.1-.9.2-1.4.2-.5,0-.9.1-1.4,0-.4,0-.8,0-1.2,0-.6.2-1,0-1.7,0-.6,0-1.1,0-1.6-.2-.6-.2-.8-.2-.7-1,0-.5,0-1.2,0-1.6,0-.6,0-1.3.2-1.8.1-.4.4-.7.7-.9.3-.2.3-.8.8-1,.3-.1.4-.7.7-1,.3-.3.5-.7.7-1.1.2-.4.6-.9.7-1.1.2-.4.4-.8.6-1.2.1-.4.4-.8.6-1.2.2-.3.2-.6.6-1.2.2-.3.3-.9.6-1.2.2-.4.4-.8.5-1.2.2-.4.3-.8.5-1.2l.5-1.2ZM248,170.7c0-.4,0-.7-.1-1-.2-.3-.3-.6-.3-.9,0-.3-.2-.7-.5-.8-.3-.3-.4-.6-.6-.7-.4,0-.6-.4-.9-.8-.3-.3-.7-.6-1-.8-.3-.2-.7-.3-1-.5-.3,0-.6,0-.8.2-.4.2,0,.6.5,1.2.2.2.2.6.6.7.3,0,.5.4.5.7,0,.3.4.9.4,1.4s.3,1.1.2,1.4c0,.4.1.9.3,1.2.2.4.6.6,1.1.6.4,0,1-.2,1.2-.6.2-.5.4-.8.4-1.3ZM258.8,162.7c0,.3,0,.6-.3.9-.3.4-.6.7-1,.9-.4.2-.4.6-.4,1.2,0,.4,0,.8.4,1,.2.2.6.2,1.1.4.6.2,1,.2,1.4-.4.3-.4.5-.5.9-1,.2-.4.4-.9.5-1.3,0-.3.2-1.1.2-1.4,0-.8.2-1.3-.2-2.1-.2-.3-.1-.7-.4-.9-.2-.2-.5-.3-.8-.4-.4,0-.6.1-.8.6-.2.4-.3.8-.3,1.2,0,.4,0,.8-.1,1.3ZM266,170.3c.2,0,.7-.5,1.2-.7s.7-.3,1-.6c.3-.3.6-.5,1-.6.5,0,1,0,1.5,0,.5,0,1,0,1.5,0,.5,0,1,0,1.5,0,.5,0,1,0,1.5,0,.6-.2,1.2-.2,1.8,0,.4,0,.9,0,1.3,0,.5-.1,1-.1,1.5-.1.4,0,1-.2,1.4-.2.4,0,.9-.1,1.2-.4.3-.2.6-.3.8-.6.4-.2.5-.3.4-.8-.1-.6-1.1-.4-1.2-1.2-.1-.7-.2-1.4-.1-2,0-.5-.2-1.4-.8-1.3-.4,0-.4.4-.6.9-.2.6,0,1-.3,1.4-.4.5-.4,1-.8,1.2-.4.3-.8.5-1.2.6-.4.2-.9.2-1.4.2-.5,0-.9,0-1.4,0-.5,0-.9,0-1.4,0-.2,0-.4,0-.6,0,0,0-.6,0-.8,0s-.2,0-.2-.1c.1-.5.5-.9.9-1.2.3-.2.6-.5.8-.8.2-.4.4-.4.7-.6.3-.4.7-.8,1.1-1.1.4-.3.7-.7,1-1.1.2-.2.8-.9,1-1.1.4-.3.7-.7,1-1.2.3-.4.6-.9,1-1.2.4-.2.6,0,1,0,.5-.1.7-.2.8-.7,0-.3-.1-.7-.3-1-.2-.3-.4-.4-.9-.5-.4-.1-.8-.2-1.2-.2-.4,0-.6-.4-1.2-.3-.4,0-.6.4-.6.8,0,.5-.3.6-.5.8-.2.2-.4.5-.6.8-.2.4-.2.6-.6.7-.4.1-.4.6-.6.8-.3.3-.3.6-.6.7-.4.1-.3.5-.6.7-.3.2-.5.4-.6.7-.2.3-.5.4-.6.7,0,.2-.5.2-.6.6-.1.3-.3.5-.6.7-.3,0-.6.3-.7.6-.2.4-.5.4-.7.6-.4.3-.5.4-.7.6-.3.3-.5.4-.7.6-.2.3-.2.5-.7.6-.9,0-1.5,0-1.5-.9,0-.7,0-1.3,0-2,0-.7,0-1.3,0-2,0-.5,0-.9.2-1.4,0-.3.2-.6.4-.9.4-.3.8-.9.7-1.3-.1-.3-.7-.5-1.4-.5-.5,0-1-.1-1.5-.2-.5,0-1.2-.2-1.2.4v1.6c0,.5,0,1,0,1.6.1.6,0,.8,0,1.3,0,.4,0,.9,0,1.3,0,.4,0,1.1,0,1.3,0,.4,0,.9,0,1.3,0,.4.7.8.7,1.3s0,.7,0,.9c0,.4-.2.8-.6.9,0,0,0,0,0,0-.6.1-.8.6-1.3.8-.5.2-1,.4-1.4.8-.4.3-.5.4-.8.4-.3,0-.6.2-.8.5-.4.3-.9.5-1.4.6-.6.3-1.1.4-1.4.6l-1,.5c-.2,0-.7.5-1,.6-.6.2-1,1-.8,1.4.2.3.5.5.8.4.5,0,.9,0,1.3-.2.4-.2.9-.4,1.4-.5.4,0,.9-.6,1.1-.5.3.2,0,.9,0,1.4,0,.4,0,.9,0,1.3v2.3c.1.8,0,1.6,0,2.4,0,.4,0,.8,0,1.2,0,.5,0,.9,0,1.4,0,.2-.3.8.8,1.1.4.1.8-.1,1.3-.3.5-.3.8-.9.7-1.4,0-.2.3-.8.8-1,.5-.3,1.1-.4,1.7-.4h1.4c.5,0,1,0,1.5,0,.5,0,.9,0,1.4,0,.5,0,.9,0,1.4,0,.5-.1.9-.1,1.4,0,.4.1.9.1,1.4,0,.5,0,1,0,1.4,0,.5,0,1,0,1.4,0,.5,0,.9,0,1.4,0,.3,0,.9.2,1.4,0,.3,0,.9,0,1.4,0,.5.1,1,.1,1.5,0,.6,0,1.2.1,1.7.3.3,0,.7.2.9.5.3.5.3,1.2.7,1.5.4.3.8,0,1.3-.3.4-.3.7-.7.8-1.2,0-.4,0-.8,0-1.2,0-.4,0-.7,0-1.1,0-.5,0-.9,0-1.4,0-.3,0-.9,0-1.5v-1.7c0-.6,0-1.3,0-1.9,0-.4.9-.9,1-1.2s.5-.3.5-.6c0-.2-.2-.2-.6-.6-.4-.2-.9-.3-1.3-.4-.4-.1-.9,0-1.4-.2-.3-.1-.7-.2-1,0-.8.3,0,1.6,0,2,0,.6,0,1.3,0,1.9,0,.4,0,1,0,1.5,0,.6,0,1.2,0,1.5,0,.4-.2.6-.2.8,0,.5-.4.5-.6.8-.1.4-.3.5-.7.6-.3,0-.5.2-.8.3-.4.2-.9.2-1.3,0-.4,0-.9,0-1.4,0-.4,0-.9,0-1.4,0-.4,0-.9,0-1.4,0-.6,0-1.1-.3-1.5-.7-.4-.5-.9-.7-.8-1.3,0-.8,0-1.5,0-2.3,0-.5,0-.9,0-1.5,0-.5,0-1,0-1.5.2-.6,0-1.2.5-1.6.3-.2,1-.7,1-1.1s-.4-.3-.6-.6c-.2-.3-1-.4-1.3-.4-.5,0-1,0-1.5-.2-.3,0-.8-.4-1,0-.4.6.2,1.4,0,1.9-.1.6-.1,1.2,0,1.8,0,.5,0,1.4,0,1.8,0,.6,0,1.3,0,1.9-.1.6-.1,1.3,0,2,.2.3-.2.8-.7,1.1-.5.2-.9.4-1.4.6-.6,0-.9,0-1.2,0-.6,0-1,0-1.3,0-.5,0-.7,0-1.2,0s-.9,0-1.3,0c-.5-.1-1-.4-1.4-.6-.4-.3-.8-.8-.7-1.2,0-.7,0-1.4,0-2.1,0-.5.2-.8.2-1.4s.2-.8.4-.8c.4-.2,1.1-.6.8-1.2-.2-.4-.6-.4-.2-.9.3-.4.8-.8,1.2-1l1.3-.8ZM268.9,156c0,.4.3.7.7.8.5.2.6.4.9.8.2.3.4.6.6.9.1.3.3.7.5,1,.2.3.6.5.9.4.4,0,.8-.2,1-.6.2-.3.6-.6.5-1,0-.5-.1-1.1-.4-1.5-.4-.4-.7-1.1-1.2-1.1s-.4-.3-.8-.5c-.4-.2-.6-.4-.9-.4-.8-.2-1.3-.2-1.7.3-.3.3,0,.5,0,.9ZM291.6,153.3c0-.5-.3-.9-.6-1.2-.4-.3-.7-.6-1-.9-.1-.3-.5-.4-.8-.7-.3-.3-.6-.4-1-.4-.5,0-.8.5-1,1,0,.2-.4.2-.9.4-.4.2-.9.2-1.4.2-.7.1-1.5.1-2.2,0-.6,0-1.7,0-2.2,0-.6-.1-1.1-.1-1.7,0-.4,0-1.1,0-1.7,0-.6,0-1.3,0-1.9-.2-.8,0-1-.2-1-.6.1-.4.4-.8.6-1.1.2-.4.8-.5.9-1,0-.6-.7-.6-1.5-.8-.6-.2-1.2-.3-1.8-.2-.5,0-.8-.3-1.2,0-.2.2.1.4,0,1.2,0,.3,0,.7,0,1,0,.3,0,.8.1,1.3,0,.3-.5.2-1,.3-.5,0-1.2.1-1.9.2-.4,0-1,0-1.6,0-.5,0-1.1,0-1.6,0-.7,0-1.3,0-1.8,0-.6,0-1.3,0-1.9,0-.5,0-1.1-.1-1.6-.2-.5,0-.7-.1-.9-.4-.4-.4-.9-1.1-1.2-.8-.4.4,0,1.2-.2,1.7-.2.4-.3.8-.3,1.3,0,.3-.2.6-.5.9-.2.3-.3.4-.5.6-.5.5-.8.7-1,1-.3.3-.5.8-.5,1.2,0,.4.1.8.4,1,.2.1.7.4,1,.4.6,0,1.2-.2,1.7-.5.4-.4.8-.8,1-1.3.2-.6.3-1.2.3-1.8,0-.4.4-.5.6-.8.3-.3.7-.4,1.1-.4.6.1,1.2-.1,1.7,0,.6,0,1.1,0,1.7,0,.6,0,1.2,0,1.7,0,.5,0,1.2,0,1.7,0,.6.1,1.2.1,1.7,0,.6-.1,1.1-.1,1.7,0,.4,0,.9-.1,1.6-.1s1.1,0,1.9.1c.5,0,1,0,1.8,0s1.1,0,1.8,0c.7,0,1.1,0,1.7,0,.7,0,1.1,0,1.8,0,.6,0,1.1,0,1.7,0,.4,0,.8,0,1.2,0,.4,0,.9.2,1,.7.1.5.1,1,0,1.5-.2.3-.3.7-.4,1,0,.4-.3.6.2,1,.4.4,1,0,1.3-.4.4-.3.7-.8.9-1.2.1-.2.6-.5.8-1,.1-.4.6-.5,1.1-.8.4-.2.8-.3,1.2-.3.4,0,.8-.4.8-.8ZM289.8,164.2c0-.4,0-.7-.2-1,0-.3-.2-.6-.4-.8-.2-.2-.4-.5-.6-.8-.2-.4-.3-.5-.8-.6-.4-.2-.7-.4-1-.6-.3-.3-.7-.5-1.2-.6-.4,0-.9-.4-1.1-.3-.3.1-.8,0-.8.3,0,.4.2.8.6,1,.3.2.8.9,1.2,1.1s.2.6.6,1.1c.2.3.4.7.4,1.2,0,.5.2.9.5,1.2.3.3.7.5,1.1.5.4,0,.9-.2,1.1-.5.2-.4.5-.9.4-1.2ZM323.1,176.4c0,.2,0,.4,0,.6-.3.6-.4.8-.8,1-.2.2-.5.4-.8.5-.4.2-.5.1-.8.3-.6.3-1.2.3-1.8.2-.6,0-.9.1-1.2,0-.3-.2-.7-.3-1.1-.3-.4,0-.6-.3-.9-.6-.3-.3-.4-.7-.3-1,0-.4,0-.7.3-1,.3-.2.6-.4.9-.6.4-.1.7-.2,1.1-.2.3,0,.8,0,1.1,0,.4,0,.8,0,1.2,0,.4,0,.8.1,1.2.2.4.1.8.2,1.2.3.5,0,.8.4.9.6ZM325.8,167.4c0-.6,0-1.2,0-1.8,0-.3-.1-.7,0-1.2,0-.4,0-.8.2-1.1,0-.3.3-.7.6-.9.3-.2.5-.4.8-.7.2-.2.5-.3.8-.3.5,0,1.1,0,1.6,0,.5,0,1.2-.2,1.5-.2.4,0,.7,0,1-.2.6-.1.9-.7.9-1.2,0-.5-.4-.9-.9-1.1-.5-.2-1-.3-1.5-.4-.3,0-.7.3-1.2.4-.3,0-.7.1-1,.3-.2,0-.6,0-1.1.2-.4.1-.8-.1-1.3-.3-.6-.2-.5-.4-.6-.9,0-.6,0-1.2,0-1.8,0-.4.2-.6.2-.9-.2-.7.6-.8.7-1.5,0-.4-.3-.7-.6-1-.4-.4-.8-.6-1.2-.8-.5-.2-1-.4-1.5-.6-.4-.1-.8-.2-1.2-.2-.5,0-1.1,0-1.6.4-.3.3-.4.7-.2,1.1,0,0,.1.1.2.2.4.1.8.2,1.2.2.4,0,.7.2.8.6.2.3.4.7.4,1,0,.7,0,1.1,0,1.8,0,.6,0,1.3-.1,1.9,0,.7,0,1-.3,1.1-.5.3-1.1.4-1.7.5-.6,0-1.2,0-1.7.2-.5.1-1.1.2-1.6.1h-1.7c-.4,0-.8,0-1.2,0-.5-.1-1-.2-1.4-.1-.5,0-.9.2-1.3.4-.4.2-.8.6-1,1,0,.2-.4.4-.5.7-.1.3-.3.5-.5.8l-.5.8c-.2.4-.4.5-.4.8,0,.4-.3.5-.4.8-.2.3-.3.6-.4.9,0,.2-.4.4-.4.8,0,.4-.2.5-.4.9-.1.3-.2.6-.4.9-.2.3-.3.6-.4,1,0,.2-.4.5-.4,1s-.3.7-.4,1.2c-.2.4-.3.5-.6.6-.2,0-.4-.3-.4-.8,0-.7,0-1.4,0-2.1.2-.5,0-1.4.2-1.8.2-.5.3-1.1.3-1.7,0-.5.3-1.2.4-1.7.1-.6.3-1.1.5-1.7.2-.5.4-1.1.6-1.7,0-.3.4-1,.6-1.6.2-.4.4-1.1.7-1.6.2-.3.3-.7.4-1,.1-.3.2-.7.2-1.1,0-.5,0-.9-.2-1.4-.2-.5-.3-1-.7-1.3-.3-.2-.2-.4-.6-.7-.4-.4-.6-.7-.7-.8-.7-.6-1.2-.7-1.5-.5-.5.3-.3.8.1,1.3.4.5.6,1,.7,1.6,0,.6,0,1.1-.2,1.7,0,.4-.2.7-.2,1,0,.4-.2.6-.3,1.2,0,.6-.2,1.1-.4,1.6-.1.7-.3,1.2-.4,1.7-.2.6-.3,1.1-.4,1.7,0,.6-.2,1.2-.4,1.7-.2.6-.3,1.1-.3,1.7-.2.6-.3,1.1-.2,1.7l-.2,1.7c.1.6,0,1.2,0,1.7,0,.4,0,.8,0,1.2v1.3c.1.7.2,1,.2,1.4,0,.6.2,1,.2,1.4.1.6,0,1.1.2,1.3.2.2.2.9.4,1.3.2.4.3.8.4,1.2,0,.2.4.6.6,1,.3.5.7,1.1,1.4.8.3,0,.8-.2.8-.8,0-.7,0-1.3,0-2,0-.4-.1-.8-.1-1.2,0-.4.1-.7,0-1.1,0-.3.1-1,.2-1.3.1-.4.2-.8.2-1.3,0-.5.2-.9.2-1.3,0-.4.1-.9.3-1.3.2-.6.3-1,.4-1.3,0-.4.2-.9.4-1.3.1-.4.3-.8.5-1.2.3-.3.5-.8.5-1.2.1-.4.3-.8.5-1.2.2-.3.3-.6.4-.9.1-.3.3-.7.5-1,.2-.3.4-.6.5-.9.1-.3.3-.6.6-.8.3-.3.7-.6,1.2-.7.6-.2,1.2,0,1.7.3.3.1.7.2,1,.2.4.1.8.1,1.2,0,.4,0,.8,0,1.2,0,.4,0,.9,0,1.3,0,.5-.2.8,0,1.4-.2.4,0,.8,0,1.5-.2.4,0,1,.3,1,.6-.2.7.2,1,0,1.7-.2.4,0,.9,0,1.5v1.3c0,.4,0,.8,0,1.2.1.4.1.8,0,1.2,0,.4,0,.8,0,1.2v1.4c0,.5,0,.9,0,1.4-.2.2-.4.4-.7.4-.5,0-1,0-1.5,0-.7,0-1.3,0-2-.1-.6,0-1.2,0-1.8.2-.4,0-.5,0-.9.2l-.9.3c-.2.2-.6.3-.8.5-.3.3-.4.3-.6.6-.3.5-.5,1.1-.6,1.7,0,.6.1,1.2.5,1.8.2.5.6,1,1.2,1.2.5.3,1,.5,1.6.7.5,0,1.1.5,1.8.2.4,0,.7-.1,1.1,0,.3,0,.6-.3,1.1-.1.2,0,.8-.3,1-.3.4,0,.7-.1,1-.4.2-.2.5-.4.8-.6.3-.2.6-.4.8-.6.2-.1.6-.6,1-1,.3-.3.6-.4,1-.3.4,0,.6.5,1,.6.5.2.8.6,1.1.8.4.3.8.6,1.2,1,.2.3.5.3.8.6.3.2.6.3,1,.2.4,0,.4-.2.9-.5.3-.2.4-.6.3-1-.1-.2,0-.5-.2-.8-.1-.3-.4-.6-.6-.8-.3-.2-.4-.6-.9-.7-.4-.2-.8-.6-1.1-.7-.6-.3-1-.4-1.4-.7-.5-.2-1.1-.6-1.5-.7-.4-.1-.5-.4-1-.9-.2-.3-.2-.7-.2-1,0-.4-.1-1.1,0-1.5,0-.5,0-1,0-1.4,0-.6,0-1,0-1.5v-1.5ZM349.9,177.5c0-.4,0-.7-.2-1,0-.3-.3-.6-.6-.8-.2-.2-.5-.5-.8-.6-.3-.1-.7-.2-1-.2-.5,0-.6,0-1,.2-.3.2-.5.4-.8.6-.4.2-.4.7-.6.9-.2.2-.1.6-.2,1,0,.3,0,.7.2,1,.2.4.3.8.6.8.4.2.5.4.8.6.3.1.7.2,1,.2.3,0,.7,0,1-.2.4,0,.3-.4.8-.6.2,0,.5-.6.6-.8s.2-.6.2-1ZM355.1,159.7c0-.5,0-1.1-.2-1.6,0-.5-.2-1-.4-1.5-.2-.6-.4-.9-.7-1.4-.2-.5-.6-.9-.9-1.2-.3-.4-.7-.8-1.2-1.1-.4-.3-1-.6-1.4-.8-.4-.2-.9-.4-1.4-.5-.5-.2-1.1-.2-1.6-.2-.5,0-.7.1-1.1.2-.4,0-.8.2-1.1.5-.4.2-.7.5-.8.8-.1.4-.3.7-.3,1.1,0,.5.2.9.5,1.4.2.4.7.7,1.2.6.4,0,.8,0,1.1-.3.3-.2.6-.4.8-.7.3-.4.6-.4.8-.7.2-.3.5-.2,1-.3.6-.2,1.1.2,1.4.4.4.2.7.6.9,1,.2.4.4.9.6,1.3,0,.4.1.9.2,1.4,0,.4,0,.7,0,1.1,0,.4-.1.7-.2,1.1-.2.3-.3.6-.4,1,0,.4-.3.7-.6.9-.4.2-.6.8-.9.8-.4,0-.7.5-1,.5-.4,0-.8.2-1.2.3-.6.2-.9-.2-1.2.1-.6.5,0,1.4,0,2-.1.7-.1,1.4,0,2,0,.7,0,1.3,0,2,0,.7,0,1.4,0,2,.1.6.6.6.8.6.4,0,.8.1.8-.6,0-.2,0-.8,0-1.4s.3-.8,0-1.4c-.1-.2.2-1,.4-1.4.2-.3.4-.6.7-.8.5-.2.9-.4,1.4-.4.5,0,.9-.3,1.2-.6.2-.2.8-.6,1.1-.9.3-.3.6-.7.8-1.1.3-.4.5-.8.6-1.3.2-.4.3-.9.4-1.4,0-.5,0-1,.1-1.4Z"/>
    <g id="_グループ_1550" data-name="グループ 1550">
      <g id="_最高に" data-name="最高に" class="cls-2">
        <g class="cls-2">
          <path class="cls-1" d="M6.1,95.3c0-.4-.1-1,0-1.7,0-.3,0-1.2,0-1.7s-.3-.8-.8-1c-.6-.2-1.2-.4-1.5-.4-.6,0-1.6,0-2.2-.2-.6-.2-.9-.6-.9-.9s.4-.7.9-.9c.6-.3,1.2-.2,2.1-.1.5,0,1.3.1,2,.2.6.1,1.1,0,1.6,0s1.2,0,1.6,0c.6.2,1.3.2,1.7,0,.5-.1,1.1.2,1.6,0,.4-.2,1.2,0,1.7,0s1-.1,1.7,0c.5,0,1,.2,1.6,0,.6,0,1,0,1.7,0,.4,0,1.3-.1,1.7,0,.5.1,1.2,0,1.6,0s1.1.1,1.7,0c.4,0,1,.2,1.7,0,.6,0,1.1,0,1.6,0,.7-.1,1.1,0,1.6,0s1.2,0,1.6,0c.7,0,1.1.2,1.6,0,.4-.2.6-.9,1.2-1.4.2-.2.2-.4.6-.7.2-.2.2-.7.6-.7s.4.4.9.6c.4.2.7.6,1.4,1,.6.3,1,.6,1.4.9.4.3.5.7.4,1.2,0,.6-.6.9-1,.9-.4,0-1,0-1.4,0-.6,0-1.2-.4-1.5-.4-.4,0-1.1-.2-1.4-.2-.6.1-.9,0-1.3,0-.6.2-.7,0-1.2,0-.3,0-1,0-1.2,0-.6,0-.9,0-1.2,0h-1.2c-.5,0-.7.2-1.2,0-.3,0-.8,0-1.2,0-.5,0-.7,0-1.2,0-.3,0-1.1,0-1.4,0-.6-.2-1,.2-1.4,0-.2-.2-.9,0-1.3.2-.4.2-.8.3-.9.4-.8.6-.2,1.4-.2,1.9,0,.6,0,1.2,0,1.5,0,.4,0,1.2,0,1.5v1.3c0,.6,0,.8,0,1.3,0,.5,0,1,0,1.3,0,.6,0,1,0,1.3,0,.5,0,.9,0,1.3,0,.3,0,1,0,1.3-.2.6,0,1,0,1.3.2.6,0,.9,0,1.3v1.4c0,.7-.4,1.3-.8,1.5-.3.1-1,.4-1.5.2-.4-.2-.3-1.1-.4-1.4-.2-.5-.1-.9,0-1.2.1-.7-.2-1.4-.5-1.8-.3-.4-.6-.7-1-.6-.6.2-.8.3-1.2.4-.4,0-1,.3-1.4.4-.6.2-1.1.4-1.5.5-.4,0-1,.4-1.5.4-.6,0-1.2.2-1.5.4-.3.2-.9.4-1.5.4-.6.1-1.1.1-1.5.4-.3.2-.5.9-1,1-.4,0-.8-.7-1-1.1-.3-.4-.3-.7-.5-1.4,0-.3-.6-.8-.4-1.1.3-.4.9,0,1.7-.2.6-.2,1-.2,1.5-.2s1-.4,1.2-.6c.5-.4.6-.5.6-1v-7.2ZM31.8,85.8c0,.5-.3.8-.7,1-.4.2-1,.5-1.3.3-.3-.3-.5-.8-.6-1-.2-.2-.4-.4-.8-.3-.6,0-.9-.3-1.4-.2-.5.2-.9,0-1.2,0-.5-.2-.9,0-1.2,0-.9,0-1.6-.2-2.3,0-.8.2-1.4,0-2.3,0s-1.4-.1-2.3,0c-1,.2-1.5.1-2.3,0-.3,0-.7-.2-1.2,0-.6.2-.9,0-1.2,0-.6,0-1.1.4-1.6.4-.4,0-.9.5-1.1.7-.3.3-.9.4-1.3.4s-.8,0-.9-.6c0-1,0-1.4,0-1.8,0-.3,0-1,0-1.4s0-.8,0-1.3c.1-.4,0-1,0-1.4s-.2-.9,0-1.3c.2-.3,0-.8,0-1.4,0-.5-.1-.7,0-1.3,0-.3,0-.7,0-1.4s-.4-1.1,0-1.4c.5-.5,1.2.3,1.7.5.5.2.9.6,1.5.7.8.2,1.4,0,2.2,0s1.5,0,2.2,0c.8-.1,1.4,0,2.2,0h2.2c.9,0,1.5,0,2.2,0,.7,0,1.6,0,2.2,0h1.4c.6,0,.9,0,1.5,0,.6,0,1.4-.3,1.7-.6.3-.3.4-.7,1-.8.3,0,.5,0,.8.3.2.1.8.4,1,.7.3.4.6.5.8.8.1.2.5.4.4.8-.2.4-.5.4-.8.8-.1.2-.6.8-.6,1.1,0,.4,0,1.1,0,1.7,0,.6,0,1.1,0,1.5s0,1,0,1.5c0,.5,0,1.1,0,1.5v1.5ZM15.2,99.9c-.2,0-.7-.5-1-.4-.4.1-1.4,0-1.9,0-.6,0-1.5,0-1.9,0s-.8.3-1.1.6c-.3.4-.7.6-.5,1.2.2.4.2.7,0,1,0,.2.4.5.6.6.3.1.8.1,1.2.1s1-.2,1.5-.2,1-.3,1.5-.3,1,0,1.4-.3c.6-.4.6-1,.6-1.5,0-.4-.3-.8-.5-.8ZM10.4,93.3c.7,0,1.3,0,1.9,0s1.3,0,1.9,0c.2,0,.8-.4,1-.5.4-.3.6-.8.6-1.4,0-.4-.1-.4-.4-.8-.2-.2-.4-.3-1-.3-.7,0-1,0-1.7,0s-1.3,0-2,0c-.7.1-1.4.3-1.7.5-.4.2-.2.7-.2,1.8s1,.7,1.6.7ZM15.3,95.2c-.3-.2-.8-.4-1.1-.4-.4,0-1.4,0-1.9,0-.7,0-1.2,0-1.9,0-.5,0-.8.2-1.1.6-.3.5-.5.9-.5,1.4s0,.6.5.8c.4.2.9.3,1.1.3.5,0,1.3,0,1.9,0,.6,0,1.6-.2,1.9,0,.2.1.8-.1,1-.6.2-.3.7-.7.6-1.4,0-.4-.2-.6-.5-.8ZM17.6,81c-.8,0-1.5.2-2.3,0-.3,0-.9,0-1.2,0-.4.2-.9,0-1.2,0-.3-.1-1,0-1.4.6-.3.4-.7,1-.7,1.3s.4.6.6.8c.5.3.8.3,1.4.3h4.7c.7,0,1.7.1,2.3,0,.8-.2,1.4-.2,2.3,0,.7.2,1.5.2,2.3,0,.5-.2.7-.2,1.2,0,.3,0,.7,0,1.2,0,.5,0,.8,0,1.3-.5.5-.5.9-.7.7-1.3-.1-.4-.2-.6-.6-.8-.5-.2-1-.2-1.4-.3-.6-.1-.9.1-1.2,0-.5-.2-1,0-1.2,0-.6,0-1.6.2-2.3,0-.7,0-1.6,0-2.3,0h-2.3ZM11.6,79.1c.3.2,1,.3,1.4.3s.6.1,1.2,0c.6-.1.8,0,1.2,0,.6-.1,1.4,0,2.3,0s1.4,0,2.3,0c.9,0,1.5,0,2.3,0,1,0,1.5,0,2.3,0,.4,0,.6.1,1.2,0,.3,0,.6,0,1.2,0,.3,0,.8-.2,1.3-.5.7-.3.6-.7.7-1.3,0-.4-.4-.5-.6-.8-.2-.2-.8-.4-1.4-.3-.6,0-1.7,0-2.3,0s-1.6,0-2.2,0c-.9,0-1.5,0-2.2,0s-1.3,0-2.2,0c-.8,0-1.4-.2-2.2,0-.6.2-.9,0-1.4,0s-1.2,0-1.4,0c-.5-.1-.8.4-1.2.5-.5.2-.7.7-.7,1.1,0,.4.1.6.6.9ZM23.3,100.8c-.4-.6-.6-.8-.6-1.2,0-.5-.2-1.1-.5-1.3-.3-.2-.2-.6-.4-.9l-.5-.9c-.3-.5-.7-.8-1.3-1-.6-.4-1-.6-1-1,0-.2.1-.7.6-.9.5-.3,1-.2,1.5,0,.4,0,.8,0,1.4.2.8.2,1.2,0,2.2,0s1.3.2,2.1,0c.6-.1,1.4,0,2.2,0s1.3.2,2.2,0c.4,0,.4-.6.4-.8.2-.4.4-.6.8-.5.2,0,.5,0,.8.3.1.2.6.5,1,.7.4.3.7.6.8.8,0,.2.2.4.4.7,0,.3-.3.6-.6.8-.3.3-.5.3-.8.4-.4.1-.2.8-.5,1.1-.4.4-.3.9-.5,1.1-.3.4-.3.8-.6,1-.3.4-.3.7-.6,1-.2.3-.6.7-.6,1-.1.4-.4.8-.6,1-.4.4-.2,1.2-.2,1.6,0,.5.5,1.2.9,1.4.3.1.9.4,1.1.5.4.2.6.4,1.1.5.5,0,.6.2,1.3,0,.6,0,.9-.2,1.4-.1.4,0,1,0,1.3.2.4.2.8.7.9,1.2,0,.4,0,.6-.2,1.1,0,.3-.4.5-.9.6-.3,0-.6.2-1,.5-.3.2-.6.4-.8.6-.2.2-.9-.1-1.2-.4-.3-.2-.7-.4-1.2-.5-.3,0-.8-.4-1.1-.5-.4-.2-.7-.2-1-.6-.4-.4-.6-.3-1-.6-.2-.1-.7-.5-1-.7-.4-.4-.9-.6-1.2-1.1,0-.2-.7-.3-1.3.2-.4.3-.5.3-.8.6-.4.4-.6.4-.8.6-.4.2-.6.5-1.2.8-.5.3-.8.6-1.2.8-.3.1-.8.3-1.3.7-.6.4-.8.3-1.3.7-.4.3-.5.3-.9.4-.4,0-.6.2-.9.3-.7,0-1.2.2-1.4-.4-.2-.5,0-.8.7-1.4.5-.5,1.2-.7,1.5-.9l1.2-.6c.2,0,.6-.5,1.2-.7.2,0,.8-.3,1.2-.7.2-.2.6-.6,1.1-.7l1.2-1c.3-.1.4-1.2.1-1.7-.3-.4-.6-.8-.9-1.2l-.7-1.3ZM25.3,95.3c-.6,0-.9.5-1.2.8-.3.5-.4,1.1-.1,1.5.4.6.5,1.1.8,1.6.2.3.3.6.6.9.1.2.2.5.5.8.4.4.8.4,1.2.4.6,0,1.1-.1,1.2-.6,0-.4.4-.4.5-.9.2-.5.4-.6.5-.8.2-.4.4-.5.4-.8,0-.2.4-.6.4-.8,0-.5.2-.9-.2-1.4-.2-.4-.6-.8-1.2-.7-.7.1-1.3,0-1.8,0h-1.7Z"/>
          <path class="cls-1" d="M70.9,78.2c.5,0,.9,0,1.3,0,.5,0,1,0,1.3,0,.6-.1.7,0,1.3,0s1,.2,1.3,0c.3-.2.5-.5.8-.9.2-.2.3-.3.6-.7.5-.6.6-1,1-1.1.3,0,.4.3.9.6.6.3,1,.7,1.3,1,.5.5.9.6,1.4.9.4.3.5.8.4,1.2,0,.2-.5.7-.8.7-.3,0-.8.1-1.1,0-.2,0-.9-.3-1.2-.3-.4,0-.8-.3-1.1-.2-.8.2-1.3,0-2,0s-1.4,0-2,0c-.7,0-1.4.1-2,0-.8,0-1.4.1-2,0-.6-.1-1.3.2-2,0-.5,0-1.4,0-2,0-.8,0-1.2,0-2,0-.5,0-1.4,0-2,0-.7,0-1.2,0-2,0-.6,0-1.2,0-1.9,0s-1.3,0-2,0-1.2.1-1.9,0c-.6-.2-1.4-.1-1.9,0-.7.2-1.4,0-1.9,0-.4,0-.8,0-1,.1-.5.3-.7,0-1.1.2-.6,0-1.4.1-2.1-.2-.6-.2-.7-.4-.9-.9,0-.3.2-.7.9-.9.7-.2,1.4-.2,2.1-.1.7,0,1.5.3,2.1.3s1.1.1,1.5,0c.3,0,1.2,0,1.5,0,.3,0,1,0,1.5,0,.3,0,1.2,0,1.5,0,.3,0,1.1-.1,1.6,0,.4.1,1,0,1.6,0,.6.2,1.4,0,1.9-.2.5-.2,1,0,1-.3v-1.9c-.2-.5-.4-1.3-.2-1.6.4-.5.6-.3,1.1-.4.2,0,1.1,0,1.8.2.9.2,1.5.6,1.5.8-.1.5-.6.6-.8,1-.2.3-.5.8-.6,1.4,0,.4.2.4.8.7.4.2,1.3.4,1.6.3.4-.2,1.1,0,1.4,0h1.4ZM74.7,92.9c.5,0,1.4-.2,2.2,0,.4,0,1.1-.2,1.3-.5.2-.2.6-.7.9-.8.3-.1.4,0,.8.3.2.2.8.5,1,.7.3.2.6.6.8.8.4.3.4.6.4.7-.2.6-.7.5-.8,1l-.5,1c-.2.6,0,1.2,0,1.8,0,.5-.1.9,0,1.5,0,.6,0,1.2,0,1.5,0,.6.2.9,0,1.5,0,.4,0,1,0,1.5s0,.9,0,1.4c0,.6,0,1.4,0,2,0,.8,0,1.2-.5,1.8-.4.5-.8,1-1.1,1.2-.4.2-1.1.4-1.5.6-.4,0-1.3.5-1.6.2-.1-.1-.3-.8-.7-.9-.4,0-1-.4-1.3-.4-.3,0-.6-.3-1.1-.4-.4,0-.4-.5-.3-.9.1-.4.2-.5.6-.7.3-.2.5-.2,1-.2.6.1,1.6.4,2.1.2.3,0,.8,0,1.1-.3.3-.4.3-.7.3-1.1,0-.6,0-1.1,0-1.5s0-.9,0-1.5c0-.4,0-1.1,0-1.5-.1-.5-.2-.9,0-1.5.2-.6,0-.8,0-1.6v-1.6c0-.7,0-1.1-.5-1.8-.2-.5-.7-1-1-.9-.3,0-1.3,0-1.8,0-.4,0-1.2,0-1.6,0-.4,0-1.2,0-1.7,0-.8,0-1.3.1-1.7,0-.6,0-1.3-.2-1.7,0-.4.1-1.3,0-1.7,0-.7,0-1.2,0-1.7,0s-1,0-1.7,0c-.6,0-1.1-.2-1.7,0-.8.2-1.1,0-1.7,0h-1.7c-.7,0-1.3,0-1.7,0-.6-.1-1.2,0-1.7,0-.4,0-1.2.1-1.8,0-.4,0-.7.2-1,.6-.4.4-.5.6-.6,1.1v2.2c-.1.8-.1,1.3-.2,1.9,0,.8-.1,1.4,0,1.9.2.6,0,1.1,0,1.9,0,.6-.1,1.2,0,1.8.1.5,0,1.4,0,1.9-.1.8,0,1.2,0,1.9,0,.5-.4.7-.8,1.1-.4.4-1,.3-1.3.3s-.8-.3-.8-.7c-.2-1.5,0-1.8,0-2.3s0-1,0-1.2c0-.6,0-.7,0-1.3,0-.2,0-.9,0-1.2,0-.3,0-1,0-1.2,0-.4,0-.6,0-1.3,0-.2.2-.9,0-1.2-.2-.5,0-.9,0-1.3v-2.6c0-.4.1-.8,0-1.4,0-.6,0-.8,0-1.4s-.5-1,0-1.4c.4-.3.9-.1,1.6-.1s1,.4,1.6.6c.7.1,1.1-.1,1.6,0,.4,0,1,0,1.7,0,.4,0,1,.2,1.6,0,.4,0,1,0,1.7,0s1,.2,1.7,0c.6,0,1,0,1.6,0,.5-.1,1.2,0,1.7,0,.6-.1,1.2.1,1.7,0,.6-.2,1-.1,1.7,0,.5,0,1,.2,1.7,0,.5,0,.9.2,1.6,0,.7,0,1,.2,1.7,0,.4,0,1,0,1.7,0h1.6ZM55,86.2c0-.9,0-1.6,0-2.3,0-.6-.4-1.6,0-2.2.3-.5,1.3,0,1.8.3.4.2.8.4,1.3.6.5.2,1,0,1.6,0h1.6c.6,0,1,.1,1.6,0,.4,0,1.2,0,1.6,0,.7,0,1.2,0,1.6,0,.6,0,.9,0,1.6,0,.7,0,1.4.1,2.1,0,.5,0,1-.3,1.3-.6.3-.3.4-.6.8-.8.4-.1.6,0,.8.2.4.3.8.2,1,.6.2.4.5.5.8.8.2.2.6.5.4.6-.2.2-.3.2-.4.5-.2.4-.6.5-.7,1,0,.2,0,.7,0,1.1,0,.6,0,1.4,0,2.3,0,.9,0,1,0,1.3.1.7-.2,1.1-.7,1.1-.3,0-.9.5-1.3.3-.2-.1-.6-.6-.6-1s-1.1-.5-1.7-.4c-.7,0-1.1.1-1.8,0-.4,0-1.4,0-1.7,0-.7-.2-1.2,0-1.7,0-.6,0-1.2.2-1.7,0-.7-.2-1.2-.2-1.7,0s-1.3,0-1.8,0c-.4,0-.9.4-1.2.5-.4.2-.6.4-1,.8-.3.3-1,.2-1.3.2-1-.2-.8-.7-.8-.9,0-.8,0-1.4,0-1.7,0-.3,0-.9,0-1.2,0-.4,0-.8,0-1.2ZM72.7,99.5c-.6.7-.5,1.3-.4,1.7.2.6,0,1.8,0,2.3,0,1.2.2,1.6,0,1.8-.2.6-.4.9-.8,1.1-.4.2-1,.5-1.2.4-.4-.2-.3-.9-.6-1.2-.2-.2-.3-.2-1-.4-.6-.2-1.1-.3-1.7-.2-.5.2-1.1.1-1.4,0-.7-.2-1,0-1.4,0s-1,0-1.4,0c-.4,0-1.2,0-1.4,0-.7,0-1,0-1.7.3-.5.1-1,.3-.9.8.2.7-.2,1-.6,1.2-.4.2-1,.4-1.3.3-1-.2-.7-.8-.8-1-.2-.8,0-1.1,0-1.4-.1-.8.2-1.3,0-2.2v-2.2c-.1-.6,0-1.4,0-2.2s-.5-1.8,0-2.2c.4-.4,1,.2,1.6.4.4.2.8.6,1.5.6.6,0,.7,0,1.3,0,.6,0,.8,0,1.3,0s.9,0,1.3,0c.3,0,.9,0,1.3,0,.6,0,1.2-.2,1.8,0,.4.2,1.2-.2,1.8,0,.5.1,1.7-.3,1.8-.5.1-.2.4-.4.8-.7.3-.2.5.2.8.2.4,0,.6.2.9.6.2.4.7.5.8.8.2.6.6.4.3.7l-.6.8ZM58.2,87.8c.2,0,.5.2,1,.4.3.1,1.3,0,1.8,0s1.1-.2,1.7,0c.5.2,1.2,0,1.7,0s1.2-.2,1.7,0c.4.1,1.2,0,1.7,0,.6,0,1.2,0,1.8,0,.2,0,.6-.2,1-.7.4-.5.6-.9.5-1.3,0-.2-.1-.8,0-1.2.2-.4-.2-.5-.5-.7-.4-.3-.6-.2-1-.3-.4,0-1.3,0-1.8,0-.4,0-1-.2-1.6,0-.7.2-1.2,0-1.7,0-.4,0-1.1,0-1.6,0-.4,0-1.1.1-1.7,0-.5,0-1.4.1-1.9,0-.4,0-.8.4-.9.6-.3.5-.5,1-.6,1.2,0,.3,0,1.1,0,1.3,0,.3.1.6.5.7ZM64.4,99.2c-.6,0-1.1,0-1.6,0-.7,0-1.2,0-1.6,0s-1,.2-1.4.6c-.4.5-.8.9-.8,1.2-.1.5,0,.8,0,1.3s.3.5.8.7c.4.2.9.2,1.6.4.6.1,1.1,0,1.4,0,.4,0,1,0,1.4,0s.7.1,1.4,0c.4,0,1.1,0,1.4,0,.5,0,1.2-.4,1.6-.7.5-.4.9-1,.8-1.3,0-.4.1-1,0-1.2-.1-.4-.6-.6-.8-.7-.6-.2-1.2-.4-1.6-.3-.4,0-.8,0-1.4,0h-1.4Z"/>
          <path class="cls-1" d="M96.2,80.4c.3.4.4.6.6.8.5.3.4.9.6,1.4.2.4.2,1.1.2,1.5,0,.6-.4.9-.4,1.1-.2.6-.4,1.1-.7,1.6-.3.6-.2,1.1-.4,1.4-.2.3-.3.6-.3,1,0,.4,0,.5-.3,1-.2.5-.4.6-.2,1,0,.4,0,.8-.2,1-.2.3-.1.7-.2,1,0,.3-.2.8-.1,1.1,0,.3,0,.8-.1,1.2,0,.5,0,1.2.4,1.3.2,0,.5,0,.6-.4,0-.2.4-.6.6-.9.4-.6.5-1.2.8-1.6.2-.2.5-1,.7-1.4.2-.3.3-.6.6-1.2.3-.4.3-.9.6-1.1.3-.2.6-1,.8-1.4.2-.6.4-.8.8-1.2.4-.4.4-.6.9-1.1.2-.2.7-.7,1-1,.2-.2.6-.4,1.1-.9.2-.2.6-.5,1.2-.8.6-.2.8-.4,1.3-.7.6-.3,1-.2,1.5-.6.3-.3.8-.3,1.1-.4.5,0,.8-.2,1.1-.2.4,0,.6,0,1.2-.2.5-.1.6,0,1.1-.1.2,0,.7,0,1.2-.1.4,0,.7,0,1.2,0,.6,0,1.6,0,2.3,0,.6-.2,1.5,0,2.1.2.3.2.6.2,1,.5.3.3.4.8.4,1.1,0,.6-.3.8-.6,1-.5.2-.7.2-1.2.2-.4,0-.8.1-1.4,0-.4,0-1,0-1.4,0-.9,0-1.5.1-2,.1-.5,0-.7.2-.9.2-.4,0-.7.3-.9.4-.5.4-1,.7-1.4.9-.6.4-1,.9-1.3,1.1-.4.3-.8.7-1.2,1.2-.3.3-.4.4-.6.6,0,.2-.4.5-.5.7-.3.5-.7.8-.9,1.4-.2.7-.6,1-.7,1.6,0,.5-.4,1-.4,1.6-.1.7-.2,1.2-.2,1.6,0,.7,0,1.3.3,1.9.2.6.4,1,.8,1.5.4.5.7.7,1.2,1.1.4.3.9.5,1.5.8.4.2,1.2.4,1.7.5.6.1,1.1.3,1.8.3.4,0,1.2.2,1.8.2.7-.1,1.2,0,1.7,0,.6,0,.9.1,1.5,0,.4,0,1.1-.3,1.5-.3s.9-.2,1.3-.2c.4,0,1,.1,1.6.4.5.2,1,.6,1,1.2s-.2.8-.4,1c-.4.4-.6.4-1,.5-.2,0-.7,0-1.2.2-.5.2-.8,0-1.3.1-.5,0-1,.1-1.3,0-.4,0-1,0-1.2,0-.8,0-1.6,0-2.2,0-.4,0-.7-.2-1.1-.1-.6.2-.7,0-1.1-.2-.3,0-.9-.1-1.1-.2-.5-.2-.8,0-1.1-.3-.4-.2-.8-.2-1-.3-.5-.2-.7-.4-1-.4-.4,0-.5-.3-.9-.5-.4-.2-.5-.6-.8-.6-.5-.1-.5-.4-.8-.7-.2-.3-.4-.6-.6-.8-.4-.2-.4-.4-.5-.9,0-.3-.4-.8-.4-1,0-.5-.2-.6-.2-1.2,0-.5-.1-.7,0-1.3.1-.6.1-1.2.2-1.9,0-.7.3-1.2.4-1.8,0-.4.1-.5.4-.9.2-.4.2-.6.4-.8.2-.2.4-.4.4-.8,0-.3.3-.4.5-.8.2-.3.2-.6.5-.8.3-.1.3-.4.6-.8.2-.3.5-.8.7-.9.5-.4.8-.5.9-1.1.2-.4.4-.6.3-1-.2-.2-.6-.3-.9-.3-.4.2-1,.4-1.2.4-.4,0-.6.5-1,.4-.5,0-.6.4-.8.5-.4.1-.4.5-.7.6-.3,0-.3.4-.6.6s-.6.4-.6.7c-.1.4-.6.4-.6.8,0,.2,0,.4-.5.8-.2.2-.3.5-.5.8-.2.3-.4.5-.4.8s-.3.7-.4.9c-.2.4-.3.6-.4.8-.2.5-.3.6-.4,1-.2.4-.2.6-.4,1s-.3.6-.4,1c0,.2-.2.7-.4,1-.2.3-.3.8-.4,1-.1.3-.1.6-.3,1.1-.2.5-.2.6-.3,1.1-.1.6-.3.9-.2,1.2,0,.4,0,.8,0,1.5,0,.4.1.6.1,1,0,.7.2,1,.2,1.3,0,.3.2.6,0,1,0,.8-.6,1.2-1.1,1.2s-.6-.3-.8-.4c-.4-.2-.4-.6-.6-.8-.1-.2-.3-.4-.5-1-.1-.4-.2-.4-.3-.8,0-.7-.2-1.1-.5-1.8-.2-.5-.2-1.2-.2-1.8,0-.6-.2-1.4-.2-1.9,0-.7,0-1.3,0-1.9,0-.4,0-.7,0-1.2.1-.4,0-.8.1-1.2,0-.6.2-.8.2-1.2-.1-.6,0-.8.2-1.2.2-.4.3-1.2.3-1.8,0-.6.2-1.1.3-1.8,0-.4.3-1.2.4-1.7.1-.7.1-1,.4-1.8.3-.7.2-1.3.4-1.7s.1-1,.1-1.4c0-.6-.5-1.2-.7-1.7-.2-.7-.6-1.1,0-1.4.5-.2,1.1,0,1.4.6l.6.8Z"/>
        </g>
      </g>
    </g>
  </g>
</svg>