<?xml version="1.0" encoding="UTF-8"?>
<svg id="_レイヤー_1" data-name=" レイヤー 1" xmlns="http://www.w3.org/2000/svg" version="1.1" viewBox="0 0 478.2 185.1">
  <defs>
    <style>
      .cls-1 {
        font-family: ShipporiMincho-SemiBold, 'Shippori Mincho';
        font-size: 47px;
        font-weight: 600;
        letter-spacing: .1em;
      }

      .cls-1, .cls-2 {
        isolation: isolate;
      }

      .cls-1, .cls-3 {
        fill: #52b2ff;
      }

      .cls-3 {
        fill-rule: evenodd;
        stroke-width: 0px;
      }
    </style>
  </defs>
  <g id="_グループ_1459" data-name=" グループ 1459">
    <g id="_レイヤー_1-2" data-name=" レイヤー 1-2">
      <g id="_グループ_1458" data-name=" グループ 1458">
        <path id="_パス_518" data-name=" パス 518" class="cls-3" d="M170.9,65.3c.7.3,1.5.3,2.3.2l.2-.4h.6v-.2l.9-.2.2-.4h.6v-.2l.8-.2v-.2h.8l.2-.4h.4v-.2h1.1v-.2h.4v-.2h.8v-.2h.6v-.2h.4v-.2l1.3-.2.2-.4,1.5-.2.2-.4h.6v-.2h1.1v-.2h.4v-.2h.8v-.2h.9v-.2h.4v-.2h.6v-.2h.6v-.2h.6v-.2h1.9v-.2l1.7.2c.3.5.7.6.9.9s0,.4.4.8c-.1.4,0,.2-.2.4-.2.8-.7,1-1.3,1.3v.2h-.4v.2l-1.9-.2v.2h-1.7l-.2.4-1.5.2v.2l-.8.2v.2h-1.3l-.2.4h-.9v.2l-1.1.4v.2h-.6l-.2.4-1.3.2-.2.4h-.4v.2l-1.1-.2v.2h-.8l-.2.4h-.9v.2l-.8.2v.2h-.8v.2h-.4l-.2.4-1.1.2v.2h-.4v.2h-.8l-.2.4h-.4v.2h-1.9l-.4-.6h-.2v-.4c-.2-.2-.7-.2-1.1-.2l-.4.6h-.2l-.2,1.1h-.2v.4h-.2v.8h-.2l-.2.8h-.2v.6l-.4.2-.2.8h-.2v.4h-.2v.4h-.2v.4h-.2v.4h-.2v.4h-.2v.4h-.2v.4l-.4.4v.4l-.4.2v.4h-.2l-.2,1.7-.4.2v4.8c-.5.3-.9.7-1.1,1.1-.4,0-.2,0-.4-.2-.6,0-1.1-.5-1.5-.9h-.2v-.4l-.4-.2-.2-1h-.2c.2-.9.4-1.8.8-2.7v-1.7l.4-.2.2-.9h.2v-.6h.2v-.4h.2v-.8h.2l.2-.8h.2v-.6l.4-.2.2-.9.4-.2v-.4h.2v-.8l.4-.2.2-.9h.2v-.4h.2l.2-1.1h.2v-.4h.2v-.6l.4-.2v-.4h.2v-.4h.2v-.6l.4-.2v-.4h.2v-.6l.4-.2v-.4l.4-.4v-.4h.2v-.4h.2v-.4h.2v-.4l.4-.4v-.4l.4-.2v-.6h.2v-.4h.2v-.4h.2l.2-.8.4-.2v-.6l.4-.2.2-.8.4-.2v-.4l.4-.2.2-.8h.2l.2-.6.4-.2.2-.8.4-.2v-.4h.2l.9-1.1h1.9l.6.8.6.2v.4h.2v1.1l-.6.4v.4l-1.1.9v.4l-.4.2-.2.8h-.2l-.2.6-.4.2v.4l-.8.6-.4,1.1h-.2l-.4,1.1-.4.2v.4l-.4.2c-.3.3-.4.7-.8.9l.2.9h0l-.4.5Z"/>
        <path id="_パス_519" data-name=" パス 519" class="cls-3" d="M269.2,58.4l.9.2v.2l2.1-.2.4-.6h.6l.2-.4,1.1-.2.2-.4,1.3-.2c.4.4.8.7,1.3.9l.2,1.7h-.2v.4l-.6.2-.6.9h-.4v.2l-.6.2-.2.4-1.5.2-.2.4-1.5.2v.2l-.9.2v.2h-.8l-.2.4c-.5.2-1.1,0-1.5.2l-.6.9h-.2v.9h-.2v1.1l-.4.2-.2,1.9h-.2v.6h-.2v1.7h-.2v.6h-.2v.9h-.2v1.1h-.2v.6h-.2v.4h-.2l-.2,1.3-.4.2v2.1c.3.2.6.4.9.6h2.1v-.2l.9-.2v-.2l1.5-.2.2-.4h1.5v-.2h.4v-.2h.6v-.2h1.5v-.2l.9-.2v-.2l1.3-.2.2-.4h3.2c.5.8,1.1.9,1.3,2.1l-.9.6v.2h-2.1c-.9,1-1.4.2-2.6.6v.2h-.4l-.2.4h-.6v.2l-.9.2v.2h-.6v.2l-.9.2v.2h-1.9v.2h-.6v.2h-.4v.2h-1.1l-.2.4h-.4v.2l-2.3.2v.2l-1.3.2v.2l-.9.2v.2h-.6v.2l-.9.2v.2h-1.1v.2h-.4l-.2.4h-.9l-.2.4-1.5.2v.2l-.9.2v.2h-.9l-.2.4h-.9v.2h-.4l-.2.4-1.3.2-.2.4c-.9.3-1.9.3-2.8,0-.5-1-1.3-1.7-1.5-3l1.5-1.1h.9v-.2h1.5v-.2h.4v-.2h.6v-.2h.6v-.2h.4v-.2l1.1-.2.2-.4,1.5-.2v-.2h.4v-.2l4.5-1.1.2-1.3c-.2-.6-1-1.4-.6-2.6h.2v-.4h.2v-.6h.2l.4-1.3h.2v-2.3h.2v-.6c.7-1.3.9-2.8.6-4.3-.6-.2-1.3-.3-1.9-.2-.3.2-.6.4-.9.6l-.2.4h-.4l-.6.9h-.4l-.2.4-2.8,2.6h-.9c-.4-.6-.2,0-.6-.4l-.2-.4h-.2v-.4l-.4-.2v-2.8l.6-.4v-.2h.4l.2-.4h.4l.2-.4h.4l.2-.4h.4l.2-.4,1.1-.2.9-1.1h.4v-.2l.9-.2v-.2h.6v-.2l.9-.2v-.2h1.1l.2-.4h.6v-.2h.9l1.1-1.3h.2l.2-1.5.4-.2c.3-.7,0-2.6,0-3.8.9-.6.6-.9,2.3-.9l2.1,2.3c-.2.9-.6.9-.6,1.9l-.2.2Z"/>
        <path id="_パス_520" data-name=" パス 520" class="cls-3" d="M323.9,56.7l1.3.2c.7,1.1,1.9,1.4,1.9,3.2-1,.5-1.6,1.6-1.5,2.8.6.2,1.1.5,1.5.9l2.6-.9v-.2h.4v-.2c.9-.3,2,0,3,0,.4.7.8.7.9,1.9l-.6.2-.2.4h-.4l-.2.4-1.1.2-.2.4h-1.3l-.2.4h-.4v.2l-1.3.2-.2.4h-1.5l-.2.4h-.4v.2c-1.3.5-1.3-.5-2.1.9h-.2l-.2,1.3h-.2v.4h-.2v1.1h-.2l-.2.9h-.2v.6h-.2v.6h-.2v.6h-.2v1.5l-.4.2-.2,1.7h-.2v.4h-.2l-.2,1.7-.4.2v.6h-.2v.6h-.2l-.4,2.8h-.2l-.2.9h-.2v1.1l-.4.2-.2,1.1-.4.2v.4h-.2l.2,1.5h-.2c-.4.7-.6,1.4-.6,2.1,1.2.7.6,1.1,2.8,1.1.5-.6,1.4-.5,2.1-.9l.2-.4h.9v-.2h.4v-.2h.9v-.2h.6v-.2l.9-.2v-.2h2.6v-.2h.6v-.2l2.3.2v.2h1.9l.2.4,1.3.4,1.3,1.5,1.3,1.1v.9l.6.4v3.8c-.4.4-.6.9-.6,1.5v.9l-.4.2v.4h-.2l-.2,1.9h-.2l-.2,1.3h-.2l-.4,1.3h-.2v.4h-.2l-.2.9-.4.2v.4l-.4.2v.4h-.2l-.2.6-.4.2v.4l-.6.4v.4c-.4.6-.6.6-1.3.9v.2h-.2v-.2h-.4v-.2l-.9-.2c-.2,0-1-1.6-.9-2.1h.2v-.4h.2v-.4h.2v-.4l.4-.2v-.6l.4-.2v-.4l.4-.2v-.6l.4-.2v-.6h.2v-.4h.2v-.4h.2v-.4h.2v-.4h.2v-.4h.2v-.6l.4-.2v-.4h.2v-.6h.2l.2-.9h.2v-.9h.2l.2-.9h.2c.2-.7,0-1.5-.2-2.1l-1.1-1.9h-.4c-1.6-.3-3.3-.4-4.9-.2v.2h-.4l-.2.4h-1.3v.2h-.6l-.2.4h-1.9v.2l-.9.2v.2h-1.5v.2l-.9.2v.2h-3.2v-.2l-.9-.2-.2-.4-1.1-.9-.2-.9h-.2v-.6h-.2l.2-1.7v-2.6h.2v-1.1h.2v-.9h.2v-1.3l.4-.2v-.4h.2l.2-2.1.4-.2v-.6h.2l.2-.9h.2l.2-1.9h.2v-.4h.2v-1.5h.2v-.4h.2v-.9h.2v-1.7h.2v-.4l.4-.2.6-1.9h-.2v-.6h-.2v-.2c-.2,0-.3-.4-.4-.4h-.4v-.2l-1.5.2v-.2h-.4l-.2-.4-1.1-.9v-.4h-.2c-.2-.3-.2-.4-.4-.6,0-2.4,1.2-2.4,3.6-2.3.3-.4.4-.2.9-.4v-.2h1.1l1.5-1.1v-.4l.4-.2.2-.9.4-.2.2-1.1h.2l.2-.9h.2v-.6h.2l.2-.9h.2v-.6l.4-.2v-.4h.2v-.4c.2,0,.3-.3.4-.4h0l-.2-.3Z"/>
        <path id="_パス_521" data-name=" パス 521" class="cls-3" d="M233.2,86.3l.9-2.6v-6c0-1.2.2-2.5.6-3.6l-.2-3-1.3-1.1-1.3.4-.2.4-2.3.9v.2l-1.3.4-.2.4h-.6v.2h-.4v.2c-.7.3-1.4.5-2.1.4-.2-.4-.1-.3-.6-.4-.1-.4-.4-.8-.6-1.1h-.2l-.2-2.3c.2,0,.3-.3.4-.4l1.5-.2v-.2l.9-.2v-.2h1.1v-.2h.4v-.2h.9v-.2l.9-.2v-.2l1.3-.2.2-.4,1.5-.2.2-.4h1.3v-.2c.4,0,.6,0,.9-.2.6-1.3.9-2.6.8-4v-1.1l-.4-.2-.2-1.3c.5-.4.4-.7,1.3-.9v-.2h.2v.2h.4v.2h.9c1.1.7,1.9,1.9,2.1,3.2-.4.4-.6.9-.6,1.5h.2v.4l.6.4v.2h1.9c.3-.5,1.3-1,1.7-.6,1.2.3,2.1,1.3,2.1,2.6l-1.3,1.1v.2l-.9.2v.2h-1.1v.2l-.9.2v.2h-1.7l-.4.6-.9.6v3.2c-.5.5-.2,1.5-.4,2.3h-.2v3h-.2l-.2,4.3c.6.4.2.6,1.1.9v.2l1.1-.2v-.2h.6l.2-.4h.4v-.2h2.3c.1.4.4.8.6,1.1-.1.4,0,.2-.2.4v.4s-1.2.8-1.3.9h-.4l-.2.4h-.4v.2h-.4v.2h-.4v.2h-.4l-.4.4h-.4l-1.1,1.3-.4.2v.4h-.2c-.2.3-.2.4-.4.6l.2,3.8h-.2v.9h-.2v3h-.2v.6h-.2v2.1h.2l-.2,1.3h-.2v1.3h-.2v1.7h-.2v.4l-.4.2v.6h-.2v.2h.2c0,.8,0,1.6-.2,2.3-.7.2-1.4.3-2.1.2-.2-.4-.5-.8-.9-1.1l-.2-1.5h.2v-.9h.2v-1.7h.2v-1.9h.2v-.9h.2v-3.2h.2v-.6h.2c.2-1.4,0-2.9-.2-4.3-.2-.8-.5-1-1.5-1.1l-1.3,1.7-.6.4v.4l-1.1,1.3h-1.3l-.9-1.1h-.2c-.4-.9-.6-2-.4-3l1.3-1.1.2-.4h.4l.4-.4h.4v-.2h.4l.2-.4h.4l.2-.4,3.4-1.7h0l-.2.4Z"/>
        <path id="_パス_522" data-name=" パス 522" class="cls-3" d="M187.1,75.6h.9s0,.3.4.2v-.2h1.3c.6,1,1.8,1,1.9,2.7l-.8.6v.2h-.4v.2l-.9.2v.2h-.2v-.2h-2.1v.2h-.4l-.2.4h-.6v.2h-.9v.2h-.4v.2h-.8v.2h-.8l-.2.4h-.6v.2h-.4l-.2.4h-.8v.2h-.4l-.2.4h-.6v.2h-.4v.2h-.4v.2l-1.1.4v.2h-.6v.2h-.4l-.2.4h-.9v.2h-.2v-.2h-1.5c-.5-.9-1.3-1.3-.8-2.7v-.6l.4-.2.2-.4h.9v-.2h.4v-.2h.6v-.2h1.1v-.2h.4v-.2l1.3-.2.2-.4h.6v-.2h.4v-.2l.8-.2v-.2h.6v-.2l.8-.2v-.2h.6l.2-.4h.4v-.2h1.1v-.2h.4v-.2h.8v-.2h.8l.2-.4h.6v-.2h0Z"/>
        <path id="_パス_523" data-name=" パス 523" class="cls-3" d="M394,74.3h1.5l.9,1.1h.2v.4l.4.2v4h-.2l-.2,1.5h-.2v.6l-.6.4v1.9l-.4.2-.4,1.3-.4.2v.9h-.2v.4h-.2l-.2,1.1-1.1.9-.2.9h-.2v.4h-.2l.2,1.1h.2v1.7l-.4.2-.2.6h-1.7l-1.3-2.1.4-1.5h.2v-1.5h.2v-.4l.4-.2v-1.3h.2v-.9h.2v-.4h.2v-1.3h.2l.2-.9h.2l.2-1.3h.2v-.4h.2v-1.3h.2l.2-.9h.2v-1.7c0-1.1,0-2.1.2-3.2.4,0,.8-.4,1.1-.9h0v.2Z"/>
        <path id="_パス_524" data-name=" パス 524" class="cls-3" d="M422.3,76.3h.4v1.5l-.4.2v.4l-.4.4v.4h-.2v.4h-.2l-.4,1.3h-.2v.9l-.4.2v.6h-.2v.9l-.4.2v1.1h-.2v.4l-.4.2-.2,2.1-.4.2-.2,1.9c.8.5.9,1,2.1,1.1.8-1,1-.2,1.9-.6l.4-.6c.7-.3,2.8,0,3.2.2.1.5.2,1,.2,1.5-.2.2-.5.4-.6.6h-1.5v.2h-.4l-.2.4h-1.1v.2h-.4l-.2.4h-.4l-.4.6c-.7.5-1.7.7-2.6.6v-.2l-1.1-.2v-.2h-.4l-.4-.6-1.1-.9v-.4l-.4-.4v-.4h-.2v-.4h-.2v-.4h-.2v-1.7h.2c-.2-.6-.2-1.3,0-1.9h.2v-.6h.2v-.9l.4-.2.2-1.1.4-.2.2-1.9.4-.2v-1.3h.2l.2-.9h.2c.2-.6,0-1,.2-1.5l.4-.2v-.4h.2v-.6h.2v-.4h.2v-.9l.4-.2q.6-.7,1.9-.6c.4.7,1.2,1,1.5,1.9h0Z"/>
        <path id="_パス_525" data-name=" パス 525" class="cls-3" d="M441.5,74.3c.6,0,1.3,0,1.9.2.5.9,1.4,1.4,1.5,2.8-.6.5-.9,1.4-.6,2.1h.2l-.2.6v.9l-.6.4v2.1h-.2l-.2.9h-.2v2.6h-.2l-.2.9h-.2v3.4c-1,.6-.4,1.2-2.1,1.3l-1.5-1.1v-5.8c1.1-1,.2-2.3.6-3.8h.2v-.9h.2v-.9h.2v-4.9c.6-.2,1.1-.5,1.5-.9h0Z"/>
        <path id="_パス_526" data-name=" パス 526" class="cls-3" d="M368.2,75.2c.5,0,1-.2,1.5-.2.4.5.2,0,.6.4v.2h.4l.4.6h.2v.4l.4.2v.4l.6.4v.9h-.2v.4l-.4.2v.9h-.2l-.4,1.3h-.2v.4l-.4.2v.6h-.2v.4l-.4.2-.2.9-.4.2v.9h-.2v.6h-.2v.6h-.2v2.6l-.6.4v.4h-.2v3.4c-.3.7-.4,1.4-.4,2.1,1.1.7.7,1.6,2.6,1.7.4-.6,1.1-.7,1.7-1.1l.2-.4h.4l.2-.4h.4l.4-.6h1.1c.4.4.8.7,1.3.9l.2,1.3h-.2c-.4,1.2-.4.4-1.3.9l-.2.4-1.1.2v.2h-.4l-.2.4-.6.2-.4.6h-.4l-.6.9h-.4v.2h-1.1v.2l-1.7-.2-1.7-1.9-.4-.2-.2-1.1h-.2v-.4h-.2v-1.9h-.2v-.4l-.4-.2c-.3-.8.3-3.8.4-4.3h.2v-3.4h.2l.2-.9h.2l.2-1.9h.2v-.4h.2v-.9l.4-.2.2-1.5h.2v-.4h.2v-.6h.2v-1.7h.2v-.4h.2l.2-1.5h.2l.4-1.3h-.1Z"/>
        <path id="_パス_527" data-name=" パス 527" class="cls-3" d="M289.2,89.9l-4,.2-.2.4h-3.2l-.2.4c-.4.2-1.2.3-1.5.6-.8,1,.2,1.9-.2,3.4-.7,2.6-.6,5.7-.6,8.9v4.3h-.2v.9h-.2v.4h-.2v1.3l-.4.2v.6h-.2v1.1h-.2v.6h-.2v.4h-.2v.6l-3,2.8h-2.3c-.4-.7-.8-.6-.9-1.7.8-.6,1.6-1.3,2.1-2.1v-.4l.4-.2.2-.9.4-.2.2-2.3c-.3-.2-.6-.4-.9-.6-.4,0-.4.2-.4.2h-2.1v.2h-.6v.2h-.4v.2h-5.1l-.6-.9h-.2l-.6-1.9h-.2c.1-.3.2-.6.2-.9.2-.2.4-.4.6-.6h4c.7.3,1.4.4,2.1.2v-.2l3-.2v.2h.9v.2c.1,0,.8.5,1.1.4v-.2c.6-.6.4-2.2.4-3.4v-9.4c-.5-.2-1.1-.9-1.9-.6-.3,0,0,.2-.2.2h-.9l-.4.6-1.3.2v.2h-.4v.2h-1.5v.2h-.6v.2h-.4v.2h-.9v.2l-.9.2v.2h-1.1l-.2.4-1.3.2v.2l-.9.2v.2h-1.1v.2l-.9.2v.2h-1.3v.2h-.4l-.2.4h-1.5l-.2.4-1.5.2v.2h-.4l-.2.4h-1.5v.2l-3-.2c-.5-.9-1.5-1.5-1.7-2.8.3-.2.3-.4.6-.6,1-.9,2.5,0,3.8-.4v-.2h.4v-.2h1.3v-.2h.6l.2-.4h1.1v-.2l.9-.2v-.2l1.5-.2v-.2h.4v-.2h1.9v-.2l.9-.2v-.2h1.5v-.2h.6v-.2h.4v-.2h1.7v-.2h.4v-.2h.6v-.2l2.1-.2.2-.4h1.5v-.2h.4v-.2l1.7-.2v-.2h.6l1.5-1.3,1.1-4c.7-.2,1.4-.2,2.1,0,.1.3.4.3.4.4v.4h.2v1.1h.2v.4h.2c.5.9.4,1.1,1.9,1.1.4-.4,1.2-.2,1.7-.4l.2-.4h.4v-.2h1.3c.3,0,0,0,.2-.2,1-.3,1.7.3,2.3.4.5,1,.9.9.9,2.6h.2c-.1.3-.2.6-.2.9h.3Z"/>
        <path id="_パス_528" data-name=" パス 528" class="cls-3" d="M196.6,89.8l.2.6h.2v.4h.2l.4,1.1h.2v9.7h-.2l.2,2.9s-.3,0-.2.4h.2v2.7h.2v.6h.2v.4h.2v.6h.2v.4h.2c.5.9,1,2.2,2.1,2.5v.4l.9.8v.2l1.1.4.2.4h.4l.4.6,1.1-.2v.2c.5,0,.9.3,1.3.6l.2.4.8.6v.4h.2c.2.2.1.4.4.6-.4,1.6-1.7,1.4-3.6,1.3-.4-.5-1-.4-1.5-.8v-.2l-.6-.2-.2-.4-1.1-.4-.2-.4-.8-.2-2.1-1.9v-.4l-.8-.6-.2-.8-.6-.4-.2-.9-.4-.2v-.6l-.4-.2-.2-1.1h-.2v-.4l-.4-.2v-2.3h-.2v-.8h-.2v-.6h-.2v-8.2c.3-.9.5-1.9.6-2.9-.5-.3-.1,0-.4-.6h-.2v-.4l-1.1-.9c-1,0-2.1,0-3.1.2l-.2.4h-1.5v.2l-.8.2v.2l-1.3.2v.2l-.8.2v.2h-.8l-.2.4h-.9v.2l-.8.2v.2h-.8v.2l-1.1.4v.2h-.4v.2h-.4v.2h-.6v.2l-.8.2v.2l-1.1.2-.2.4h-.6v.2h-.4v.2h-.4l-.4.4h-.4l-.4.6h-.4l-.6.8-.6.2-.4.6h-.4v.2h-.4v.2c-.3.2-.3,0-.8.2-.4-.6-.2,0-.6-.4-.7-.7-1.2-1.7-1.3-2.7.2-.2,0,0,.2-.4.2,0,.3-.4.4-.4h.6v-.2l.8-.2v-.2h.6l.6-.8h.4l.2-.4h.8v-.2h.4l.2-.4h.4v-.2h.4v-.2h.4v-.2h.6l.2-.4h.4l.2-.4h.4v-.2h.4v-.2h.6v-.2l.8-.2v-.2h.6v-.2l.8-.2v-.2h.8l.2-.4,1.1-.2v-.2h.4v-.2l1.5-.2.2-.4h1.1v-.2l.9-.2.2-.4h1.3v-.2h.4v-.2h.9v-.2h1.1v-.2h.4v-.2h1.5v.2h1.1v.2h1.1l.2.4h.4l.2.4.6.2v.2l.6.2h.2Z"/>
        <path id="_パス_529" data-name=" パス 529" class="cls-3" d="M168.3,130.6h.4c.3-.5.1,0,.6-.4v-.2h.4l.4-.6h.4l.2-.4.8-.6c1.3-1.5,2.5-3.1,3.8-4.6l.2-.8.6-.4.2-.8.4-.2c.5-.5.8-1.2.8-1.9-.4-.4-.7-.8-.9-1.3v-.4l-2.1-1.9v-.2h-1.5l-.2-.4-.8-.6c-.3-.4-.4-.8-.8-1.1,0-.5,0-1,.2-1.5,1-.2,2-.3,3.1-.2.5.6.7,0,1.3.4l.4.6.6.2v.2l1.1.4v.2l.4.2v.4l.4.2v.4c.5.4,1.1.6,1.7.6.1-.2.2-.3.4-.4v-.9h.2l.2-.8h.2v-.8h.2v-.4l.4-.2v-.6l.4-.2.4-1.1.4-.2.2-.8.4-.2v-.6h.2l.2-.6.4-.2.4-1.1.4-.2v-.4l.8-.6.2-.4h.4l.4-.4v-.4l1.3-1.1,1.9.2.8.9h.2v.4l.4.2v.9c-.7.4-1.1,1.2-1.7,1.7l-1.5.9-.2.8-.4.2v.4h-.2v.6l-.4.2-.2.6h-.2l-1.3,3.1-.6.4v.4h-.2v.6l-.4.2-.2.8-.4.2v.4l-.4.4v.4l-.4.2v.4l-.6.4v1.1l1.1.9v.2l.8.2v.2h1.5l.4.6h.4c.4.3.4.9.4,1.7-.2,0-.3.3-.4.4h-.4l-.4.6h-2.9c-.4-.4-.8-.8-1.3-.9v-.2h-.6l-.2-.4h-.4v-.2c-.7.2-1,.7-1.5,1.1v.2h-.4v.2l-.6.4v.4l-.4.2v.4l-.8.6v.4l-.4.2v.2l-.4.2-.4,1.1h-.2l-.6.8h-.4l-1.5,1.7h-.4l-.4.6-.6.2-.2.4c-.5.6-1.2.9-1.9.9-.3-.5-.8-.4-.9-1.1h-.2v-1.3c.2-.2,0,0,.2-.4h0l-.2-.2Z"/>
      </g>
    </g>
    <g id="_" data-name=" " class="cls-2">
      <g class="cls-2">
        <text class="cls-1" transform="translate(129.6 96.5)"><tspan x="0" y="0">“</tspan></text>
      </g>
    </g>
    <g id="_2" data-name=" 2" class="cls-2">
      <g class="cls-2">
        <text class="cls-1" transform="translate(455.6 98.1)"><tspan x="0" y="0">”</tspan></text>
      </g>
    </g>
  </g>
</svg>