<?xml version="1.0" encoding="UTF-8"?>
<svg id="_レイヤー_1" data-name=" レイヤー 1" xmlns="http://www.w3.org/2000/svg" version="1.1" viewBox="0 0 478.2 186.1">
  <defs>
    <style>
      .cls-1 {
        fill: #000;
        stroke-width: 0px;
      }

      .cls-2 {
        isolation: isolate;
      }
    </style>
  </defs>
  <g id="_グループ_1765" data-name="グループ 1765">
    <g id="_このTシャツが" data-name="このTシャツが" class="cls-2">
      <g class="cls-2">
        <path class="cls-1" d="M102,22c-.5,1.6-.8,3-.8,4.5,0,3,3,5,9.4,5s10.6-.6,13.6-1.5v3.4c-2.8.8-7.8,1.4-13.5,1.4-8,0-12.7-2.6-12.7-7.6s.4-3.9.8-5.6l3.3.3ZM100.4,6c2.9.4,6.5.5,10.5.5s7.8-.3,10.7-.6v3.3c-2.7.2-7,.5-10.7.5s-7.3-.2-10.5-.4v-3.3Z"/>
        <path class="cls-1" d="M151.1,32.1c1.2,0,2.4-.3,3.4-.5,5.1-1.1,10-4.9,10-11.7s-3.8-10.9-10.5-11.5c-.5,3.7-1.3,7.7-2.4,11.4-2.4,8.1-5.6,12.3-9.3,12.3s-7.1-4.1-7.1-10.6,7.7-16.1,17.4-16.1,15.2,6.6,15.2,14.6-5.5,13.9-14.9,15.1l-1.8-3ZM148.5,19.1c1-3.3,1.8-7,2.2-10.7-7.6,1-12.2,7.5-12.2,12.8s2.3,7.2,4,7.2,4-2.6,6-9.3Z"/>
        <path class="cls-1" d="M185,7.9h-8.9v-3.1h21.5v3.1h-8.9v26.2h-3.7V7.9Z"/>
        <path class="cls-1" d="M217.2,17.7l-1.8,2.8c-2-1.4-6.3-4.2-8.7-5.5l1.8-2.7c2.4,1.3,7,4.1,8.8,5.4ZM221.8,27.3c6.6-3.8,11.9-9,15.2-14.6l1.9,3.3c-3.5,5.4-9,10.6-15.4,14.3-4,2.3-9.6,4.2-13.3,5l-1.8-3.3c4.4-.8,9.4-2.3,13.4-4.6ZM223.1,9l-1.9,2.7c-1.9-1.4-6.2-4.3-8.6-5.7l1.8-2.7c2.4,1.3,7,4.4,8.7,5.6Z"/>
        <path class="cls-1" d="M274.9,15.1c-1.7,3.4-5.8,9-8.5,11.7l-2.8-1.4c2.5-2.2,5.5-5.8,6.9-8.2-.9.2-6.6,1.3-12.1,2.4,1.6,5.8,3.6,12.8,4.1,14.6.2.8.6,2,.9,2.7l-3.4.9c-.1-.9-.3-1.9-.6-2.9-.5-1.8-2.4-8.9-4-14.6-3.8.8-7,1.4-8.1,1.6l-.8-3c1.1,0,2.1-.2,3.3-.4.6,0,2.4-.4,4.9-.9-.6-2.1-1.1-3.8-1.3-4.6-.3-1-.6-1.8-.9-2.4l3.4-.8c.1.7.3,1.6.6,2.6l1.3,4.7c5.7-1.1,12.5-2.4,13.8-2.7.5-.1,1.1-.3,1.5-.5l2,1.4Z"/>
        <path class="cls-1" d="M291.2,17.4l-3.2,1.1c-.8-2.5-3.5-9.2-4.5-11l3.2-1.2c1,2.2,3.6,8.4,4.5,11ZM315.6,6.5c-.3.7-.6,1.6-.7,2.3-1.2,5-3.4,10.7-6.6,15-4.1,5.4-10,9.6-15.7,11.6l-2.8-2.8c5.7-1.7,11.7-5.5,15.7-10.6,3.3-4.2,5.6-10.7,6.4-16.4l3.7,1ZM301.8,14.5l-3.1,1.1c-.6-2.3-2.9-8.5-3.9-10.6l3.1-1c.9,1.9,3.3,8.3,4,10.5Z"/>
        <path class="cls-1" d="M338.3,3.1c-.2.8-.4,1.6-.5,2.4-.2,1.2-.6,3.5-1,5.6,1.8-.2,3.5-.3,4.4-.3,3.6,0,6.4,1.4,6.4,6.8s-.6,11-2.3,14.3c-1.3,2.6-3.2,3.3-5.8,3.3s-3.4-.3-4.7-.6l-.5-3.4c1.7.6,3.8.9,4.9.9s2.6-.3,3.4-2c1.3-2.6,1.9-7.8,1.9-12.1s-1.6-4.2-4.2-4.2-2.5.1-4.2.3c-1.4,5.7-4.2,14.6-8.3,21.2l-3.2-1.3c4-5.4,7-14.3,8.3-19.6-2.1.2-4,.4-5,.5-1,.1-2.6.3-3.6.5l-.3-3.5c1.2,0,2.2,0,3.5,0,1.3,0,3.6-.2,6-.4.6-2.8,1-5.9,1-8.6l3.8.4ZM351.9,7.6c2.5,3.2,5.9,10.4,7.2,14.1l-3.1,1.5c-1.2-4.1-4.3-11-7.1-14.2l2.9-1.4ZM353.5,8.3c-.8-1.6-2.2-4-3.2-5.6l2.1-.9c1,1.4,2.5,3.9,3.3,5.5l-2.2,1ZM358,6.6c-.9-1.7-2.2-4-3.3-5.5l2.1-.9c1,1.4,2.6,4,3.4,5.4l-2.2,1Z"/>
      </g>
    </g>
    <g id="_その秘密は_" data-name="その秘密は " class="cls-2">
      <g class="cls-2">
        <path class="cls-1" d="M130.7,154.1c1.7,0,9.9-.3,12.2-.6.9,0,1.7-.2,2.2-.4l2,2.3c-.6.3-1.6,1-2.1,1.5-3,2.4-8.7,7.2-11.8,9.7,6-.6,13.1-1.2,18.8-1.2v3c-3.9-.2-7.7-.2-10,.2-3.8.5-7.6,3.8-7.6,7.5s3.2,5.3,6.8,5.8c2.3.3,4.3.3,5.7.2l-.6,3.2c-9.7.4-15-2.6-15-8.7s2.6-6.2,4.6-7.4c-4.2.4-9.5,1-14.2,1.8l-.3-3c2.1-.2,4.8-.6,6.8-.8,4.3-3,10.6-8.4,13.1-10.7-1.8.1-8.6.5-10.4.6-1,0-2.2.2-3,.2l-.2-3.3c1,.1,2,.2,3.2.1Z"/>
        <path class="cls-1" d="M177.1,181.8c1.2,0,2.4-.3,3.4-.5,5.1-1.1,10-4.9,10-11.7s-3.8-10.9-10.5-11.5c-.5,3.7-1.3,7.7-2.4,11.4-2.4,8.1-5.6,12.3-9.3,12.3s-7.1-4.1-7.1-10.6,7.7-16.1,17.4-16.1,15.2,6.6,15.2,14.6-5.5,13.9-14.9,15.1l-1.8-3ZM174.5,168.8c1-3.3,1.8-7,2.2-10.7-7.6,1-12.2,7.5-12.2,12.8s2.3,7.2,4,7.2,4-2.6,6-9.3Z"/>
        <path class="cls-1" d="M215.1,173.5c-.6-1-1.9-3-3.1-4.7v17.9h-2.8v-18.1c-1.5,4.2-3.5,8.4-5.4,11-.3-.8-1.1-2-1.6-2.7,2.3-2.8,4.8-8.1,6.2-12.6h-5.7v-2.8h6.4v-6.2c-1.9.4-3.8.7-5.6,1-.2-.7-.6-1.6-.9-2.3,4.3-.7,9.4-1.8,12.1-3.1l2.1,2.2c-1.4.6-3.1,1.1-4.9,1.6v6.8h4.9v2.8h-4.9v1.6c1.2,1.1,4.2,4.5,4.9,5.4l-1.8,2.2ZM237.1,176.1c-.4-3-1.8-7.6-3.5-11.2-2.1,4.6-4.7,8.8-8,12.6v4.4c0,1.6.2,1.9,1.7,1.9h4.8c1.4,0,1.6-1.2,1.8-6.2.7.6,1.8,1,2.6,1.2-.3,5.8-1,7.6-4.2,7.6h-5.4c-3.3,0-4.2-1-4.2-4.6v-1.4c-2,1.8-4.1,3.6-6.5,5.1-.4-.6-1.4-1.6-2.1-2,3.3-2.1,6.2-4.5,8.6-7.1v-18.1h2.9v14.7c4.5-5.9,7.5-13,9.2-20.7l2.8.6c-.9,3.9-2.1,7.6-3.6,11.1l1.8-.5c2,3.7,3.6,8.6,4,11.8l-2.7.8ZM215.4,176.1c1.9-3,2.7-7.8,3.1-12l2.4.5c-.4,4.3-1.2,9.6-3.2,12.7l-2.3-1.1ZM229.5,158.4c-1.6-1.8-5-4.4-7.8-6l1.8-1.9c2.9,1.6,6.3,4,8,5.8l-2,2.1Z"/>
        <path class="cls-1" d="M262.3,172.5c-2,0-3.3-.2-4-.7-3.2,1.4-6.6,2.6-10,3.6-.3-.6-1.2-1.8-1.7-2.4,3.7-.9,7.3-2,10.6-3.5v-8.4h2.7v7.1c5-2.5,9.2-5.7,12.1-9.6l2.6,1.1c-3.2,4.3-7.7,7.7-12.8,10.4h8.4c1.8,0,2.1-.6,2.3-4,.6.4,1.7.8,2.5,1-.4,4.4-1.2,5.5-4.5,5.5h-8.1ZM254.7,162.6c-1,3-2.6,6-5.5,7.8l-2.3-1.6c2.7-1.6,4.4-4.3,5.3-7.1l2.5.9ZM251,161.5h-2.9v-7.8h15.2v-3.4h3v3.4h15.5v7.8h-3v-5.1h-27.8v5.1ZM275.8,175.4h3v11.3h-3v-1.6h-21.5v1.7h-2.9v-11.4h2.9v7h9v-9.2h3v9.2h9.5v-7ZM265.9,163.1c-1.4-1.4-4.4-3.2-6.8-4.4l1.5-1.7c2.4,1,5.4,2.8,6.9,4.2l-1.6,1.9ZM276,161.9c2.8,2.2,5.8,5.3,7.2,7.6l-2.3,1.6c-1.3-2.2-4.3-5.5-7-7.8l2.1-1.4Z"/>
        <path class="cls-1" d="M299.2,153.3c-.2.6-.6,2-.7,2.7-.8,3.7-2,11.5-2,16s0,3.5.4,5.4c.6-1.8,1.6-4.2,2.2-5.8l1.7,1.3c-1,2.8-2.4,6.8-2.8,8.8-.1.5-.2,1.3-.2,1.8,0,.4,0,1,.1,1.4l-2.8.2c-.8-2.8-1.5-7.2-1.5-12.6s1.3-13.4,1.8-16.6c.2-.9.3-2,.3-2.8l3.5.3ZM325,182.1c-2-1.8-3.9-3.4-6-4.5v.7c0,3.3-1.5,6.5-6.9,6.5s-8.2-2.2-8.2-5.7,3-6,8.2-6,2.6.1,3.7.4c-.1-3-.4-6.8-.4-10.1-1.3,0-2.5,0-3.8,0-2.2,0-4.3-.1-6.6-.2v-3c2.2.2,4.4.4,6.7.4s2.5,0,3.7,0v-4.9c0-.7,0-1.7-.2-2.4h3.6c-.1.8-.2,1.6-.2,2.4,0,1.1,0,2.9-.1,4.8,2.4-.2,4.7-.5,6.8-.9v3.1c-2.2.4-4.5.6-6.8.8,0,4,.3,7.9.5,11.2,3.2,1.3,5.7,3.3,7.8,5.2l-1.7,2.6ZM315.8,176.3c-1.3-.4-2.6-.6-4-.6-3,0-5,1.3-5,3.2s1.9,3.1,4.8,3.1,4.3-1.6,4.3-4.3,0-.8,0-1.3Z"/>
        <path class="cls-1" d="M346.2,160.6c0-2.4-1.5-4.3-4.3-4.3s-3.8,1-5.2,2.6l-2.1-1.9c1.8-2.1,4.4-3.7,7.6-3.7s7.5,2.8,7.5,7.1-7.2,8.2-6.5,14.5h-3.2c-.9-7,6.2-9.5,6.2-14.3ZM339.1,181.5c0-1.6,1.2-2.8,2.6-2.8s2.7,1.2,2.7,2.8-1.2,2.8-2.7,2.8-2.6-1.1-2.6-2.8Z"/>
      </g>
    </g>
  </g>
  <g id="_グループ_1550" data-name="グループ 1550">
    <g id="_最高に" data-name="最高に" class="cls-2">
      <g class="cls-2">
        <path class="cls-1" d="M34.9,97.6c-1.2,3.8-3.3,6.9-5.9,9.4,2.3,1.8,5,3.1,8.1,3.8-.6.6-1.4,1.6-1.8,2.3-3.2-.9-6-2.4-8.4-4.4-2.4,1.9-5.2,3.2-8,4.2-.3-.7-1-1.7-1.6-2.2v2.5h-2.8v-3.9c-4.9.6-9.8,1.2-13.5,1.6l-.3-2.6c1.1,0,2.4-.2,3.8-.4v-13.4H1.2v-2.5h35v2.5h-18.7v16.2c2.6-.8,5.2-2.1,7.5-3.8-1.8-2-3.3-4.4-4.4-7l1.7-.5h-3.4v-2.4h14.3c0,0,1.8.6,1.8.6ZM31.6,89.7H5.9v-11.8h25.7v11.8ZM7.3,94.5v2.7h7.2v-2.7h-7.2ZM7.3,102.2h7.2v-2.8h-7.2v2.8ZM7.3,107.6c2.3-.2,4.8-.5,7.2-.8v-2.4h-7.2v3.2ZM28.7,80.1H8.7v2.8h20v-2.8ZM28.7,84.8H8.7v2.8h20v-2.8ZM23,99.3c.9,2.2,2.3,4.2,3.9,5.9,1.8-1.7,3.3-3.6,4.3-5.9h-8.2Z"/>
        <path class="cls-1" d="M79.9,80.5v2.6h-34.5v-2.6h15.5v-3.8h3v3.8h16ZM78.4,109.7c0,1.6-.4,2.5-1.6,3-1.3.4-3.4.4-6.7.4-.2-.8-.6-2-1-2.8,2.6,0,4.8,0,5.5,0,.7,0,.8-.2.8-.8v-11.1h-25.4v14.7h-2.8v-17.2h31.2v13.7ZM73.4,85.3v8.2h-21.4v-8.2h21.4ZM70.4,87.4h-15.6v3.9h15.6v-3.9ZM57.8,109.5v2h-2.6v-10.4h15.1v8.4h-12.5ZM57.8,103.2v4.1h9.8v-4.1h-9.8Z"/>
        <path class="cls-1" d="M97.1,80.1c-.2.7-.6,2-.8,2.7-.8,3.6-1.9,10.7-1.9,15.2s0,3.5.3,5.4c.7-1.8,1.6-4.1,2.2-5.7l1.7,1.3c-1,2.8-2.4,7-2.8,8.9-.1.6-.2,1.3-.2,1.8v1.4c.1,0-2.8.2-2.8.2-.8-2.8-1.4-7.4-1.4-12.7s1.3-12.6,1.8-15.9c.1-.9.3-2,.3-2.8l3.6.3ZM106.1,99.3c-.4,1.4-.5,2.6-.5,3.6,0,1.8,1.2,3.6,6.6,3.6s6.6-.3,9.8-1v3.4c-2.4.5-5.7.8-9.8.8-6.6,0-9.6-2.2-9.6-5.9s.3-3,.6-4.7l2.9.3ZM104.5,83.2c4.3.7,12.3.6,16.3,0v3.3c-4.2.4-11.9.4-16.2,0v-3.3Z"/>
      </g>
    </g>
  </g>
</svg>