<svg xmlns="http://www.w3.org/2000/svg" width="211.299" height="32.785" viewBox="0 0 211.299 32.785">
  <g id="レイヤー_1" data-name="レイヤー 1" transform="translate(-723 -745)">
    <g id="グループ_1447" data-name="グループ 1447" transform="translate(723 745)">
      <path id="パス_510" data-name="パス 510" d="M15.292,21.91A6.387,6.387,0,0,1,13.5,26.62a5.917,5.917,0,0,1-4.465,1.835,5.987,5.987,0,0,1-4.48-1.85,6.386,6.386,0,0,1-1.82-4.695V1.19H0V21.956A8.9,8.9,0,0,0,2.569,28.47a8.517,8.517,0,0,0,6.285,2.6h.367a8.511,8.511,0,0,0,6.254-2.615,9.079,9.079,0,0,0,2.569-6.575V1.19H15.307V21.91Z" transform="translate(0 0.63)" fill="#717071"/>
      <path id="パス_511" data-name="パス 511" d="M50.473,1.82H47.721V24.849L27.49,0V30.965h2.737V7.906L50.473,32.785Z" transform="translate(14.547)" fill="#717071"/>
      <rect id="長方形_340" data-name="長方形 340" width="31.332" height="2.737" transform="matrix(0.276, -0.961, 0.961, 0.276, 120.23, 31.071)" fill="#717071"/>
      <path id="パス_512" data-name="パス 512" d="M102.587,27.751V1.19H99.85V30.336h11.285V27.751Z" transform="translate(52.836 0.63)" fill="#717071"/>
      <path id="パス_513" data-name="パス 513" d="M133.523,3.577a12.379,12.379,0,1,1-12.371,12.386A12.39,12.39,0,0,1,133.523,3.577m0-2.737a15.123,15.123,0,1,0,15.123,15.123A15.127,15.127,0,0,0,133.523.84" transform="translate(62.652 0.444)" fill="#717071"/>
      <path id="パス_514" data-name="パス 514" d="M69.51,3.774V1.19H58.21V30.336h2.752V19.892h6.912V17.307H60.962V3.774Z" transform="translate(30.802 0.63)" fill="#717071"/>
    </g>
  </g>
</svg>
