<?xml version="1.0" encoding="UTF-8"?>
<svg id="_レイヤー_1" data-name="レイヤー 1" xmlns="http://www.w3.org/2000/svg" version="1.1" viewBox="0 0 246.5 247.1">
  <defs>
    <style>
      .cls-1 {
        fill: #52b2ff;
        stroke-width: 0px;
      }
    </style>
  </defs>
  <g id="_レイヤー_1-2" data-name="レイヤー 1">
    <g id="_グループ_1597" data-name="グループ 1597">
      <path id="_パス_771" data-name="パス 771" class="cls-1" d="M52.1,30.8h0c2.5-1.6,4.5-1.6,5.8,0,1.5,2,.3,4.5-1.9,6.2-.7.6-1.8,1.3-2.3,1.8l-2.4,1.9-.2-.2,1.4-1.1-8-10.2-1.4,1.1-.2-.2,2.4-1.9c.5-.4,1.5-1.3,2.2-1.8,2.1-1.7,4.3-2,5.6-.4,1,1.3.4,3.2-1.1,4.8h0ZM50.3,32.1l.6-.5c.8-.7,1.2-1.3,1.2-2-.1-.6-.4-1.2-.9-1.7-1.4-1.8-2.4-2.1-3.9-1-.2.1-.4.3-.6.5l3.6,4.6h0ZM54.6,37.7c.3-.2.6-.4.8-.6,1.5-1.2,1.7-2.3,0-4.5-1.5-1.9-2.9-1.9-4-1l-.9.7s4.2,5.4,4.2,5.4Z"/>
      <path id="_パス_772" data-name="パス 772" class="cls-1" d="M62.8,26.5l.6.9c.8,1.3,2,3,4,1.9,1.1-.7,1.7-2.1,1.3-3.3h.3c.4,1.4-.3,3-1.6,3.7-2.3,1.4-4.9,1-6.3-1.3-1.2-2.1-.5-4.7,1.5-6,1.6-1.1,3.8-.7,4.9.9,0,0,.1.2.2.3l-4.8,2.9h0ZM65.2,24.6l-.7-1.1c-.6-1.1-1.3-1.3-2-.9-1.2.8-.8,2.1,0,3.6l2.6-1.6h0Z"/>
      <path id="_パス_773" data-name="パス 773" class="cls-1" d="M79.1,22.1c.1.3.4.7.9.5.3-.1.4-.4.5-.6h.2c0,.5-.3.9-1.3,1.3-1.2.5-1.9.4-2.4-.3h0c0,1-.2,1.6-1.6,2.2-1.4.7-2.7.6-3.3-.5-.8-1.7.9-2.7,2.2-4,.7-.7,1-1.1.6-1.8l-.5-1.1c-.2-.6-.8-.9-1.4-.7,0,0-.1,0-.2,0-.5.2-.9.7-.6,1.3l.6.9c.2.5,0,.8-.7,1.2s-1.2.1-1.4-.4c-.5-1.1.5-2.5,2.1-3.2,2.3-1.1,3.6-.5,4.2.9l2.1,4.4h0ZM75.3,19.7c0,.3-.2.6-.8,1.3-.6.6-.7,1.5-.3,2.2.5,1.1,1.2,1.5,1.9,1.1s.8-1.3.4-2.3l-1.1-2.3h0s0,0,0,0Z"/>
      <path id="_パス_774" data-name="パス 774" class="cls-1" d="M83.9,12.5l2,5.8c.3.8.8,1.5,1.8,1.2,1.1-.4,1.5-1.8,1-3l-1.6-4.7-1.2.4v-.2c0,0,3.3-1.1,3.3-1.1l2.5,7.5,1.2-.4v.2c0,0-3.3,1.1-3.3,1.1l-.5-1.5h0c-.1,1.2-1,2.2-2.2,2.5-1.7.6-2.8,0-3.4-1.5l-1.8-5.3-1.2.4v-.2c0,0,3.3-1.2,3.3-1.2h0Z"/>
      <path id="_パス_775" data-name="パス 775" class="cls-1" d="M94.9,6.6c.4,0,.8,0,1.2,0,.4-.1.7-.3,1.1-.5l.6,2.4,2.2-.5v.3c0,0-2.1.5-2.1.5l1.4,6.3c.2.9.6,1.2,1.3,1.1s1.1-.8,1.2-2h.3c.1,1.2-.8,2.4-2,2.5,0,0,0,0,0,0-1.5.4-2.7.2-3-1.4l-1.4-5.9-1.2.3v-.3c0,0,1.2-.3,1.2-.3l-.6-2.4h0Z"/>
      <path id="_パス_776" data-name="パス 776" class="cls-1" d="M107.6,6.7v.3s-1.3.2-1.3.2l3,5.1,1.7-5.8-1.6.2v-.3s2.7-.4,2.7-.4v.3s-.8.1-.8.1c-.8,2.7-1.6,5.4-2.3,8.3-.7,2.8-1.1,4.5-1.5,5.1-.3.5-.8.8-1.4.9-1.1.1-2-.3-2.2-1.3,0-.7.4-1.1,1.1-1.2.5-.1,1,.2,1.1.6,0,.5-.2.7,0,1.1,0,.2.2.4.4.4,0,0,0,0,0,0,.6,0,1.1-.8,1.4-2.2l.7-2.6-4.7-8h-1c0,.1,0-.1,0-.1l4.8-.7h0Z"/>
      <path id="_パス_777" data-name="パス 777" class="cls-1" d="M129.2,2.9c-.7,0-1-.4-1-1,0-.2.2-1,.2-1,0-.5-.4-.7-.8-.7-.8,0-1.1.5-1.1,2.2v3.2c0,0,1.5,0,1.5,0v.3h-1.6s-.1,7.6-.1,7.6h1.5v.3h-5v-.4h1.3s.1-7.6.1-7.6h-1.2v-.3h1.3s0-.7,0-.7c0-3.4,1.2-4.9,3.9-4.9,1.4,0,2.4.7,2.4,1.9,0,.6-.5,1-1.1,1,0,0,0,0,0,0h0Z"/>
      <path id="_パス_778" data-name="パス 778" class="cls-1" d="M135.8,14.7c-2.5-.2-4.3-2.3-4.1-4.8,0,0,0,0,0,0,.4-2.5,2.9-4.2,5.4-3.8,2.3.4,3.9,2.4,3.8,4.8-.3,2.5-2.6,4.2-5.1,3.8,0,0,0,0,0,0h0ZM137.8,13.2c.3-1,.5-2.1.6-3.1.2-1.8.1-3.5-1.7-3.7-1.9-.2-2.2,1.6-2.5,3.8-.2,2.2-.3,4.1,1.6,4.3.9.2,1.8-.4,2-1.3h0Z"/>
      <path id="_パス_779" data-name="パス 779" class="cls-1" d="M151.2,11.6c-.6-.1-1.1-.5-.9-1.1,0-.3.3-.6.3-.9,0-.2,0-.5-.3-.5,0,0,0,0,0,0-.6-.1-1.8.9-2.1,2.1l-1.1,4.9,1.5.3v.3c0,0-5-1.1-5-1.1v-.3c0,0,1.3.3,1.3.3l1.6-7.4-1.2-.3v-.3c0,0,3.5.7,3.5.7l-.3,1.6h0c.6-.9,1.7-1.4,2.8-1.2.9,0,1.5.9,1.4,1.7,0,0,0,.1,0,.2,0,.6-.5,1-1.1,1,0,0-.2,0-.3,0h0Z"/>
      <path id="_パス_780" data-name="パス 780" class="cls-1" d="M167,13.6c1.5.5,2.5,1.5,1.8,3.5l-1.8,5,1.2.4v.2c0,0-4.5-1.6-4.5-1.6v-.2c0,0,1.1.4,1.1.4l2-5.6c.3-.9.2-1.6-.6-1.9-.9-.3-2,.2-2.3,1.1l-1.9,5.4,1.1.4v.2c0,0-4.4-1.5-4.4-1.5v-.2c0,0,1.2.4,1.2.4l2.1-5.8c.3-.9,0-1.6-.6-1.8-.6-.2-1.9-.2-2.6,1.7l-1.7,4.7,1.1.4v.2c0,0-4.5-1.6-4.5-1.6v-.2c0,0,1.3.4,1.3.4l2.6-7.2-1.2-.4v-.2c0,0,3.4,1.2,3.4,1.2l-.4,1.3h0c.8-.7,2-.9,3-.5,1.1.3,1.9,1.2,2,2.3.8-.7,1.9-.9,2.9-.6h0Z"/>
      <path id="_パス_781" data-name="パス 781" class="cls-1" d="M194.4,22.3l-1.9,2.9h-.2c.6-2.3.5-3.6-1.3-4.7l-.7-.4-6.9,11,1.5.9v.2c-.1,0-5.4-3.3-5.4-3.3v-.2c.1,0,1.6.9,1.6.9l6.9-11-.6-.4c-1.8-1.1-2.9-.8-4.8.8h-.2c0-.1,1.9-3.1,1.9-3.1l10.1,6.3h0Z"/>
      <path id="_パス_782" data-name="パス 782" class="cls-1" d="M196.4,34.7l-1.2,1.5-2.8-2.2,1.2-1.5,2.8,2.2Z"/>
      <path id="_パス_783" data-name="パス 783" class="cls-1" d="M206.3,39.3l.2.2-1.6,1.7-.2-.2c.8-1.8.5-2.6-.3-3.4-.5-.6-1.4-.7-2.1-.2,0,0,0,0,0,0-.7.8,0,1.7.9,3.5.7,1,.6,2.3-.2,3.2-1.2,1.1-3.1,1-4.2-.2,0,0,0,0,0,0-.6-.7-1.1-1.4-1.6-2.2-.1-.1-.2-.1-.4,0l-.2-.2,1.9-2,.2.2c-.9,2.2-.7,3.2.2,4,.9.9,1.6.7,2.3,0,.8-.9-.4-2.4-.9-3.7-.5-.9-.4-1.9.3-2.7,1.1-1.1,3-1.1,4.1,0,0,0,0,0,0,0,.4.5.8,1.1,1.1,1.7.1.1.3.2.4,0h0Z"/>
      <path id="_パス_784" data-name="パス 784" class="cls-1" d="M216.4,41.9l-5.6,4.8h0c1.3-.4,2.7,0,3.6,1.1,1,1,.9,2.5,0,3.5,0,0-.2.1-.2.2l-4.1,3.5.8,1-.2.2-3.1-3.6.2-.2.8.9,4.6-4c.7-.6.8-1.3.3-1.9-.5-.5-1.1-.8-1.8-.6-.8.1-1.6.5-2.2,1.1l-3.1,2.7.8.9-.2.2-3.1-3.6.2-.2.8,1,10-8.6-.8-1,.2-.2,2.3,2.7h0Z"/>
      <path id="_パス_785" data-name="パス 785" class="cls-1" d="M221.1,57l-6.4,4.5.7,1-.2.2-2.8-4,.2-.2.7,1,6.2-4.4-.7-1,.2-.2,2.1,2.9h0ZM222.7,54.5c-.4-.6-.3-1.5.3-1.9.6-.4,1.5-.3,1.9.3.4.6.3,1.5-.3,1.9,0,0,0,0,0,0-.6.4-1.5.3-1.9-.3,0,0,0,0,0,0Z"/>
      <path id="_パス_786" data-name="パス 786" class="cls-1" d="M224.9,68.2c-.3-.5-.4-1.1.1-1.4.2-.1.6-.2.9-.4.2,0,.3-.3.2-.5,0,0,0,0,0,0-.3-.6-1.9-.8-3-.1l-4.3,2.5.8,1.3h-.2c0,.1-2.6-4.2-2.6-4.2h.2c0-.1.6.9.6.9l6.6-3.8-.6-1.1h.2c0-.1,1.8,2.9,1.8,2.9l-1.4.8h0c1.1-.2,2.2.3,2.8,1.2.5.7.4,1.7-.3,2.2,0,0-.1,0-.2.1-.4.4-1.1.3-1.5-.1,0,0-.1-.2-.2-.2h0Z"/>
      <path id="_パス_787" data-name="パス 787" class="cls-1" d="M231.9,70.7c0,.4,0,.8.3,1.2.2.4.4.7.7.9l-2.2,1.1.9,2h-.2c0,.1-.9-1.9-.9-1.9l-5.8,2.8c-.8.4-1.1.8-.8,1.5s1,.9,2.2.7v.3c-1.1.4-2.4-.2-2.8-1.4,0,0,0,0,0,0-.7-1.4-.8-2.6.8-3.3l5.5-2.6-.6-1.2h.2c0-.1.6,1,.6,1l2.2-1.1h0Z"/>
      <path id="_パス_788" data-name="パス 788" class="cls-1" d="M235.2,84.7v.2c0,0-2.1.8-2.1.8v-.2c1.4-1.3,1.6-2.1,1.2-3.2-.3-.9-1.1-1.4-1.8-1.1-1,.4-.8,1.5-.7,3.5.2,1.2-.5,2.3-1.6,2.8-1.6.5-3.2-.5-3.7-2.1,0,0,0,0,0,0-.2-.9-.3-1.8-.4-2.7,0-.2-.1-.2-.4-.2v-.2c0,0,2.5-1,2.5-1v.2c-1.7,1.6-1.9,2.6-1.5,3.7.4,1.2,1.1,1.4,2,1.1,1.1-.4.7-2.3.8-3.7,0-1,.5-1.9,1.4-2.2,1.5-.5,3.1.4,3.6,1.9,0,0,0,0,0,0,.2.7.2,1.4.3,2.1,0,.2.2.3.4.2h0Z"/>
      <path id="_パス_789" data-name="パス 789" class="cls-1" d="M240.3,111.2h0c0,3-.9,4.7-3.1,4.9-2.5.3-4-2.1-4.3-4.9-.1-.9-.2-2.2-.3-2.9l-.4-3.1h.3s.2,1.7.2,1.7l12.9-1.5-.2-1.7h.3s.4,3,.4,3c0,.7.3,2,.4,2.9.3,2.7-.6,4.8-2.6,5-1.7.2-2.9-1.3-3.5-3.5h0ZM233,109.8c0,.3,0,.7,0,1,.2,1.8,1.1,2.6,3.9,2.3,2.4-.3,3.1-1.5,3-2.9v-1.2c-.1,0-6.9.8-6.9.8h0ZM240.1,108.9v.7c0,.8.5,1.6,1.2,2,.6.2,1.3.3,1.9.2,2.3-.3,3.1-1,2.9-2.8,0-.2,0-.5-.1-.8l-5.8.7h0Z"/>
      <path id="_パス_790" data-name="パス 790" class="cls-1" d="M238.4,122.6h-1.1c-1.5,0-3.7,0-3.7,2.3,0,1.3.9,2.5,2.2,2.9v.3c-1.6-.4-2.6-1.9-2.4-3.4,0-2.7,1.8-4.7,4.4-4.6,2.4.1,4.3,2.1,4.2,4.5,0,1.9-1.4,3.6-3.3,3.7-.1,0-.2,0-.4,0v-5.6c0,0,.1,0,.1,0ZM238.6,125.6h1.3c1.2,0,1.8-.3,1.8-1.2,0-1.5-1.3-1.8-3.1-1.8v3Z"/>
      <path id="_パス_791" data-name="パス 791" class="cls-1" d="M233.6,138.7c-.3,0-.8,0-.9.5,0,.3,0,.6.3.8h-.2c-.3-.2-.5-.5-.4-1.6.1-1.3.7-1.8,1.5-1.9h0c-.9-.5-1.2-1.1-1.1-2.5.2-1.6.9-2.6,2.2-2.5,1.9.2,1.8,2.2,2.2,3.9.2.9.4,1.4,1.2,1.5h1.3c.6.3,1.2,0,1.4-.7,0,0,0-.2,0-.2,0-.6-.1-1.1-.8-1.2h-1.1c-.5,0-.7-.4-.6-1.2,0-.8.5-1.1,1.1-1,1.2.1,1.9,1.7,1.7,3.5-.3,2.6-1.4,3.3-3,3.2l-4.8-.5h0ZM237.6,136.8c-.3,0-.4-.5-.7-1.4-.2-.8-.9-1.4-1.8-1.4-1.2-.1-1.8.2-1.9,1s.7,1.4,1.8,1.5l2.6.3h0s0,0,0,0Z"/>
      <path id="_パス_792" data-name="パス 792" class="cls-1" d="M239.3,147.9l-5.9-1.3c-.8-.2-1.7,0-1.9.9-.3,1.1.8,2.2,2,2.5l4.8,1.1.3-1.2h.3c0,0-.8,3.6-.8,3.6l-7.7-1.7-.3,1.2h-.3c0,0,.8-3.5.8-3.5l1.5.3h0c-.9-.8-1.4-2-1-3.2.4-1.8,1.4-2.5,3-2.1l5.4,1.2.3-1.2h.3c0,0-.8,3.6-.8,3.6h0Z"/>
      <path id="_パス_793" data-name="パス 793" class="cls-1" d="M238.6,160.3c-.3.3-.5.6-.6,1-.1.4-.1.8-.1,1.2l-2.3-.8-.7,2.1h-.2c0,0,.7-2.2.7-2.2l-6.1-2c-.9-.3-1.4-.2-1.6.5s.1,1.4,1.1,2v.2c-1.3-.5-1.8-1.9-1.2-3,0,0,0,0,0,0,.5-1.5,1.2-2.4,2.8-1.9l5.8,1.9.4-1.2h.2c0,0-.4,1.3-.4,1.3l2.3.8Z"/>
      <path id="_パス_794" data-name="パス 794" class="cls-1" d="M231.9,171.1h-.2c0-.1.5-1.3.5-1.3h-6c0,0,4.1,4.3,4.1,4.3l.6-1.4h.2c0,.1-1.1,2.6-1.1,2.6h-.2c0-.1.4-.9.4-.9-1.9-2.1-3.8-4.2-5.9-6.2-2.1-2.1-3.3-3.3-3.5-3.9-.3-.5-.3-1.1,0-1.7.5-1,1.3-1.6,2.2-1.2.5.2.8.9.5,1.4,0,0,0,0,0,.1-.1.5-.6.7-1.1.6,0,0,0,0,0,0-.4-.2-.5-.5-.9-.6-.2-.1-.4,0-.5.1,0,0,0,0,0,0-.2.6.1,1.4,1.1,2.4l1.9,1.9h9.3c0,.1.4-.8.4-.8h.2c0,.1-1.9,4.6-1.9,4.6h0Z"/>
      <path id="_パス_795" data-name="パス 795" class="cls-1" d="M223.9,191.6c.2-.4.7-.6,1.1-.5,0,0,.1,0,.2.1.1,0,.8.7.8.7.3.2.8,0,1-.3,0,0,0,0,0,0,.4-.7.1-1.2-1.3-2.1l-2.7-1.7-.8,1.3h-.2c0-.1.8-1.5.8-1.5l-6.4-4.1-.8,1.2h-.2c0-.1,2.7-4.4,2.7-4.4h.2c0,.1-.7,1.2-.7,1.2l6.4,4.1.7-1.1h.2c0,.1-.7,1.2-.7,1.2l.6.4c2.9,1.8,3.6,3.6,2.2,5.8-.7,1.2-1.9,1.7-2.8,1-.5-.3-.6-1-.3-1.5,0,0,0,0,0,0h0Z"/>
      <g>
        <path class="cls-1" d="M213,195.6c-.9-.6-1.7-1.3-2.3-2.1h0c-.6-.7-.6-1.7,0-2.4,1.2-1.5,2.8-.5,4.5.9,1.1.8,2,1.6,2.3,2.5.2-1.2-.2-2.6-1.2-3.5-1.6-1.6-4.2-1.6-5.8,0h0c-1.6,1.6-1.6,4.2,0,5.8,1.6,1.6,4.2,1.6,5.8,0,0,0,0,0,0,0-1,.4-2.2-.2-3.3-1.1Z"/>
        <path class="cls-1" d="M217.4,194.4c-.1.8-.5,1.6-1.1,2.2.3-.1.5-.3.8-.6.4-.6.5-1.1.3-1.6Z"/>
      </g>
      <path id="_パス_797" data-name="パス 797" class="cls-1" d="M205.1,205.7c.4-.4,1-.7,1.4-.2.2.2.4.5.6.7.1.2.4.2.6,0,0,0,0,0,0,0,.5-.5.2-2-.7-2.9l-3.6-3.4-1,1.1-.2-.2,3.5-3.7.2.2-.9.9,5.5,5.3.9-.9.2.2-2.4,2.6-1.2-1.1h0c.5,1,.3,2.2-.4,3-.5.7-1.5.9-2.2.3,0,0-.1,0-.2-.1-.5-.3-.6-1-.3-1.5,0,0,.1-.2.2-.2h0Z"/>
      <path id="_パス_798" data-name="パス 798" class="cls-1" d="M195,218.2c-1.2,1-2.6,1.4-3.9-.3l-3.4-4.1-1,.8-.2-.2,3.6-2.9.2.2-.9.7,3.7,4.6c.6.8,1.3,1,2,.4.7-.7.8-1.8.2-2.6l-3.6-4.4-.9.7-.2-.2,3.6-2.9.2.2-.9.7,3.8,4.7c.6.8,1.3.8,1.8.4.5-.4,1.2-1.5-.1-3.2l-3.1-3.9-.9.7-.2-.2,3.6-2.9.2.2-1,.8,4.8,5.9,1-.8.2.2-2.8,2.2-.9-1.1h0c.2,1.1-.2,2.2-1.1,2.9-.8.8-2,1-3,.5.2,1.1-.2,2.1-1.1,2.8h0Z"/>
      <path id="_パス_799" data-name="パス 799" class="cls-1" d="M173.4,237l-1.6-3.1h.2c1.6,1.6,2.8,2.1,4.6,1.2l.7-.4-5.8-11.6-1.6.8v-.2c-.1,0,5.5-2.8,5.5-2.8v.2c.1,0-1.4.8-1.4.8l5.8,11.6.7-.3c1.9-.9,2.2-2.1,1.8-4.5h.2c0-.1,1.6,3,1.6,3l-10.7,5.3h0Z"/>
      <path id="_パス_800" data-name="パス 800" class="cls-1" d="M161.8,232.3l-.6-1.8,3.4-1.2.6,1.8-3.4,1.2Z"/>
      <path id="_パス_801" data-name="パス 801" class="cls-1" d="M152.7,238.4h-.3c0,0-.6-2.2-.6-2.2h.2c1.1,1.5,2,1.8,3,1.5.9-.2,1.5-1,1.3-1.7-.3-1-1.5-.9-3.5-1.1-1.2,0-2.2-.7-2.6-1.8-.3-1.6.8-3.2,2.4-3.5,0,0,0,0,0,0,.8-.2,2.3,0,2.7-.2.2,0,.2-.1.3-.4h.3c0,0,.7,2.6.7,2.6h-.3c-1.4-1.8-2.4-2.1-3.6-1.8-1.2.3-1.5,1-1.2,1.9.3,1.1,2.3.9,3.6,1.1,1,0,1.8.7,2.1,1.6.3,1.5-.6,3.1-2.2,3.4,0,0,0,0-.1,0-.7,0-1.4.1-2.1,0-.2,0-.2.1-.3.3h0Z"/>
      <path id="_パス_802" data-name="パス 802" class="cls-1" d="M145.2,245.6l-1.2-7.3h0c-.3,1.3-1.4,2.3-2.8,2.5-1.3.3-2.7-.5-3-1.9,0-.1,0-.2,0-.3l-.9-5.3-1.3.2v-.3s4.7-.8,4.7-.8v.3s-1.1.2-1.1.2l1,6c.1.9.7,1.4,1.4,1.3.7-.1,1.2-.6,1.5-1.2.3-.8.4-1.7.2-2.5l-.7-4.1-1.2.2v-.3s4.7-.8,4.7-.8v.3s-1.2.2-1.2.2l2.1,13,1.2-.2v.3s-3.5.6-3.5.6h0Z"/>
      <path id="_パス_803" data-name="パス 803" class="cls-1" d="M129.8,241.8l-.5-7.9h-1.3c0,0,0-.2,0-.2l4.9-.3v.3s-1.2,0-1.2,0l.5,7.6h1.3c0,0,0,.2,0,.2l-3.6.2h0ZM131.2,244.5c.7,0,1.4.5,1.4,1.3,0,.7-.5,1.4-1.3,1.4s-1.4-.5-1.4-1.3h0c0-.7.5-1.4,1.3-1.4Z"/>
      <path id="_パス_804" data-name="パス 804" class="cls-1" d="M118.3,239.2c.6,0,1.2.2,1.1.9,0,.3-.1.6-.2.9,0,.2,0,.5.4.5.7,0,1.6-1.2,1.7-2.5v-5c0,0-1.4,0-1.4,0v-.3h5.1v.4h-1.2s-.1,7.6-.1,7.6h1.2v.3h-3.5c0,0,0-1.7,0-1.7h0c-.4,1-1.4,1.7-2.5,1.7-.9,0-1.7-.6-1.8-1.4,0,0,0-.1,0-.2,0-.8.4-1.2,1.2-1.2h0Z"/>
      <path id="_パス_805" data-name="パス 805" class="cls-1" d="M112.6,243.9c-.3-.2-.7-.3-1.1-.4-.4,0-.8,0-1.2.1l.2-2.4-2.2-.2v-.3s2.2.2,2.2.2l.7-6.4c0-.9-.1-1.4-.9-1.4s-1.3.4-1.7,1.5h-.3c.3-1.3,1.5-2.1,2.7-1.8,0,0,0,0,0,0,1.5.2,2.6.7,2.4,2.4l-.6,6h1.3c0,.1,0,.4,0,.4h-1.3c0-.1-.2,2.3-.2,2.3h0Z"/>
      <path id="_パス_806" data-name="パス 806" class="cls-1" d="M98.9,239.4h-.3c0,0,.4-2.3.4-2.3h.2c.3,2,.9,2.6,2.1,2.8.8.3,1.6-.1,1.9-.9,0,0,0,0,0,0,.2-1-.9-1.5-2.6-2.5-1.1-.5-1.7-1.6-1.5-2.8.4-1.6,2.1-2.5,3.7-2.1,0,0,0,0,0,0,.9.3,1.7.6,2.5,1,.2,0,.3,0,.4-.2h.3c0,0-.5,2.8-.5,2.8h-.3c-.4-2.4-1.1-3.1-2.4-3.3-1.3-.2-1.8.3-1.9,1.2-.2,1.2,1.6,1.8,2.7,2.6.9.5,1.3,1.4,1.2,2.4-.4,1.5-1.9,2.5-3.5,2.1,0,0,0,0,0,0-.7-.2-1.3-.5-1.9-.8-.2,0-.3,0-.4.2h0Z"/>
      <path id="_パス_807" data-name="パス 807" class="cls-1" d="M80.6,233h0c-2.7-1.4-3.7-3.1-2.9-5.1.9-2.3,3.7-2.6,6.3-1.6.8.3,2,.8,2.7,1.1l2.9,1.1v.2c0,0-1.7-.6-1.7-.6l-4.7,12.1,1.6.6v.2c0,0-3-1.1-3-1.1-.6-.2-1.9-.7-2.7-1-2.5-1-3.9-2.7-3.2-4.6.6-1.6,2.5-2,4.7-1.5h0ZM82.7,233.9l-.7-.3c-.7-.4-1.6-.4-2.3,0-.5.4-.9,1-1,1.6-.8,2.2-.6,3.2,1.1,3.8.2,0,.5.1.8.2l2.1-5.5h0ZM85.3,227.2c-.3-.1-.6-.3-.9-.4-1.7-.7-2.8-.3-3.8,2.4-.8,2.2-.1,3.5,1.2,4l1.1.4s2.5-6.4,2.5-6.4Z"/>
      <path id="_パス_808" data-name="パス 808" class="cls-1" d="M71.4,226.1l.5-1c.7-1.3,1.6-3.3-.4-4.4-1.2-.6-2.6-.4-3.5.6l-.2-.2c1.1-1.1,2.8-1.3,4.1-.5,2.4,1.3,3.3,3.7,2.1,6.1-1.2,2.1-3.8,2.8-5.9,1.8-1.8-.8-2.6-2.9-1.8-4.7,0-.1.1-.2.2-.3l5,2.6h0ZM68.6,224.9l-.6,1.2c-.6,1.1-.5,1.8.3,2.2,1.3.7,2.2-.4,3-1.9l-2.7-1.4h0Z"/>
      <path id="_パス_809" data-name="パス 809" class="cls-1" d="M59.3,214.2c.2-.3.4-.7,0-1-.2-.2-.5-.2-.8-.1v-.2c.4-.1.8-.1,1.7.5,1.1.7,1.3,1.5,1,2.2h0c.8-.6,1.5-.6,2.7.2,1.3.9,1.9,2.1,1.2,3.1-1.1,1.6-2.8.6-4.5.1-.9-.2-1.4-.3-1.8.4l-.7,1.1c-.4.5-.4,1.2,0,1.6,0,0,.1,0,.2.1.5.3,1,.4,1.4-.2l.5-.9c.3-.4.7-.5,1.4,0s.7.9.4,1.4c-.7,1-2.4.9-3.9-.1-2.2-1.4-2.3-2.8-1.4-4.1l2.7-4h0ZM59.2,218.7c.2-.2.7-.1,1.5,0,.8.2,1.6-.2,2.1-.9.7-1,.7-1.7,0-2.2s-1.6,0-2.2.9l-1.4,2.1s0,0,0,0Z"/>
      <path id="_パス_810" data-name="パス 810" class="cls-1" d="M48.6,215.1l3.9-4.6c.5-.6.8-1.5,0-2.1-.9-.8-2.3-.3-3.1.7l-3.2,3.8,1,.8-.2.2-2.7-2.3,5.1-6-1-.8.2-.2,2.7,2.3-1,1.2h0c1.1-.5,2.4-.3,3.3.6,1.4,1.2,1.5,2.4.5,3.7l-3.6,4.2,1,.8-.2.2-2.7-2.3h0Z"/>
      <path id="_パス_811" data-name="パス 811" class="cls-1" d="M37.9,208.7c-.1-.4-.3-.7-.6-1-.3-.3-.6-.5-1-.6l1.8-1.7-1.5-1.6.2-.2,1.5,1.6,4.6-4.5c.6-.6.8-1.1.3-1.7s-1.3-.5-2.3,0l-.2-.2c1-.8,2.4-.6,3.2.4,0,0,0,0,0,0,1.1,1.1,1.5,2.2.3,3.4l-4.4,4.2.9.9-.2.2-.9-.9-1.8,1.7h0Z"/>
      <path id="_パス_812" data-name="パス 812" class="cls-1" d="M31.5,197.8l.2-.2.8,1,2.8-5.2-5.8,1.6,1,1.2-.2.2-1.7-2.1.2-.2.5.7c2.7-.7,5.5-1.4,8.2-2.3,2.8-.9,4.4-1.4,5.1-1.3.6,0,1.1.3,1.5.8.7.9.8,1.9,0,2.5-.5.4-1.1.3-1.5-.2,0,0,0,0,0-.1-.4-.3-.4-.9,0-1.3,0,0,0,0,0,0,.3-.3.7-.2,1-.5.2-.1.2-.3.1-.5,0,0,0,0,0,0-.4-.5-1.3-.5-2.6,0l-2.5.8-4.4,8.1.6.8-.2.2-3-3.8h0Z"/>
      <path id="_パス_813" data-name="パス 813" class="cls-1" d="M17.1,181.2c.3.4.2.9-.1,1.2,0,0-.1,0-.2.1-.1,0-.9.4-1,.4-.3.2-.4.7-.2,1,0,0,0,0,0,0,.4.7,1,.7,2.5-.2l2.7-1.6-.8-1.4h.2c0-.1.8,1.2.8,1.2l6.6-3.8-.7-1.3h.2c0-.1,2.5,4.2,2.5,4.2h-.2c0,.1-.6-.9-.6-.9l-6.6,3.8.6,1.1h-.2c0,.1-.6-.9-.6-.9l-.6.4c-3,1.7-4.8,1.6-6.2-.8-.7-1.2-.6-2.4.4-3,.5-.3,1.2-.1,1.5.4h0Z"/>
      <path id="_パス_814" data-name="パス 814" class="cls-1" d="M23.8,169.5c1.1,2.2.2,4.9-2,6-2.4.9-5.1-.3-6-2.7-.8-2.2,0-4.6,2.1-5.7,2.3-1,4.9.1,5.9,2.4,0,0,0,0,0,0h0ZM21.5,168.5c-1,.2-2,.6-3,1.1-1.6.7-3.1,1.7-2.3,3.4.8,1.7,2.5,1.1,4.5.2,2-.9,3.7-1.8,2.9-3.6-.3-.8-1.2-1.3-2.1-1.1Z"/>
      <path id="_パス_815" data-name="パス 815" class="cls-1" d="M13.2,157.9c.2.6.2,1.2-.4,1.4-.2,0-.6,0-.9.2-.2,0-.4.3-.3.5,0,0,0,0,0,0,.2.6,1.7,1.1,2.9.7l4.7-1.6-.5-1.4h.2c0,0,1.6,4.7,1.6,4.7h-.2c0,0-.4-1.1-.4-1.1l-7.2,2.4.4,1.2h-.2c0,0-1.1-3.2-1.1-3.2l1.5-.5h0c-1.1,0-2.1-.7-2.5-1.8-.4-.8,0-1.7.7-2.1,0,0,.1,0,.2,0,.5-.3,1.1,0,1.4.4,0,0,0,.2.1.3Z"/>
      <path id="_パス_816" data-name="パス 816" class="cls-1" d="M6.8,143.2c-.3-1.6,0-2.9,2.1-3.3l5.2-1-.2-1.2h.3c0,0,.9,4.6.9,4.6h-.3c0,0-.2-1.1-.2-1.1l-5.8,1.2c-.9.2-1.5.6-1.3,1.5.3,1,1.2,1.6,2.2,1.4l5.6-1.1-.2-1.1h.3c0,0,.9,4.4.9,4.4h-.3c0,0-.2-1.1-.2-1.1l-6,1.2c-1,.2-1.3.8-1.2,1.4.1.6.8,1.8,2.9,1.4l4.9-1-.2-1.1h.3c0,0,.9,4.6.9,4.6h-.3c0,0-.2-1.2-.2-1.2l-7.5,1.5.2,1.2h-.3c0,0-.7-3.4-.7-3.4l1.3-.3h0c-1.1-.4-1.8-1.2-2-2.3-.4-1.1,0-2.3,1-2.9-1-.3-1.8-1.2-2-2.2h0Z"/>
      <path id="_パス_817" data-name="パス 817" class="cls-1" d="M.2,115.3h3.5v.3c-2.2.6-3.2,1.4-3.3,3.4v.8s13,.3,13,.3v-1.8h.3v6.3h-.4v-1.8s-12.9-.3-12.9-.3v.7c0,2.1.8,2.9,3.1,3.7v.2H0c0,0,.2-12,.2-12h0Z"/>
      <path id="_パス_818" data-name="パス 818" class="cls-1" d="M9.8,107.2l1.9.2-.5,3.5-1.9-.2.5-3.5Z"/>
      <path id="_パス_819" data-name="パス 819" class="cls-1" d="M8.6,96.3v-.3c0,0,2.3.5,2.3.5v.2c-2,.3-2.6.9-2.8,2-.3.8.1,1.6.9,1.9,0,0,0,0,0,0,1,.2,1.5-.9,2.5-2.6.5-1.1,1.6-1.7,2.8-1.5,1.6.5,2.5,2.1,2,3.7,0,0,0,0,0,0-.2.8-1,2.1-1.1,2.5,0,.2,0,.3.2.4v.3c0,0-2.8-.6-2.8-.6v-.3c2.4-.3,3.1-1.1,3.4-2.3.3-1.3-.2-1.8-1.1-2-1.2-.2-1.9,1.6-2.7,2.7-.5.9-1.5,1.3-2.4,1.1-1.5-.4-2.4-2-2-3.5,0,0,0,0,0,0,.2-.7.5-1.3.9-1.9,0-.2,0-.3-.2-.4h0Z"/>
      <path id="_パス_820" data-name="パス 820" class="cls-1" d="M5.7,86.3l7,2.3h0c-1-.9-1.4-2.4-.9-3.6.3-1.3,1.7-2.1,3-1.8.1,0,.2,0,.3.1l5.1,1.7.4-1.2h.2c0,0-1.5,4.6-1.5,4.6h-.2c0,0,.4-1.2.4-1.2l-5.8-1.9c-.9-.3-1.5,0-1.8.7-.2.7,0,1.4.4,1.9.6.7,1.3,1.1,2.1,1.4l3.9,1.3.4-1.1h.2c0,0-1.5,4.6-1.5,4.6h-.2c0,0,.4-1.3.4-1.3l-12.5-4.2-.4,1.2h-.2c0,0,1.1-3.5,1.1-3.5h0Z"/>
      <path id="_パス_821" data-name="パス 821" class="cls-1" d="M13.2,74.5c-.3.7-1.1,1-1.8.7-.7-.3-1-1.1-.7-1.8.3-.7,1.1-1,1.8-.7.7.3,1,1.1.7,1.8ZM16.2,74.5l7.2,3.2.5-1.2h.2c0,.1-2,4.6-2,4.6h-.2c0-.1.5-1.3.5-1.3l-7-3.1-.5,1.2h-.2c0-.1,1.5-3.4,1.5-3.4Z"/>
      <path id="_パス_822" data-name="パス 822" class="cls-1" d="M23.9,65.5c-.3.6-.8.9-1.3.6-.2-.1-.5-.4-.8-.6-.2-.1-.4-.1-.6,0,0,0,0,0,0,0-.3.6.3,2,1.4,2.6l4.4,2.4.7-1.3h.2c0,.1-2.4,4.6-2.4,4.6h-.2c0-.1.6-1.2.6-1.2l-6.7-3.7-.6,1.1h-.2c0-.1,1.7-3.2,1.7-3.2l1.4.8h0c-.7-.9-.9-2.1-.4-3,.3-.8,1.3-1.2,2.1-.9,0,0,.1,0,.2,0,.5.2.8.8.6,1.3,0,0,0,.2-.1.3h0Z"/>
      <path id="_パス_823" data-name="パス 823" class="cls-1" d="M22.4,58.2c.7-.4,1.2-1.1,1.3-1.9l2,1.4,1.2-1.8.2.2-1.2,1.8,5.3,3.6c.7.5,1.3.5,1.7,0s.2-1.4-.5-2.2l.2-.2c1,.8,1.1,2.2.3,3.2,0,0,0,0,0,0-.8,1.3-1.8,2-3.2,1l-5-3.4-.7,1.1-.2-.2.7-1.1-2-1.4h0Z"/>
      <path id="_パス_824" data-name="パス 824" class="cls-1" d="M32.7,48.2l.2-.2,1.8,1.5-.2.2c-1.9-.6-2.7-.3-3.4.5-.6.6-.6,1.5,0,2.1,0,0,0,0,0,0,.8.7,1.7,0,3.4-1.2.9-.7,2.2-.8,3.2,0,1.2,1.1,1.3,3,.1,4.2,0,0,0,0,0,0-.5.7-1.8,1.4-2.1,1.8-.1.2-.1.2,0,.4l-.2.2-2.2-1.7.2-.2c2.2.7,3.2.4,4-.6.8-1,.6-1.7-.1-2.3-.9-.8-2.4.6-3.6,1.2-.8.6-1.9.5-2.7,0-1.2-1.1-1.3-2.9-.2-4.1,0,0,0,0,0,0,.5-.5,1-.9,1.6-1.3.1-.1.1-.3,0-.4h0Z"/>
    </g>
  </g>
</svg>