<svg xmlns="http://www.w3.org/2000/svg" width="268.476" height="82.78" viewBox="0 0 268.476 82.78">
  <g id="レイヤー_1" data-name="レイヤー 1" transform="translate(-0.003 0.003)">
    <path id="パス_654" data-name="パス 654" d="M198.161.016C198.6,0,199.3-.058,199.524.15c.545.134.469.432.818.67.394.283.681.253.818.8a4.8,4.8,0,0,1,.273,2.544H201.3v.4l-.409.268v.268l-.273.134v.268l-.273.134v.268l-.273.134-.409,1.205h-.136v.268l-.273.134v.268l-.409.268v.268l-.545.4v.134h-.273l-.136.268h-.681l-.409-.536h-.136V7.114c.227-.223.257-.61.409-.937h.136V4.971h.136l.273-1.875h-.136V.686h.136l.545-.67ZM176.9,4.7c.061.283.333,1.042.136,1.473l-.273.134v.268h-.136l-.136.67-.545.4v.268l-.545.4-.136.536-.273.134v.4l-.273.134c-.091.119-.621,1-.545,1.205h.136c.439.446,1.726.208,2.317,0V10.6h.681v-.134l.545-.134v-.134l1.363-.134.136-.268h1.5V9.658l.545-.134V9.391l1.226-.134V9.123h.273V8.989l1.09-.134V8.721h.273V8.587h.409V8.453h.681V8.319h.273V8.185l1.5-.134V7.917h.273V7.783h.409V7.65h.545l.136-.268h.409V7.248h.681V7.114l.545-.134V6.846h.545V6.712h.273l.136-.268h1.908V6.31a3,3,0,0,1,1.5,0c.076.149.363.283.273.536h-.136v.268l-.545.134-.136.268h-.545V7.65h-.273v.134l-.818.134v.134h-.545l-.136.268-.545.134v.134l-.545.134v.134h-.409v.134l-.545.134v.134h-.545v.134l-.545.134v.134h-.954v.134l-.545.134v.134h-.409v.134l-.545.134v.134h-.409V10.6h-.409l-.136.268H184.4V11l-.545.134v.134h-.409V11.4l-1.772-.134V11.4H181.4l-.136.268-1.635.536v.134h-.273l-.136.268h-1.227v.134l-.545.134v.134h-1.09v.134l-.545.134v.134h-.545l-.136.268h-.273v.134h-.681v.134l-.545.134v.134l-.818.134-.545.67-.273.134v.268l-.273.134-.136.536-.273.134v.268l-.273.134-.136.4h-.136l-.136.536-.273.134v.268l-.273.134v.268l-.545.4v.268l-.954.8V20.1l-.273.134-.136.536-.273.134-.136.4h-.136v.268H167.5v.268h-.136v.4h-.136l-.136.536h-.136v.4h-.136l-.273.8h-.136v.67h-.136l-.136.536H166v1.071h-.136v.268h-.136l-.136.8h-.136l-.136.536h-.136l-.136,1.741h-.136v.4h-.136v1.339h-.136v.268H164.5a6.223,6.223,0,0,0,.409,3.348,1.667,1.667,0,0,0,1.363.536s.015-.179.273-.134V35.5a6.1,6.1,0,0,0,2.726-.268V35.1h.409l.136-.268h.545V34.7h.273l.136-.268.818-.268.273-.4h.273l.136-.268h.273l.545-.67h.273l.136-.268.409-.134V32.29h.273l.136-.268h.273l.136-.268h.273l.545-.67h.273l.545-.67h.273l1.772-1.875h.273v-.134l.409-.268v-.268l.681-.536.136-.268h.273l.136-.268.681-.536V26l.681-.4,1.772-1.875,1.635-1.473.681-.8h.273l.681-.8h.273l.273-.4h.136V19.97h.273c.212-.327.151-.089.409-.268l.545-.67h.136v-.268l.273-.134v-.4h.136v-.268l.273-.134.136-.536.273-.134V16.89h.136l.409-.536h.409a3.012,3.012,0,0,1,1.09-.4v.134h.681v.134h.273v.134c.681.342,1.423.4,1.635,1.205h.136c.106.179-.091.863-.136.937h-.136v.268h-.136v.268h-.136l-.136.67-.409.134V20.1h-.273v.134l-.409.134-.818.937h-.273l-.409.536h-.136v.268l-.409.268v.268h-.136l-.273.8h-.136v.937h-.136l-.273.8h-.136v.937a19.726,19.726,0,0,0,.136,3.08l.409.134.273.4h.545v.134l1.09-.134.136-.268.818-.134V29.21h.273v-.134h.273l.273-.268h.273l.136-.268.681-.134v-.134l.818-.268.136-.268.545-.134.136-.268h.273V27.2l.818-.268.409-.536.818-.268.409-.536h.273v-.134h.273l.273-.268h.273l.954-1.071h.273l.136-.268h.273l.273-.4h.273l.681-.8.545-.134.136-.268h.273l.273-.4a3.658,3.658,0,0,1,1.363-.8v-.268h.136l.681-.8h.273l.409-.536,1.226-1.071v-.134l.273-.134v-.268l.545-.4v-.4l.409-.268v-.268l.273-.134.136-.536.273-.134.136-.4h.136l.273-.8,1.227-1.071,1.5-.134v.134l.545.134v.134c.379.3.424.491,1.09.536.212-.342.485-.312.818-.536l.954-1.071h3.271c.2.312.318.193.545.4l.818,1.071v.268h.136v.268h.136v1.339h.136c.212.268.212.238.681.268.348-.461.227-.045.681-.268l.136-.268h.409v-.134l.545-.134v-.134h.273v-.134h.409l.136-.268.545-.134.136-.268.409-.134v-.134l.818-.268.273-.4h.273l.273-.268h.273V13.14h.273v-.134h.273l.136-.268.545-.134.136-.268.681-.134v-.134h.273L231,11.8h.681l.136-.268h.273V11.4h.681v-.134l.818-.268v-.134H234l.136-.268h.954v-.134c.439-.149,2.18-.476,2.589-.134a2.534,2.534,0,0,1,1.09.67l.136.268h.273l.273.4h.136v2.009a1.542,1.542,0,0,0-.409.937v.536l-.273.134v.268h-.136c-.045.268.061.164.136.268.106.432.182.491.681.536a3,3,0,0,1,1.09-.937h.273l.409-.536h.273l.409-.536h.273l.136-.268h.273l1.363-1.473h.273l.136-.268h.273l.273-.4h.273L246.13,11h.273l.273-.4h.273l.136-.268h.273l.409-.536h.273V9.658l.409-.268.136-.268.545-.134.273-.4h.273l.818-.937.818-.268.409-.536h.409V6.712h.273l.136-.268.681-.134.136-.268h.273V5.909h.545V5.775h.818V5.641l.545-.134V5.373H256.9c.3,0,.409-.134.545-.134v.134h.409v.134l.818.268v.134h.273l.681.8V6.98h.136v.268l.273.134.136.67h.136v.268h.136V10.73h.136v.4h.136l.136,1.071h.136v1.071h.136v.268h.136v.536h.136v.268h.136c.3.565.288,1.131.818,1.473v.134c.242.164.394-.06.681.268a6.871,6.871,0,0,0,2.18-.8l.136-.4h.136l.273-.4h.273l.409-.536c.227-.149.318,0,.545-.268.621.119.712.4,1.226.536v.268l.273.134-.136.67h-.136v.268l-.409.268-.136.536-.273.134v.268h-.136a1.066,1.066,0,0,0-.273.536,1.4,1.4,0,0,0-.681.4v.134h-.273l-.273.268h-.273v.134h-.273l-.136.268H264.8v.134h-.273V18.9a2,2,0,0,1-1.227.268c-.53,0-1.469.119-1.772-.134a3.328,3.328,0,0,1-1.5-1.071h-.136l-.273-.8-.273-.134v-.4l-.273-.134V16.22h-.136v-.268H258.8v-.4h-.136l-.136-.536H258.4v-.4h-.136l-.136-.536h-.136V13.14h-.136V11.935h-.136v-.4h-.136V8.855l-.273-.134V8.453h-.136c-.182-.3.061-.193-.273-.4a1.424,1.424,0,0,0-1.09-.268v.134h-.545v.134h-.545v.134l-.545.134v.134h-.545v.134h-.273v.134h-.273l-.136.268h-.273l-.818.937h-.273l-.273.268h-.273v.134h-.273v.134h-.273V10.6h-.409l-.136.268-.818.134-1.5,1.607h-.273l-.273.4h-.409l-.818.937-.273.134v.268l-.273.134-.136.536-1.908,1.741-.136.4L240.407,19.7H240l-.409.536-.818.268-.136.268h-.273l-.136.268h-.273v.134l-1.5-.134c-.469-.833-1.242-1.354-1.363-2.544h.136l.136-.937h.136v-.67l.273-.134.136-1.205h.136l.136-.536h.136l.136-1.339c-.485-.417-.257-.655-1.227-.67v.134h-.273l-.136.268h-.409l-.136.268H234v.134h-.818v.134h-.273l-.136.268h-.409v.134l-.545.134v.134l-.818.134-.136.268h-.409v.134h-.273l-.136.268-.681.134-.136.268h-.273l-.136.268h-.273l-.136.268-.545.134-.136.268h-.273l-.545.67h-.273l-.273.268H226.1v.134h-.273l-.273.268h-.273l-.136.268h-.273l-.273.268h-.273v.134h-.273V18.9h-.273l-.136.268h-.409V19.3l-.818.268a4.153,4.153,0,0,1-.954.536v.268l-.409.268v.268l-.273.268h-.273l-.136.268h-.136l-.136.536-.273.134-.273.8-.273.134v.268l-1.227,1.071L215.741,26.8h-.273l-.136.268-.409.134v.134h-.273l-.136.268h-.273l-.273.4-.818.268-.136.268h-.273v.134h-.273a4.716,4.716,0,0,1-2.317.67c-.318-.342-.833-.4-1.226-.67l-.409-.536h-.273V28l-.409-.268v-.268l-.409-.268-.136-.8a5.514,5.514,0,0,1-.136-2.411c-.379-.208-.333-.372-.954-.4a4.648,4.648,0,0,1-.545.4l-.136.268h-.273l-.545.67h-.273l-.273.4h-.273l-.273.4h-.273l-.681.8-.545.134-.954,1.071h-.273l-.273.4-.545.134-.136.268h-.273l-.409.536h-.273l-.136.268h-.273l-.136.268-.409.134v.134l-.818.268-.273.4h-.409v.134h-.273l-.136.268h-.409v.134l-.545.134v.134h-.409v.134h-.273l-.136.268h-.681l-.136.268h-.409v.134h-.409v.134H192.3l-.136.268h-1.5c-.439,0-.984.06-1.226-.134a.989.989,0,0,1-.545-.268v-.134h-.273l-.273-.4h-.273l-.818-.937v-.4l-.273-.134v-.536h-.136l-.136-2.143a4.9,4.9,0,0,1-.273-1.607h.136a3.614,3.614,0,0,0,.273-1.473,1.2,1.2,0,0,0-.954-.268v.134l-.681.134c-.045.3,0,.357-.136.536h-.136l-.273.8-1.09.937-.136.4-2.862,2.678L176.9,33.5h-.273l-.545.67-.545.134-.545.67h-.273l-.136.268h-.273l-.545.67H173.5l-.136.268h-.273l-.273.4-.545.134v.134H172v.134l-.818.268v.134h-.545l-.136.268h-.409v.134h-.273v.134h-.273l-.136.268H168.18v.134h-.273v.134H167.5v.134a5.633,5.633,0,0,1-2.726-.536l-.136-.268-.681-.134v-.134h-.273l-.136-.268L163,37.111l-.136-.268-.681-.536-.136-.536h-.136v-.4h-.136v-.536h-.136v-.268H161.5v-.4h-.136c-.151-.491.2-.923.273-1.205l-.136-1.205h.136v-.536h.136l.136-1.875a1.812,1.812,0,0,0-.681-.134l-.545.67h-.136l-.136.536-.409.268v.268l-.954.8v.268l-.409.268v.268l-.409.268v.268l-.273.134-.136.536-.409.268-1.09,1.205h-.273l-.409.536h-.136v.268l-.273.134v.268l-.681.536-.136.268h-.273l-.409.536h-.273l-2.317,2.544-2.317,2.143-.818.937h-.273l-.136.268-.409.134-.409.536h-.273l-.409.536h-.273l-.136.268h-.273l-.273.4h-.273l-.545.67h-.273l-.136.268h-.273l-.136.268h-.273l-.136.268h-.273l-.136.268-.545.134-.136.268h-.273l-.273.4H141.2v.134h-.273l-.136.268-.681.134-.136.268-.681.134v.134h-.273V49.3a5.7,5.7,0,0,1-2.18-.134,1.464,1.464,0,0,1-.954-.67h-.136l-.136-.4h-.273l-.273-.268v-.268l-.409-.268-.136-.67h-.136c-.288-.536-.288-.744-1.09-.8l-.818.67v.268l-.818.67-2.18,2.277h-.273l-.545.67h-.273l-.545.67-.818.268-.136.268h-.273l-.136.268h-.273v.134h-.273v.134h-.409v.134h-.273v.134l-1.635-.134V52.11h-.409l-.681-.8-.545-.4-.273-.8h-.136v-.268h-.136V48.9h.136l.136-1.875h.136v-.268l.273-.134.136-1.205.273-.134v-.536h.136l.273-.8h.136l.136-.67.273-.134v-.4h.136v-.268l.273-.134v-.4l.273-.134.136-.536.273-.134.136-.4h.136v-.4l.545-.4v-.268l.954-.8v-.268l.954-.8.273-.4.545-.134.136-.268h.273l.409-.536h.273l.136-.268.545-.134.545-.67h.273v-.134l.818-.268v-.134c.787-.327,3.982.551,4.5.937l.818,1.339c.621.461,1.5-.045,1.772.937h.136c.227.387-.182,1.577-.273,1.741h-.136v.268H138.2v.268h-.136v.268l-.273.268v.268l-.273.134v.8h-.136v.268l-.273.134v.268h-.136a11.082,11.082,0,0,0,.136,2.946,4.362,4.362,0,0,0,2.453.4c.227-.327.106-.089.409-.268v-.134h.273l.273-.4h.273l.136-.268.818-.268.409-.536.545-.134.136-.268h.273l.545-.67L144.2,43l.136-.268h.273l.136-.268h.273l.273-.4h.273l.136-.268h.273l.273-.4h.273l.273-.4h.273l.136-.268h.273l1.227-1.339h.273l2.044-2.143h.273v-.134l.545-.4,1.363-1.473h.273l.273-.4.954-.8c.454-.446.8-1.146,1.5-1.339.151-.551.439-.461.681-.8v-.268l.954-.8v-.268l.545-.4V29.88l.954-.8v-.268l.409-.268v-.268l.954-.8V27.2l.681-.536V26.4l.273-.134.136-.536.954-.8v-.268l.273-.134.136-.536.273-.134.136-.67h.136l.136-.536h.136v-.67l.273-.134v-.268l.273-.268v-.268h.136v-.268h.136v-.268h.136v-.268l.273-.268V19.7l.273-.134V19.3h.136L166,18.1l.409-.268v-.268h.136l-.136-.8-.681-.134v.134h-.409l-.273.4h-.273v.134l-.545.134v.134h-.954v.134H163v.134l-.681.134V18.1h-.273v.134h-.409v.134c-.424.134-.712-.193-.954-.134v.134h-.273l-.136.268H160v.134h-.273V18.9h-.273v.134h-.273v.134h-.954V19.3h-.273l-.136.268h-.409V19.7l-1.635.134-.136.268c-.273.164-.818.134-1.09.268l-.136.268h-.409v.134c-.167-.015-.363-.253-.681-.134v.134h-.273l-.136.268h-.273v.134l-1.772.268-.136.268h-.273v.134h-.273v.134h-.409v.134h-.273v.134h-.681v.134h-.273l-.136.268h-.681l-.136.268-.545.134-.273.4h-.273l-.545.67-.545.134-.273.4-.818.134-.136.268h-.273v.134l-1.908.134v-.134h-.681v.134l-1.09.134a2.318,2.318,0,0,1-.545-1.741c.151-.149.061,0,.136-.268.333-.179.439-.506.681-.67h.273l.136-.268h.273V22.38h.409v-.134l.545-.134v-.134h1.227v-.134l.818-.268v-.134l1.363-.268v-.134h.273v-.134l1.226-.4v-.134h.681l.273-.4,1.635-.268v-.134l.545-.134V19.3l.818-.134v-.134h.273V18.9h.681v-.134l.545-.134V18.5l.954-.134.136-.268.954-.134.136-.268h.409v-.134h.681v-.134h.273v-.134h.409v-.134h.409v-.134h.273l.136-.268h1.09v-.134h.273v-.134l1.227-.268.136-.268h.954l.136-.268h.681v-.134l.818-.134v-.134h.273v-.134h.681v-.134h.273l.136-.268h.545v-.134l.818-.268v-.134H166v-.134h.273v-.134l.818-.134.136-.268h.273v-.134l.681-.134V13.14l.681-.536v-.268l.273-.134v-.268l.273-.134.136-.8.273-.134V10.6h.136v-.4l.273-.134.273-.8.545-.4V8.587l1.09-.937V7.382l.409-.268V6.846l.545-.4V6.176l.545-.4V5.507l.273-.134.409-.536.818-.268V4.436c.666-.238,1.332.179,1.772.268ZM219.42,17.827v.134h-.409V18.1h-.273v.134h-.273v.134l-.818.134v-.134c-.621-.03-.575-.193-.954-.4v-.67h.136l1.09-1.205h.273l.409-.536h.273v-.134c.3-.179.182.06.409-.268a2.17,2.17,0,0,1,1.227.4c.076.268-.015.119.136.268a3.867,3.867,0,0,1-.136.937h-.273a1.859,1.859,0,0,1-.818,1.071Zm-2.726,4.419a5.015,5.015,0,0,0-1.363,1.205l-.681.536-.273.4h-.273l-.273.4h-.273l-.136.268h-.273l-.136.268h-.273v.134l-.545.134v.134c-.485.193-.348-.193-.681.268-1.348,0-.878-.387-1.5-.937l.273-2.411h.136l.136-.536h.136v-.536l.273-.134v-.268h.136v-.4h.136v-.268h.136v-.268l.273-.134.273-.8.273-.134V18.9l.273-.134.136-.536h.136l.273-.4.409-.134a.881.881,0,0,0,.273.268l.136.8h.136v.268h.136v.4h.136V19.7h.136v.268a2.936,2.936,0,0,0,.681.8l.136.268,1.5.268a2.173,2.173,0,0,1,0,.937ZM7.236,28.675v.268l.273.134v2.143H7.373v.268H7.236v.4l-.273.134-.136.4H6.691v.4l-.273.134v.4H6.282v.4H6.146v.268H6.01v.4H5.873v1.339H5.737l-.273,2.812v1.607l-.273.134v.268H5.056v1.071H4.92l-.136.536H4.647v.937H4.511v.268H4.374v.4H4.238l.136,1.205H4.238v.67H4.1v2.009H3.966v.268H3.829L3.693,50.5h.136V52.11H3.693v.536H3.557v.268H3.42L3.284,54.52H3.148v.4H3.012v.67H2.875l.136.8-.136,3.75a4.644,4.644,0,0,0-.409,2.678H2.6v.536h.136V64.43H2.6l.136,2.009h.136l-.136,3.348h.136l-.136,2.946h.136V73.8h.136v.937h.136v.268h.136v.67H3.42v.4h.136v.268h.136c.469,1.071-.379,2.321,1.226,2.41l.409-.536h.136l.136-.67.273-.134.273-.8.273-.134.273-.8.273-.134v-.268l.409-.268.136-.536.273-.134v-.268L8.19,73.8v-.268l.273-.134.136-.536.409-.268v-.4l.273-.134V71.8l.409-.268V71.26l.273-.134.136-.4h.136v-.268l.273-.134v-.268l.273-.134v-.268l.273-.134.273-.8.409-.268V68.18l.273-.268v-.268h.136v-.268l.273-.134v-.4l.409-.268.136-.4H13.1V65.9h.136v-.268h.136v-.268l.273-.268v-.268l.273-.134V64.43l.273-.134v-.268l.273-.134.136-.536.273-.134v-.268l.273-.134.136-.67.409-.268v-.268h.136V61.35l.273-.134.273-.8H16.5l.136-.4.273-.134v-.268h.136l.136-.4.273-.134v-.268l.409-.268.273-.8h.136l.136-.4.273-.134v-.268l.409-.268V56.4h.136v-.268l.273-.134.273-.8.409-.268v-.268l.273-.134.136-.536.273-.134v-.268H21l.136-.4.273-.134V52.78l.545-.4.136-.536.273-.134V51.44l.273-.134v-.268l.273-.134.136-.536.273-.134.136-.536.273-.134V49.3l.545-.4.136-.536h.136v-.268l.273-.134v-.268l.273-.134.136-.536.273-.134v-.268l.409-.268v-.268l.273-.268v-.268l.273-.134.136-.536.273-.134v-.268l.409-.268.136-.536.273-.134L27.814,43l.273-.134.136-.536.409-.268v-.4l.273-.134v-.268l.409-.268.273-.8.954-.8V39.12l.409-.268v-.268l.273-.134v-.268h.136l.136-.4.273-.134v-.268l.545-.4v-.268l.273-.134.136-.4h.136l.136-.536.273-.134.136-.4.409-.268v-.268h.136l.136-.4.273-.134v-.268l.545-.4.136-.536.273-.134v-.268l.409-.268v-.268h.136l.136-.4.273-.134v-.268l.409-.268.136-.536.273-.134V29.88l.545-.4V29.21l.273-.134.136-.536.409-.268V28l.273-.134v-.4l.409-.268.273-.8.273-.134v-.536l.273-.134v-.268h.136v-.4l.273-.134c.288-.461.015-.625.681-.8.227-.253.454-.268.954-.268v.134H42.4l.136.268c.575.372.8.238.818,1.205-.454.312-.3.6-.545,1.071h-.136v.268h-.136l-.136.67L40.352,29.21l-.136.536-.681.536-.136.536-.273.134v.268l-.409.268-.136.536-.409.268v.268l-1.09.937-.273.8-.273.134V34.7l-.273.134V35.1l-.545.4v.268l-.273.134-.136.536-.273.134-.409.536h-.136v.268l-.545.4v.268l-.273.134-.136.536-.273.134v.268l-.409.268-.136.536-.273.134v.268l-.545.4v.268l-.273.134-.136.536-.409.268v.4l-.273.134v.268L30.4,43v.268h-.136l-.136.4-.273.134v.268l-.409.268-.273.8-.545.4v.268l-.273.134v.268l-.273.268v.268l-.273.134-.273.8-.273.134-.136.536-.409.268V48.9l-.409.268-.136.536-.273.134V50.1l-.409.268-.136.536-.818.67v.268l-.409.268v.268l-.681.536-.136.536-.273.134v.268h-.136v.4l-.273.134-.136.4h-.136v.268l-.273.268v.268h-.136v.268h-.136l-.136.536-.273.134V56.8h-.136l-.136.536-.681.536-.136.536-.409.268v.268l-.273.134-.136.67-.273.134-.273.8-.273.134-.136.67-.273.134-.136.536-.273.134v.268l-.409.268-.136.536-.273.134-.136.67h-.136v.268l-.273.134v.268h-.136V65.1h-.136v.268h-.136v.268l-.273.268v.268l-.545.4v.268L15,66.975l-.273.8-.273.134v.268h-.136v.268l-.273.268v.268l-.273.134-.273.8-.273.134-.136.536-.273.134-.136.67-.273.134-.136.67-.273.134-.273.8-.273.134v.4l-.273.134-.273.8-.273.134v.536l-.273.134-.136.536-.273.134v.268H9.826v.268l-.273.134v.268l-.273.134v.268H9.144v.268H9.008v.268l-.273.268v.268l-.273.134v.4H8.326V79.3H8.19v.268H8.054v.268H7.918l-.136.536-.273.134v.268l-.409.268V81.3H6.964l-.273.4H6.419l-.136.268H6.01l-.273.4a3.824,3.824,0,0,1-1.635.4v-.134H3.829l-.273-.4H3.42v-.268l-.273-.134v-.268l-.273-.134V81.17L2.6,81.036,2.467,80.5H2.33v-.268H2.194l-.273-.8H1.785l-.136-.8-.273-.134v-.67H1.24v-.4H1.1L.968,76.081H.831v-.8H.695V75.01H.559V69.117H.422V67.778a17.54,17.54,0,0,1,.136-8.169L.422,57.734H.559V56.663H.695V56.4H.831V52.913H.968V51.708H1.1v-.4H1.24v-.4h.136V48.762h.136v-.268h.136v-3.08h.136l.136-.8h.136v-.268h.136V40.861H2.33v-.536h.136V39.79H2.6c.121-.432-.182-.67-.136-.937H2.6l.136-.937h.136v-.268h.136V35.772h.136l.136-.536H3.42V33.094h.136v-.268h.136l.136-.8h.136V30.549H4.1v-.536h.136V28.808h.136c.288-.6.333-.789,1.226-.8a3.069,3.069,0,0,0,1.635.67Zm98.12-1.205a5.439,5.439,0,0,1,1.772.4l.409.536h.136l.136.536h.136l.136,1.741.409.268a4.135,4.135,0,0,1,.409,2.411c-.545.312-.651.759-1.5.8l-1.09-.937-.545-1.473h-.136v-.268h-.136v-.268h-.136v-.268h-.136v-.268h-.136l-.136-.536-.273-.134v-.4l-.273-.134V28.407c.3-.193.2-.327.409-.536s.348-.1.545-.4Zm29.3,9.776a1.338,1.338,0,0,0,.545.536,2.073,2.073,0,0,1-.273,1.205l-.273.134v.268h-.136l-.273.8h-.136v.536l-.273.134v.268H133.7V41.4h-.136v.268l-.273.268V42.2l-1.226,1.071v.268l-.409.268v.268l-.545.4v.268l-.273.134-.818.937h-.273l-.409.536-.273.134v.268l-.818.536-.136.4h-.273l-.681.8-.545.134-.273.4h-.273v.134c-.273.149-.333.03-.545.268-.7,0-.7-.179-1.09-.4l.136-.8h.136v-.937h.136v-.268h.136l.136-1.071.273-.134.136-.67h.136v-.268l.273-.134.136-.67.273-.134.409-1.205h.136l.136-.4.273-.134v-.4l.273-.134.136-.536.545-.4,1.227-1.339h.273l.409-.536h.273l.136-.268.545-.134.136-.268h.409v-.134h.273v-.134c.515-.268,1-.253,1.363-.67h1.363ZM46.348,66.573h-.273l-.818.937h-.273l-.273.4-1.09.937-1.09,1.339H42.26l-.545.67h-.273l-.136.268h-.273l-1.5,1.607h-.273L39.125,73l-.545.134-.273.4h-.273l-.273.4-.818.268-.136.268H36.4v.134h-.273v.134h-.273v.134H34.9c-1.787,0-1.893-.446-2.589-1.473l-.273-.134V73H31.9v-.4h-.136v-.268H31.63v-.268h-.136a2.2,2.2,0,0,1,.273-1.473l.273-1.339h.136l.136-.536h.136v-.268l.273-.134.136-.67.273-.134v-.268h.136l.136-.67h.136l.136-.4.273-.134.136-.67.409-.268.136-.4h.136l.136-.536.681-.536.136-.536.681-.536v-.268l.545-.4v-.268l.409-.268.136-.536,2.862-2.678v-.268l.818-.67.136-.268h.273l1.5-1.607h.273l.273-.4.545-.134.136-.268h.273l.681-.8h.273l.136-.268.545-.134v-.134l.545-.134v-.134h.409V52.78h.273v-.134a6.447,6.447,0,0,1,2.317.134h.273l1.09,1.205.273.134v.268l.545.4v.134h1.227v.134h.273l.136.268h1.09v.134h.273v.134c.545.432.318.372.545,1.071h.136l-.409,1.875-.273.134v.67H54.8v.268l-.273.134v.4h-.136v.8h-.136v.268h-.136v.4h-.136v2.277h.136v.4l.273.134V64.7h.136v.268h.136c.363.61.257.759,1.227.8v-.134h.273l.136-.268h.273v-.134h.273l.136-.268h.409v-.134h.273V64.7h.273l.409-.536h.273l.273-.4h.273l.273-.4H59.7l1.363-1.473h.273l.136-.268.409-.134V61.35h.273l.273-.4H62.7l3.543-3.616,2.044-1.875V55.19l.681-.536v-.268l.273-.134v-.268l.545-.4v-.268l.681-.536v-.268l.273-.268v-.268h.136v-.268l.273-.134.136-.4h.136a1.318,1.318,0,0,0,0-1.071h-.136c-.151-.551.409-1.175.681-1.339v-.134l.818-.134V48.36h.273v-.134h3.134v.134h.273v.134l.681.134.136.268h.273l.136.268h.273l.136.268.545.4V50.1l.273.134.273.8h.136v.268h.136v.268H79.6l.409,2.411v3.75c.106.3.439.521.545.937l.409.134v.134h.273v.134H82.6c.348-.506,1.09-.372,1.635-.67V58.27h.273l.273-.4L85.6,57.6,86,57.065h.273v-.134l.409-.134.136-.268h.273l1.09-1.205h.273l.136-.268h.273l.409-.536h.273l1.635-1.741h.273l.409-.536.273-.134v-.268l1.09-.937v-.268h.136l.136-.4.273-.134v-.268L95,48.762v-.268l.409-.268v-.268l.409-.268v-.268l.409-.268v-.268l.409-.268v-.268l.273-.134V45.95l.409-.268v-.268l.273-.134.136-.536.681-.536.273-.8.545-.4v-.536l.273-.134.136-.536h.136l.136-.536h.136v-.536l.681-.8h1.09V39.79c.348-.193,1.862.714,1.908.8v.268c.772.833-.727,2.663-.954,3.08l-.136.67h-.136v.268l-.273.134v.268h-.136v.67l-.273.134-.136,1.339h-.136v.268H101.4v.4a5.5,5.5,0,0,0-.273,3.348v.67h.136l-.136.4h.136v.536h.136c.212.417.288.7.681.937v.134h.409v.134h.273v.134h.818v-.134h.136c.106,0,.454.238.818.134v-.134l1.363-.134v-.134l.818-.268v-.134h.273v-.134h.273v-.134h.545v-.134h.273l.273-.4c.242-.134.833-.119,1.09-.268v-.134l.409-.134.136-.268h.273l.136-.268h.273l.409-.536.818-.134.136-.268h.273l.136-.268h.273l.136-.268h.273l.136-.268.545-.134.273-.4h.273l.273-.4h.273l.273-.4.545-.134,3.134-3.214h1.09c.273.461.53.417.545,1.205a3.531,3.531,0,0,0-.681,1.071h-.136v.268l-1.908,1.741L116.531,50.9l-.818.268-.545.67H114.9v.134l-.409.268-.136.268h-.273l-.273.268h-.273v.134h-.273l-.136.268-.818.268-.136.268H111.9l-.273.4-.545.134v.134l-.409.134-.136.268-.681.134-.409.536h-.273v.134H108.9v.134h-.409v.134l-.545.134v.134h-.273l-.273.4h-.681v.134h-.273V56.8c-.379.149-.742.1-1.09.268V57.2h-.273v.134h-3.271c-.257-.372-.56-.3-.954-.536l-.136-.268h-.273l-.136-.268h-.273l-.409-.536-.273-.134v-.268l-.273-.134-.136-.4h-.136l-.136-.8h-.136v-.268h-.136v-.536H98.27v-.4h-.136v-.536H98v-.67h-.136V50.235s-.091-.03-.136-.268a1.812,1.812,0,0,0-.681-.134l-.409.536H96.5v.268l-.409.268v.268l-.818.67v.268L95,52.244v.268l-.545.4v.268l-.545.4v.268l-.681.536L92,55.726l-.409.134-3.271,3.348h-.273l-.545.67h-.273l-.136.268-.681.134-.273.4h-.273v.134H85.6v.134l-.818.134-.136.268-.818.268-.136.268h-.681v.134l-.545.134v.134a5.556,5.556,0,0,1-3-.536v-.134l-.818-.268-.273-.4h-.136v-.268l-.273-.134-.136-.536-.273-.134-.136-.937-.273-.134V58H77.01v-.8h-.136V56.127h-.136V53.181H76.6v-.67h-.136l-.136-.536h-.136v-.268h-.136c-.227-.372.121-.238-.409-.4v-.134H74.83L73.6,52.244v.268l-.409.268v.268l-.273.134-.136.536-.273.134v.268l-.273.134v.268l-.681.536v.268l-.545.4v.268L69.651,57.2l-.136.4-.409.268-.681.8-.681.536v.268l-.409.268v.268l-.273.134v.268l-2.726,2.411-1.5,1.607h-.273l-.136.268-.545.134-.273.4-.409.134-.818.937h-.273v.134h-.273v.134h-.409l-.818.937-.545.134-.136.268h-.409v.134H57.25v.134l-.545.134v.134a5.033,5.033,0,0,1-2.862.134l-.136-.268h-.273l-.409-.536-.954-.8v-.268l-.273-.134v-.268l-.273-.268v-.268H51.39V65.5h-.136v-.268h-.136V62.02c-.379-.208-.242-.327-.818-.4-.212.327-.151.074-.409.268l-.409.536h-.136l-.136.536-.273.134v.268l-.409.268v.268l-.273.134V64.3l-.409.268v.268l-.409.268v.134l-.273.134v.268h-.136c-.257.312-.56.506-.681.937Zm3.271-10.446a2.989,2.989,0,0,0,.681.536l.273.8c-.242.208-.121.268-.273.536h-.136v.268l-.681.536v.268l-.409.268v.268l-1.363,1.205-.136.536-.273.134v.268l-.681.536-.136.4-.409.134v.268l-.545.4v.268l-.273.134v.268l-1.226,1.071L42.8,66.573h-.273l-1.5,1.607h-.273l-.273.4h-.273l-.136.268h-.273l-.545.67h-.273l-.545.67-.409.134-.136.268h-.273v.134l-.409.134-.136.268h-.273l-.409.536h-.681V71.8c-.712,0-.53-.045-.954-.268a5.241,5.241,0,0,1,.273-2.277l.273-.134.136-.67.273-.134v-.4h.136v-.268l.273-.134.273-.8.545-.4v-.268h.136V65.77h.136V65.5h.136v-.268l.273-.268V64.7l1.5-1.339.136-.536.545-.4v-.268h.136l.136-.4.273-.134V61.35L42.8,59.074l1.226-1.339H44.3l.136-.268.818-.268.136-.268.954-.134.136-.268h.681V56.4c.3-.134.333-.03.545-.268h1.908Z" transform="translate(0 0)" fill="#ff9d64" fill-rule="evenodd"/>
  </g>
</svg>
