<?xml version="1.0" encoding="UTF-8"?>
<svg id="_レイヤー_1" data-name="レイヤー 1" xmlns="http://www.w3.org/2000/svg" version="1.1" viewBox="0 0 223 187.8">
  <defs>
    <style>
      .cls-1 {
        fill: #000;
        stroke-width: 0px;
      }
    </style>
  </defs>
  <g id="_グループ_1561" data-name="グループ 1561">
    <g id="_レイヤー_1-2" data-name="レイヤー 1">
      <g id="_グループ_1559" data-name="グループ 1559">
        <path id="_パス_729" data-name="パス 729" class="cls-1" d="M16.2,134c.6.6,1.3,1.4,1.9,2.1l3.5-8.6,1.5.6-1.2,2.9c1.5,1,2.8,2.4,3.6,4,1.3-1.3,2.8-2.6,4.4-3.6l.9,1.7c-1.7,1.1-3.2,2.3-4.6,3.7.6,2.4.3,5.4-.7,9.3-.6,0-1.2,0-1.8.1.9-2.5,1.2-5.3,1-7.9-.8.9-1.6,1.8-2.4,2.6l.5.6-1.2,1.3c-.8-1-1.9-2.3-3.1-3.6l-1.4,3.6-1.3-.5-.2,2.4,6.9,2.8c1,.4,1.4.8,1.5,1.6,0,1.2-.4,2.3-1,3.3-.6-.1-1.3-.2-1.9-.2.5-1.1.9-2.1,1-2.4.1-.3,0-.5-.3-.6l-6.3-2.6-.3,3.6-1.9-.3c.2-1.1.3-2.5.5-4.1l-5.3-2.1-1.3,3.2-1.6-.7,1.3-3.2-4.8-2,.7-1.7,4.8,2,.9-2.3,1.6.7-.9,2.3,4.8,1.9.3-2.6,1.7.4,1.5-3.8c-.7-.7-1.3-1.4-2-2l-2.2,5.4-1.6-.6,1.7-4.2c-1.4-.3-2.8-.5-4.2-.6l.2-1.3-1.4,3.4-1.5-.6,2.3-5.7-2.6-1,.7-1.8,2.6,1,2.4-5.8,1.5.6-1.2,3,.5-.8c1.1,1,2.5,2.2,3.3,3.1l1.8-4.4,1.6.6-3.1,7.6h0ZM9.5,134.3c1.5,0,2.9.2,4.3.5v.7c0,0,1.7-4.3,1.7-4.3l-.3.5c-1.1-1.1-2.2-2-3.4-3l-2.2,5.5ZM19.4,137.4c.7.8,1.4,1.5,2,2.2.9-1.1,1.9-2.2,2.9-3.3-.7-1.5-1.7-2.7-3-3.6l-1.9,4.7h0Z"/>
        <path id="_パス_730" data-name="パス 730" class="cls-1" d="M37.6,119.5c.8.4,1.2.9,1.1,1.6-.3,1.1-.8,2.2-1.4,3.2-.5-.2-1.1-.3-1.7-.3.7-1.1,1.2-2.1,1.4-2.4.2-.3.1-.5-.2-.6l-4.2-2.4-2.9,5.2c2,1.3,3.8,3.1,5,5.1-.5.2-1,.4-1.4.8-1.5-2.8-4.8-4.9-7.3-6.3l-4.2-2.4c.1.3.2.5.3.7-.6.2-1.2.4-1.7.7-1.1-2.9-2.9-5.4-5.2-7.5l1.2-1.4c.5.5.9.9,1.4,1.4l1.4-2.6v-.3c0,0,1.2-.6,1.2-.6.9,1.1,1.6,2.2,2.3,3.3l1.6-2.8,13.2,7.5h0ZM19,116.2c.6.8,1.2,1.6,1.7,2.5l1.4-2.4c-.5-.9-1.1-1.7-1.8-2.4l-1.3,2.4h0ZM24.6,120.6l1.1-1.9-2.5-1.4-1.1,1.9,2.5,1.4ZM26.8,121.8c.5.3,1.1.6,1.7,1l1.1-1.9-2.6-1.5-1.1,1.9.9.5h0ZM26.4,117.5l1.1-2-2.5-1.4-1.1,2,2.5,1.4h0ZM31.3,117.7l-2.6-1.5-1.1,2,2.6,1.5,1.1-2h0ZM45.2,110.4c-.7-.2-1.4-.4-2-.5-1.4,3.4-3,6.9-4.1,9.4l-1.8-.7c.6-1.3,1.3-2.9,2.1-4.7l-4.9-2.8-2.2,3.8-8.4-4.8,2.2-3.8-4.6-2.6.9-1.6,4.6,2.6,2.3-4,8.4,4.8-2.3,4,4.7,2.7,1.2-2.7c-1.2-.2-2.4-.3-3.6-.3l.3-1.6c2.5,0,5,.3,7.4.9l-.3,1.7h0ZM33.1,110.4l-5.5-3.1-1.3,2.3,5.5,3.1,1.3-2.3h0ZM28.4,105.7l5.5,3.1,1.4-2.5-5.5-3.1-1.4,2.5h0Z"/>
        <path id="_パス_731" data-name="パス 731" class="cls-1" d="M38.4,94c-2,.1-4,.5-6,1.1l-.3-1.9c1.9-.6,3.9-1.1,5.8-1.2l.4,2ZM46.1,106c-.9-3-1.9-6-3.2-9l1.9-.4c1.2,2.8,2.5,6.1,3.4,8.8l-2.1.5ZM39.4,81.5c4,.2,8.1-.5,11.8-2,.2.7.4,1.4.7,2-3.7,1.3-7.6,2-11.5,1.8,1.4,3.8,2,7.9,1.7,12-.6-.1-1.3-.1-1.9-.1.4-4.2-.3-8.4-1.9-12.2l1.2-1.5h0ZM58.4,87.8c.8.6,1.1,1.1.9,1.9-.5,1.2-1.2,2.3-2.1,3.2-.6-.3-1.2-.5-1.9-.7.9-1.1,1.7-2.1,1.9-2.4.2-.3.2-.5,0-.6l-3.8-2.9-3.4,4.5,7.6,5.8-1.2,1.5-7.6-5.8-3,3.9-1.4-1.1,8.7-11.4,5.3,4h0ZM47.7,83.1l1.4,1.1-5.5,7.2-1.4-1.1,5.5-7.2Z"/>
        <path id="_パス_732" data-name="パス 732" class="cls-1" d="M67.7,71.2l-4.9,4.9-3.9-3.8,5-5,3.8,3.8c.3-1.5.4-3,.2-4.5-2.4-.8-4.7-2-6.8-3.4l-6.6,6.7,1.6,1.6c2.1,2.1,4.8,5.4,5.2,9.2-.6,0-1.2,0-1.8.2-.4-3.4-2.7-6.2-4.6-8.1l-2.7-2.7,7.7-7.8c-.7-.5-1.4-1.1-2-1.7l1.3-1.3c.6.6,1.3,1.2,2,1.7l3.3-3.4c-1.2.2-2.4.6-3.5,1.2v-1.5c1.1-.6,2.4-1.1,3.8-1.3v1.3c.1,0,2.1-2,2.1-2l1.1,1.1-5.6,5.6c1.6,1.1,3.3,2,5.2,2.8-.3-1.6-.9-3.1-1.6-4.6l1.6-1c1,1.9,1.6,4,2,6.1,2,.5,3.6.3,4.3-.4.4-.5,0-1.3-1.6-3,.6,0,1.2-.2,1.7-.5,2.1,2.5,2.2,3.7,1.1,4.8-1.1,1.1-3,1.4-5.3,1,.1,1.4,0,2.8-.2,4.2-.6,0-1.3,0-1.9,0h0c0,0,0,0,0,0ZM64.4,85.4c.3-2.1-.1-4.2-1.2-6l1.6-.8c1.2,1.9,1.7,4.2,1.5,6.4l-1.9.4h0ZM63,65.8l-5.6,5.6-1-1,5.6-5.6,1,1ZM63.7,69.4l-2.7,2.7,1.9,1.9,2.7-2.7s-1.9-1.9-1.9-1.9ZM74.6,74.4c.8-.8.7-1.2-.9-2.9.6-.1,1.2-.4,1.7-.8,2,2.3,2.1,3.3.5,4.8l-3.6,3.6c-1.9,1.9-2.8,2-4.2.6l-2.9-2.8,1.4-1.4,2.8,2.8c.5.5.7.4,1.7-.6l3.3-3.4h0ZM66.3,73.3c1.7-.6,3.5-1,5.3-1.1v1.8c-1.9,0-3.7.3-5.4.9v-1.7c.1,0,.1,0,.1,0ZM74.1,68c2.3-.3,4.7-.2,6.9.4l-.5,1.9c-2.2-.6-4.6-.8-6.9-.5l.5-1.7Z"/>
        <path id="_パス_733" data-name="パス 733" class="cls-1" d="M74.8,50.9c1.2-1.2,4.8-4.6,8.3-7.9,2.1-1.9,3.9-3.6,5.2-4.7l1.3,1.6c-1.4,1-2.6,2.2-3.7,3.5-1.9,3.2-1.7,7.2.5,10.2,3.1,4,7.9,2.3,11.3-.2l.7,2.2c-3.9,2.8-9.8,4.2-13.4-.3-2.2-2.8-2.8-6.5-1.6-9.9-2,2-6.8,6.6-8.6,8.8l-1.6-1.6c.8-.6,1.4-1.2,1.7-1.5h0ZM92.5,46.2l-.6,1.3c-1.3-.6-2.6-1.2-3.9-1.5l.7-1.3c1.3.4,2.6.9,3.9,1.5h0ZM94.1,43.5l-.7,1.3c-1.3-.6-2.6-1.1-4-1.5l.6-1.3c1.4.4,2.7.9,4,1.4h0Z"/>
        <path id="_パス_734" data-name="パス 734" class="cls-1" d="M102.7,49c.4-3.1.6-6.3.7-9.5l1.9.4c0,3-.1,6.6-.4,9.4l-2.1-.4h0ZM100.4,34.9c-1.9-.7-3.9-1.2-5.9-1.4l.5-1.8c2,.2,4,.6,5.9,1.2,0,0-.5,2-.5,2ZM106.4,23.8c3.6,1.8,7.6,2.8,11.6,2.8-.1.7-.2,1.4-.2,2.1-3.9-.2-7.7-1.2-11.3-2.9-.2,4.1-1.3,8.1-3.2,11.7-.5-.4-1.1-.6-1.7-.9,2-3.7,3.1-7.8,3.1-12l1.7-.9h0ZM121.2,37.2c.5.9.6,1.4,0,2.1-1,.9-2,1.6-3.2,2.1-.4-.5-.9-1-1.4-1.3,1.3-.7,2.3-1.2,2.7-1.5.3-.2.4-.3.2-.6l-2.3-4.2-4.9,2.8,4.7,8.3-1.7.9-4.7-8.3-4.3,2.4-.9-1.6,12.5-7,3.2,5.8h0ZM113.3,28.6l.9,1.6-7.9,4.4-.9-1.6s7.9-4.4,7.9-4.4Z"/>
        <path id="_パス_735" data-name="パス 735" class="cls-1" d="M132.3,16.4c-.5,2.1-1.3,6.9-1.7,9.8.7-1.3,1.8-2.3,3.1-2.8,1.5-.6,3.2.1,3.8,1.6,0,.1,0,.2.1.3.6,1.4,1.2,3.3,1.7,4.5.4,1,1.4,1.5,2.4,1.1,0,0,.1,0,.2,0,2.7-1,3.1-4.9,2.9-7.7l2.1.8c0,4.4-1,7.9-4.6,9.1-2.6.9-4-.4-4.7-1.9-.6-1.4-1.2-3.3-1.7-4.6-.3-.9-1.3-1.4-2.2-1.2,0,0-.1,0-.2,0-2,.7-3.1,3.4-3.4,5.6-.2,2.1-.3,4.2-.1,6.3h-2.4c0-5.6,1.9-17.5,2.4-20.4,0-.7.2-1.4.2-2.2h2.5c-.1.5-.2,1-.4,1.6h0Z"/>
        <path id="_パス_736" data-name="パス 736" class="cls-1" d="M152.5,9.9c.6.8,1.3,1.7,2,2.7,2.8-1.9,6-4,8.7-4.5,3.5-.7,6.1,1,6.6,3.7.6,2.9-.9,5.5-4.9,6.3-1.3.2-2.7.2-4,0l-.3-2c1.2.3,2.5.4,3.8.1,2.8-.5,3.7-2.3,3.3-4.1-.3-1.5-1.7-2.7-4.2-2.2-2.3.4-5.2,2.2-7.9,4.1.5.7.9,1.3,1.4,1.9,2.1,3.2,4.1,6.6,5.9,10l-2.1,1c-1.6-3.4-3.4-6.7-5.4-9.8-.5-.7-.9-1.3-1.4-1.9-1.8,1.3-3.4,2.6-4.5,3.3l-1.4-1.9c.7-.3,1.3-.7,2-1.1.8-.5,1.8-1.1,2.8-1.9-.7-1-1.4-1.9-2-2.5-.4-.5-1.1-1.1-1.6-1.6l1.9-1.2c.3.4.9,1.1,1.2,1.5h0ZM155.4,6.3l1.3-1.3c1.5.8,3,1.6,4.4,2.5l-1.2,1.4c-1.4-1-2.9-1.8-4.4-2.6h0Z"/>
        <path id="_パス_737" data-name="パス 737" class="cls-1" d="M178.9,7.9c.9-2.7,3.5-6.1,6.8-6.3,3.5-.2,6.1,3.1,6.4,8.6.4,7.2-4,10.6-10.3,12.1l-1.3-1.8c5.6-1.1,9.9-3.7,9.5-10.2-.2-4.1-1.8-7-4.5-6.8-3.3.2-6,5.1-6.1,8.5,0,1.1,0,2.1.2,3.2l-2,.3c-.3-1.4-.4-2.7-.5-4.1,0-2.8,0-5.6.4-8.4,0-.8,0-1.5,0-2.2h2.3c-.5,2.4-.7,4.8-.8,7.2h0Z"/>
      </g>
    </g>
    <g id="_レイヤー_1-2" data-name="レイヤー 1-2">
      <g id="_グループ_1560" data-name="グループ 1560">
        <path id="_パス_738" data-name="パス 738" class="cls-1" d="M54.2,173.8l-2.2.9c.2-5.1-.9-8.1-7.5-11l-1-.4-3,6.8,3.9,1.7c.9.4,2,.8,2.2.9l-.9,2.1c-.2-.1-1.2-.6-2.1-1l-3.9-1.7-1.1,2.6c-.4,1-.8,2.1-.9,2.4l-2.1-.9c.5-.7.9-1.5,1.2-2.3l1.1-2.6-3-1.3c-.6-.3-1.2-.5-1.8-.7l.9-2.1c.5.3,1.1.6,1.7.9l3,1.3,3-6.8-3-1.3c-.7-.3-1.3-.5-2-.7l.9-2.1c.6.4,1.2.7,1.9,1l3,1.3,1.1-2.6c.3-.7.6-1.5.8-2.2l2,.9c-.1.3-.6,1.1-1,2.2l-1.1,2.6.9.4c6.3,2.8,9,5.6,9.1,12.1h0Z"/>
        <path id="_パス_739" data-name="パス 739" class="cls-1" d="M46,144.1l5.2-8.8c.4-.7.8-1.4,1.1-2.1l1.9,1.1c-.4.5-.8,1.3-1.3,2l-5.2,8.8c-.4.7-.8,1.4-1.1,2.1l-1.9-1.1c.5-.6.9-1.3,1.3-2h0ZM59.6,135.7c2,2,3.5,4.4,4.4,7,1,3.5,1,7.3,0,10.8l-2.4.5c1.2-3.3,1.4-6.9.5-10.3-.6-2.1-1.8-4-3.4-5.6l-7,11.9c-.3.5-.8,1.4-1.2,2.2l-1.9-1.1c.5-.7,1-1.4,1.4-2.1l7-11.8c.3-.4.5-.9.5-1.3l1.6-.8c.1.2.3.5.5.7h0Z"/>
        <path id="_パス_740" data-name="パス 740" class="cls-1" d="M69,129.4l-.6,2c-2-.7-4-1.2-6.1-1.7l.6-2c1.2.3,4.7,1.2,6.1,1.6h0ZM71.2,123.8l-.6,1.9c-1.9-.7-3.8-1.3-5.7-1.8l.6-1.9c1.1.3,4.6,1.3,5.7,1.7h0ZM73.1,116.6c1.9,2.2,3.4,4.9,4.2,7.7.9,3.5.8,7.1-.2,10.5l-2.4.3c1.2-3.2,1.4-6.7.7-10.1-.9-3.1-2.6-6-5-8.2l1.9-1.4c.3.5.6.8.8,1.1h0Z"/>
        <path id="_パス_741" data-name="パス 741" class="cls-1" d="M83.1,105c.6-2.8,1.5-5.8,2-7.4.2-.7.3-1.4.4-2.2l2.1.4c-.1.7-.4,1.4-.6,2.2-.9,2.9-1.7,5.8-2.3,8.7-.5,2.8-.3,5.1,1.1,6.4,1.6,1.5,4,.9,6.8-2,1.9-2,3.6-4.2,5.1-6.6l1.7,1.6c-1.6,2.3-3.3,4.4-5.2,6.4-3.4,3.5-6.9,5.1-9.7,2.4-1.9-1.8-2.3-4.5-1.8-7.9-2.8-.8-5.7-1.7-8.4-2.8l.8-2.1c2.6,1.1,5.3,2.1,8,2.8h0Z"/>
        <path id="_パス_742" data-name="パス 742" class="cls-1" d="M95.2,86c1.8,2.3,5.6,7.1,8.1,10.1,1.9,2.2,3.9,1.8,5.8.2,3.6-3.1,3.9-6.9,3.6-10.1l2.3.4c.5,4.3-1.2,8.6-4.6,11.4-2.9,2.4-5.8,2.9-8.6-.3-2.5-2.9-6.6-8.1-8.3-10.2-.6-.7-1.2-1.3-1.9-1.9l2-1.7c.5.7,1,1.5,1.5,2.1h0Z"/>
        <path id="_パス_743" data-name="パス 743" class="cls-1" d="M118.1,67.4c.2.5.5,1.2.7,1.8,1.3-1.1,2.5-2.2,3.7-3.5l1.1,1.7c-1.3,1.3-2.6,2.5-4.1,3.7.4,1.1.8,2.3,1.2,3.4,1.3,4,2.4,8.1,3,12.2l-2.3.6c-.4-4.1-1.3-8.2-2.6-12.1-.3-.9-.6-1.8-.9-2.7-.7.5-1.4,1-2,1.4-1,.6-1.8,1.1-2.6,1.5l-1.2-1.7c.9-.5,1.9-1,2.7-1.5.7-.5,1.5-1,2.3-1.6-.3-.9-.7-1.6-.9-2.1-.3-.7-.7-1.3-1.1-1.9l2.2-1.2c.2.6.5,1.5.7,2h0ZM128.5,78c.7,1,1.9,1.7,5-.3,1.4-.9,2.8-2,4-3.2l1.1,1.8c-1.3,1.1-2.6,2.1-4,3-3.5,2.2-6,2.4-7.4.2-.5-.9-1-1.8-1.3-2.8l1.7-.9c.2.8.5,1.5,1,2.2h0ZM127.6,68c1.3-.8,2.6-1.6,3.9-2.2l1,1.7c-1.3.6-2.6,1.3-3.8,2.1-1.4.9-2.7,1.8-3.9,2.8l-1-1.6c1.1-.9,2.5-1.9,3.9-2.8Z"/>
        <path id="_パス_744" data-name="パス 744" class="cls-1" d="M150.6,70c.4,1,.4,1.6,0,2.1-.9.8-1.9,1.3-3,1.7-.3-.6-.8-1.1-1.2-1.5,1.1-.4,2.1-.8,2.4-1,.3-.2.4-.3.2-.6l-2.4-5.7-3.7,1.5c1,2.8,1.6,5.8,1.6,8.9-.6-.2-1.2-.3-1.9-.3.3-4.1-1.6-8.8-3.1-12.4l-3.6-8.6,6.9-2.9,7.8,18.7h0ZM145.8,63.3l-1.7-4-3.6,1.5.6,1.3c.3.8.7,1.7,1.1,2.7l3.6-1.5ZM138.2,55.1l1.6,3.9,3.6-1.5-1.6-3.9-3.6,1.5ZM162,65.5c.2,0,.3-.2.4-.4,0-.1,0-.4-.1-.9s-.6-1.7-1.3-3.2c.6.2,1.2.3,1.8.2.5,1.2.9,2.4,1.2,3.6.2.5.1,1.1,0,1.6-.3.4-.7.7-1.1.9l-1.2.5c-.5.2-1.1.2-1.6,0-.5-.2-.8-.6-1.6-2.6l-6.6-15.6-4,1.7,3.5,8.4c1.5,3.5,3.1,8.3,2.1,12.2-.6-.2-1.3-.4-1.9-.5,1-3.6-.5-7.7-1.9-11l-4.2-10.1,7.5-3.1,7.3,17.5c.3.8.5,1.2.7,1.3.1,0,.3,0,.4,0l.6-.3h0Z"/>
        <path id="_パス_745" data-name="パス 745" class="cls-1" d="M177.9,61.4c.2.9.1,1.5-.4,1.9-1,.6-2.2.9-3.3,1.1-.2-.5-.5-1-.9-1.4,1.3-.3,2.4-.5,2.7-.6.3,0,.4-.2.4-.6l-1.1-4.7-5.8,1.3c.4,2.4.3,4.8-.4,7.2-.5-.3-1-.4-1.5-.5,1-3,.3-6.8-.3-9.6l-1.1-4.7c-.1.3-.2.5-.3.7-.5-.3-1.1-.6-1.7-.8,1.3-2.8,2-5.8,2-8.9h1.8c0,.7,0,1.3-.1,2l2.9-.7.3-.2,1.2.5c-.2,1.3-.5,2.7-.9,4l3.1-.7,3.4,14.8h0ZM168.9,55c.1.6.3,1.2.4,1.9l2.2-.5-.7-2.9-2.1.5.2,1ZM168.3,52.5l2.1-.5-.6-2.8-2.1.5.6,2.8ZM174.9,55.6l-.7-2.9-2.2.5.7,2.9,2.2-.5ZM167.7,45.4c-.2,1-.4,2-.6,2.9l2.7-.6c.3-1,.5-1.9.6-2.9l-2.7.6ZM189.7,60.8c-.3-.6-.6-1.3-1-1.9-3.5,1.3-7.1,2.5-9.7,3.4l-.7-1.8c1.4-.4,3-1,4.9-1.6l-1.3-5.4-4.3,1-2.2-9.5,4.3-1-1.2-5.1,1.7-.4,1.2,5.1,4.5-1,2.2,9.5-4.5,1,1.2,5.3,2.8-1c-.7-1-1.4-1.9-2.2-2.9l1.4-.8c1.7,1.8,3.2,3.9,4.3,6.1l-1.5,1h0ZM171.7,51.8l2.2-.5-.6-2.8-2.2.5.6,2.8ZM181.6,51.9l-1.4-6.2-2.6.6,1.4,6.2,2.6-.6ZM181.9,45.3l1.4,6.2,2.8-.7-1.4-6.2s-2.8.7-2.8.7Z"/>
        <path id="_パス_746" data-name="パス 746" class="cls-1" d="M198,44.4c.8-2.7,3.3-6.2,6.5-6.5,3.4-.3,6.2,2.9,6.7,8.4.6,7.2-3.6,10.8-9.9,12.5l-1.4-1.8c5.5-1.3,9.8-4,9.2-10.5-.4-4.1-2-6.9-4.7-6.7-3.2.3-5.8,5.3-5.9,8.7,0,1.1,0,2.1.3,3.2l-2,.3c-.3-1.4-.5-2.7-.6-4.1-.1-2.8-.1-5.6,0-8.4,0-.8,0-1.5,0-2.2h2.3c-.4,2.3-.6,4.7-.6,7.2h0Z"/>
      </g>
    </g>
  </g>
</svg>