<?xml version="1.0" encoding="UTF-8"?>
<svg id="_レイヤー_1" data-name="レイヤー 1" xmlns="http://www.w3.org/2000/svg" version="1.1" viewBox="0 0 223 171.2">
  <defs>
    <style>
      .cls-1 {
        fill: #000;
        stroke-width: 0px;
      }
    </style>
  </defs>
  <g id="_グループ_1564" data-name="グループ 1564">
    <g id="_レイヤー_1-2" data-name="レイヤー 1">
      <g id="_グループ_1562" data-name="グループ 1562">
        <path id="_パス_747" data-name="パス 747" class="cls-1" d="M27.5,60.1c1.4-1.8,2.5-3.7,3.4-5.8l1.3.7c-.9,2.2-2.1,4.2-3.5,6.2l-1.2-1h0ZM34.7,50.3l1.8.6-7.8,22.4-1.8-.6s7.8-22.4,7.8-22.4ZM35.2,60.6c0-1.7,0-3.5-.2-5.2h1.5c.3,1.6.4,3.3.3,5l-1.6.2ZM42.7,67.6c0,4.1,1.4,7.9,4.3,10.3-.7.3-1.3.7-1.9,1.2-2.9-2.7-4.1-6.5-4.2-10.8-2.2,3.3-5.8,5.5-9.7,6-.2-.7-.5-1.3-.8-1.9,5-.6,7.7-3.1,9.4-5.9l-5.7-2,.6-1.7,6,2.1c.5-1,.8-2,1.2-3l.9-2.5-4.8-1.7.6-1.7,4.8,1.7,1.4-3.9,1.8.6-1.4,3.9,5.5,1.9-2.5,7.3,2.1.7-.6,1.7-6.9-2.4h0ZM43.7,62.6c-.3,1-.7,2-1.2,3l3.8,1.3,1.9-5.6-3.7-1.3-.9,2.5h0Z"/>
        <path id="_パス_748" data-name="パス 748" class="cls-1" d="M61.3,67c-.3-2-.8-3.9-1.7-5.7l1.8-.3c.9,1.8,1.5,3.7,1.8,5.7l-1.9.4h0ZM56.3,78.5c.2,2.3,1.9,4.1,4.5,5.6,2.5,1.4,7.9,4,10.7,5.3-.5.4-1,.9-1.4,1.4-2.7-1.2-7.6-3.6-10.1-5.1-3-1.7-4.7-3.5-5.2-6.1-1.5.5-3.1.9-4.7,1.3v-2.1c1.5-.3,3-.6,4.5-1.1l3-5.9-2.9-1.5.8-1.6,4.6,2.3-3.8,7.5h0ZM68,67.8l-3.7-1.9.7-1.4,6.4,3.2,1-2,1.7.9-1,2,6.7,3.4-.7,1.4-3.6-1.8.5.5c-.8.6-1.7,1.2-2.4,1.6l3.4,1.7-5.2,10.2c-.4.8-.8,1.2-1.6,1.2-1.1-.2-2.1-.7-3.1-1.2.2-.6.2-1.2.2-1.8,1,.6,1.9,1,2.2,1.2.3.1.4,0,.5-.2l4.5-8.8-4.4-2.2-.8,1.6,3.5,1.8-.6,1.2-3.5-1.8-.8,1.7,2.5,1.3-2.1,4.2-4.9-2.5-.4.9-1.3-.6,2.6-5.1,2.4,1.2.8-1.7-3.5-1.7.6-1.2,3.5,1.7.8-1.6-4.2-2.1-5.4,10.7-1.6-.8,6.1-12,3,1.5c.2-.9.2-1.8.1-2.7l.9.2h0ZM72.2,72.8c.8-.5,1.6-1.1,2.3-1.8l-5.7-2.9c0,.9,0,1.9-.2,2.8h-.5c0-.1,4.3,2.1,4.3,2.1l-.2-.2h0ZM68.9,79.8l-3.7-1.9-1,2,3.7,1.9,1-2Z"/>
        <path id="_パス_749" data-name="パス 749" class="cls-1" d="M91.8,83.2c1.3.6,2.6,1.1,3.9,1.5l-1,1.6c-1.5-.5-3-1.1-4.5-1.9-3.3,2.4-7,4.4-10.9,5.9l-1.1-2c3.6-1.1,7-2.8,10.1-4.9-.7-.4-1.3-.8-2-1.2-.8-.5-1.7-1.2-2.5-1.8l1-1.7c.8.7,1.6,1.3,2.5,1.9.8.5,1.6,1,2.5,1.5,1.2-1,2.2-2.1,3.2-3.3l1.8,1.5c-.7.6-1.9,1.8-3.1,2.8h0ZM93.9,92.8c-.5.8-1.4,2.3-2.2,3.6,1.2,1.7,2.1,3.7,2.7,5.7l-1.9.8c-.4-1.7-1-3.3-1.8-4.8-.2.4-.4.7-.6.9-1.2,1.7-3.2,2.4-5.9.6-2.4-1.6-3.6-3.9-2.2-6,1.3-2,4.1-2,6.5-.3.7.5,1.4,1,2,1.6,1.1-1.8,2.5-4,3.5-5.6l1.7,1.1c-.6.9-1.1,1.5-1.6,2.3h0ZM84.9,98c1.8,1.2,3,.7,3.8-.5.2-.3.4-.6.6-1-.6-.7-1.2-1.3-2-1.8-1.6-1.1-3.1-1.1-3.8,0-.7,1-.3,2.3,1.3,3.4h0ZM96.5,87.7l1.8-.7c1.2,2,2.2,4.1,3.1,6.3l-1.9.8c-.7-2.2-1.7-4.3-2.9-6.3h0Z"/>
        <path id="_パス_750" data-name="パス 750" class="cls-1" d="M109.9,104.2c-.5.2-1,.5-1.5.7l9.8,8.7-7.3,8.3-1.5-1.3.6-.7-8.1-7.2-.6.7-1.4-1.3,5.4-6.2c-2.2.6-4.5.9-6.8.7,0-.7,0-1.4-.1-2,3.5.4,6.9-.3,10-1.9l-4.1-3.6,1-1.2,7.7,6.8,1.2-1.3-5.9-5.2,1-1.1,5.9,5.2,1.2-1.3-6.7-6,1-1.2,3.6,3.1c.2-.9.3-1.8.3-2.7l1.6.7c0,1.1,0,2.2-.4,3.3h-.3c0-.1,5.1,4.4,5.1,4.4v-.3c.9-.2,2-.5,3-.9l1.1,1.8c-1,.2-2,.4-2.8.5l3.7,3.3-1,1.2-6.8-6-1.2,1.3,5.9,5.3-1,1.1-5.9-5.3-1.2,1.3,7.7,6.8-1,1.2-11.1-9.8h0ZM111,118.8l1.1-1.2-8.1-7.2-1.1,1.2,8.1,7.2ZM113.9,115.5l-8.1-7.2-1,1.2,8.1,7.2,1-1.2ZM107.6,106.2l-1,1.2,8.1,7.2,1-1.2s-8.1-7.2-8.1-7.2Z"/>
        <path id="_パス_751" data-name="パス 751" class="cls-1" d="M129.1,121c-3,1.8-6.7,3.7-9.8,3.8l-.2-2c2.9,0,6.3-1.7,9.2-3.5l.9,1.7h0ZM133.7,122.9l-10.2,8c-.9.7-.9,1.1,0,2.2l3,3.8c1,1.2,1.8.8,5.5-1.8,0,.7.1,1.3.4,2-4,2.8-5.5,3.2-7.2,1l-3.1-4c-1.7-2.2-1.6-3.2.4-4.8l10.2-8,1.2,1.5h0ZM139,118.1c1.1,3.1,1.8,6.4,2.1,9.6h-2.1c-.2-3.2-.9-6.5-2-9.7h1.9s0,0,0,0ZM139.2,131.9c-.8,3.5-2.4,6.8-4.5,9.8l-1.9-.9c2.1-2.9,3.7-6.2,4.7-9.7l1.7.8h0Z"/>
        <path id="_パス_752" data-name="パス 752" class="cls-1" d="M141.3,148.2c.8.7,1.7,1.3,2.5,2l-1.3,1.2c-2.4-1.8-5-3.8-6.9-5.3l1.3-1.6c.8.7,1.8,1.6,2.9,2.5l7.3-3.9-1.6-2.9,1.6-.9,1.6,2.9,5.2-2.8.9,1.6-5.2,2.8,1.4,2.7-1.6.9-1.4-2.7-6.6,3.6h0ZM143.3,164.2c.7,1.3,1.5,1.2,4.2,0,0,.6,0,1.3.2,1.9-3.3,1.4-4.6,1.4-5.8-1l-3-5.6c-1.4-2.6-1.2-3.7,1.3-5l7.2-3.9-1.7-1.4,1.1-1.5,2.4,1.9,6.2-3.4.9,1.6-5.5,3,2.9,2.4,6.4-3.4.9,1.6-5.7,3.1,2.9,2.3.5.2.4.2.2,1.4h-.4c-2.8,1.7-5.7,3.2-8.7,4.5-.7.4-1.6.2-2.2-.4-.5-.6-1-1.3-1.3-2.1.5-.3.9-.7,1.2-1.2.3.6.7,1.3.8,1.5.2.3.4.5,1,.4.6-.2,3.2-1.5,6.8-3.5l-3.1-2.5-8.4,4.5-.9-1.6,7.7-4.2-3-2.4-7.9,4.3c-1.2.7-1.4,1.1-.5,2.6l3,5.5h0Z"/>
      </g>
    </g>
    <g id="_レイヤー_1-2" data-name="レイヤー 1-2">
      <g id="_グループ_1563" data-name="グループ 1563">
        <path id="_パス_753" data-name="パス 753" class="cls-1" d="M37.5,18.2c-.5.7-1,1.6-1.6,2.4l9.2,1.3-.2,1.6-3.1-.4c-.6,1.7-1.7,3.3-3,4.5,1.6,1,3.1,2.1,4.5,3.4l-1.4,1.3c-1.5-1.4-3-2.6-4.7-3.6-2.2,1.1-5.2,1.6-9.2,1.5,0-.6-.3-1.2-.5-1.7,2.7.3,5.4,0,7.9-.9-1-.6-2.1-1.2-3.1-1.7l-.5.7-1.6-.8c.8-1,1.8-2.4,2.8-3.9l-3.8-.6.2-1.4-2.3.4-1.1,7.3c-.2,1.1-.5,1.6-1.2,1.8-1.1.2-2.3.1-3.5-.2,0-.6-.1-1.3-.3-1.9,1.1.2,2.2.4,2.5.4.3,0,.5,0,.5-.4l1-6.8-3.6.5-.2-1.9c1.1-.1,2.5-.3,4-.5l.8-5.6-3.5-.5.3-1.8,3.5.5.8-5.1,1.8.3-.8,5.1,2.5.4-.3,1.8-2.5-.4-.7,5.1,2.6-.4v1.7s4.1.6,4.1.6c.5-.8,1-1.6,1.5-2.4l-5.8-.8.2-1.7,4.5.7c0-1.4-.1-2.8-.4-4.2h1.3c0,0-3.6-.6-3.6-.6l.2-1.6,6.1.9.4-2.8,1.9.3-.4,2.8,6.2.9-.2,1.6-3.2-.5.9.3c-.7,1.4-1.6,2.9-2.2,4l4.7.7-.2,1.7-8.1-1.2h0ZM35.6,11.8c.3,1.4.5,2.9.5,4.3h-.7c0,0,4.6.8,4.6.8l-.6-.2c.8-1.3,1.5-2.6,2.1-4l-5.9-.9h0ZM34.9,22.1c-.6.9-1.2,1.7-1.7,2.5,1.3.6,2.6,1.3,3.9,2,1.3-1,2.2-2.3,2.8-3.8l-5-.7Z"/>
        <path id="_パス_754" data-name="パス 754" class="cls-1" d="M56.2,36.1c-.3.9-.6,1.3-1.3,1.4-1.2,0-2.3-.2-3.4-.7,0-.6,0-1.1,0-1.7,1.3.4,2.3.7,2.7.8.3,0,.5,0,.6-.3l1.3-4.6-5.7-1.6c-.8,2.3-2.1,4.4-3.8,6.1-.3-.4-.7-.8-1.1-1.2,2.4-2.2,3.6-5.8,4.4-8.6l1.3-4.6c-.2.2-.4.3-.7.5-.3-.5-.7-1-1.1-1.5,2.5-1.8,4.6-4.1,6-6.8l1.6.9c-.4.6-.7,1.1-1.1,1.7l2.8.8h.4s.8,1,.8,1c-.8,1.1-1.7,2.1-2.7,3l3.1.9-4.2,14.6h0ZM55,17.2c-.6.8-1.3,1.6-2,2.3l2.7.8c.7-.7,1.4-1.5,2-2.3l-2.6-.8h0ZM52,23.7l2.1.6.8-2.8-2.1-.6s-.8,2.8-.8,2.8ZM51.3,26.2c-.2.6-.3,1.2-.6,1.8l2.1.6.8-2.9-2.1-.6s-.3,1-.3,1ZM55.4,24.7l2.2.6.8-2.8-2.2-.6-.8,2.8ZM56.4,29.6l.8-2.9-2.2-.6-.8,2.9,2.2.6ZM66.8,41.3c0-.7,0-1.4,0-2.1-3.7-.6-7.4-1.3-10.1-1.7l.3-1.9c1.4.3,3.1.6,5.1,1l1.5-5.4-4.2-1.2,2.7-9.3,4.2,1.2,1.4-5.1,1.7.5-1.4,5.1,4.4,1.3-2.7,9.3-4.4-1.3-1.5,5.2,2.9.5c-.1-1.2-.3-2.4-.6-3.6h1.6c.6,2.4.9,4.9.8,7.4,0,0-1.8.1-1.8.1ZM64,29.6l1.7-6.1-2.6-.7-1.7,6.1s2.6.7,2.6.7ZM67.4,24l-1.7,6.1,2.8.8,1.7-6.1-2.8-.8Z"/>
        <path id="_パス_755" data-name="パス 755" class="cls-1" d="M80.6,31.5c-.6-1.9-1.4-3.8-2.5-5.5l1.8-.7c1.1,1.7,1.9,3.5,2.6,5.4l-1.9.8h0ZM70.7,41.9c2.8-1.6,5.4-3.3,8-5.2l.8,1.7c-2.4,1.8-5.4,3.9-7.8,5.4l-1-1.9h0ZM93,29.6c.7,4,2.3,7.7,4.7,11-.6.3-1.2.7-1.8,1.1-2.2-3.3-3.7-6.9-4.5-10.7-3.4,2.3-7.2,3.8-11.3,4.5,0-.6-.2-1.3-.4-1.9,4.1-.6,8.1-2.2,11.4-4.7l1.7.8h0ZM91.3,49.5c-.4.9-.8,1.4-1.6,1.4-1.3-.2-2.5-.7-3.6-1.3.2-.6.2-1.3.2-2,1.3.6,2.4,1.1,2.8,1.2.4.2.5,0,.6-.2l1.9-4.4-5.2-2.3-3.8,8.7-1.7-.8,3.8-8.7-4.5-2,.7-1.7,13.1,5.8-2.7,6.1h0ZM93.4,38l-.7,1.6-8.3-3.7.7-1.6,8.3,3.7Z"/>
        <path id="_パス_756" data-name="パス 756" class="cls-1" d="M109.6,54.7l-6-3.6,2.8-4.6,6,3.7-2.8,4.6c1.5,0,3-.3,4.4-.8.2-2.5.8-5,1.7-7.4l-8.1-4.9-1.2,2c-1.6,2.6-4.1,5.9-7.7,7.2,0-.6-.3-1.2-.6-1.8,3.3-1.2,5.4-4.1,6.8-6.4l2-3.3,9.4,5.7c.4-.8.7-1.6,1.2-2.4l1.6,1c-.4.8-.8,1.6-1.2,2.4l4,2.5c-.5-1.1-1.2-2.2-2-3.1l1.5-.5c.9,1,1.7,2.2,2.2,3.5l-1.2.4,2.5,1.5-.8,1.4-6.8-4.1c-.7,1.8-1.2,3.7-1.5,5.7,1.5-.7,2.8-1.6,4.1-2.6l1.3,1.3c-1.7,1.4-3.5,2.5-5.5,3.4,0,2.1.5,3.6,1.4,4.1.6.3,1.3-.3,2.6-2.3.2.6.5,1.1.8,1.5-1.9,2.6-3,3-4.4,2.2-1.4-.8-2.1-2.6-2.2-4.9-1.3.4-2.7.7-4.1.8-.1-.6-.3-1.3-.5-1.9h0s0,0,0,0ZM95,54.8c2.1-.2,4.1-1.1,5.6-2.5l1.1,1.3c-1.6,1.6-3.7,2.6-5.9,2.9l-.8-1.7h0ZM113.8,48.8l-6.8-4.1.7-1.2,6.8,4.1-.7,1.2ZM110.4,50.4l-3.3-2-1.4,2.3,3.3,2,1.4-2.3ZM108.1,62.1c1,.6,1.3.4,2.6-1.6.3.6.7,1.1,1.1,1.5-1.8,2.5-2.7,2.8-4.5,1.7l-4.3-2.6c-2.3-1.4-2.6-2.2-1.6-3.9l2.1-3.4,1.6,1-2.1,3.4c-.3.6-.2.8,1,1.5l4,2.5h0ZM107.3,53.8c1,1.5,1.8,3.1,2.2,4.9l-1.8.4c-.4-1.8-1.2-3.4-2.1-5l1.6-.3h0ZM114.2,60.1c.8,2.2,1.3,4.5,1.2,6.8h-2c0-2.4-.3-4.7-1.1-6.9h1.8c0,0,0,0,0,0Z"/>
        <path id="_パス_757" data-name="パス 757" class="cls-1" d="M131,56.8c1.4.9,5.6,3.5,9.6,6.2,2.4,1.6,4.4,3,5.8,4l-1.3,1.6c-1.3-1.1-2.7-2-4.3-2.8-3.5-1.1-7.4,0-9.8,2.8-3.1,4-.4,8.2,2.8,10.9l-1.9,1.2c-3.7-3.1-6.4-8.5-2.8-13.1,2.2-2.8,5.7-4.2,9.2-3.9-2.4-1.5-8-5.1-10.6-6.3l1.2-1.9c.8.6,1.5,1.1,1.9,1.3h0ZM139.7,72.9l-1.4-.3c.3-1.4.5-2.8.6-4.2l1.4.4c0,1.4-.3,2.8-.6,4.2ZM142.7,73.9l-1.5-.3c.3-1.4.5-2.8.5-4.2l1.4.3c0,1.4-.2,2.8-.4,4.2h0Z"/>
        <path id="_パス_758" data-name="パス 758" class="cls-1" d="M145.9,90.7c-2.7-.8-5.3-2-7.8-3.5,0-.6,0-1.3,0-1.9,2.3,1.5,4.7,2.6,7.3,3.4l.4,2h0ZM156.5,99.6l-15.6-16.7,1.2-1.1,15.6,16.7-1.2,1.1h0ZM158.9,80.2l-6.6-7,1.2-1.1,6.6,7,1.6-1.5,1.3,1.4-1.6,1.5,6.7,7.2-1.2,1.1-6.7-7.2-1.3,1.2,4.9,5.2-7.5,7-10.6-11.4,7.5-7,4.4,4.8s1.3-1.2,1.3-1.2ZM157.3,91.5l-8.1-8.6-1.3,1.2,8.1,8.6,1.3-1.2ZM159.5,89.5l-8.1-8.6-1.3,1.2,8.1,8.6,1.3-1.2ZM161.6,87.5l-8.1-8.6-1.2,1.2,8.1,8.6,1.2-1.2h0ZM150.8,94.2c1.2,2.6,2.3,5.2,3.2,7.9l-2.1-.3c-.8-2.6-1.8-5.2-2.9-7.7h1.7c0,0,0,0,0,0Z"/>
        <path id="_パス_759" data-name="パス 759" class="cls-1" d="M172.3,117.9c-2.3-.2-4.6-.9-6.6-2.1.9,3.2,2.2,6.3,3.8,9.1-.7,0-1.4,0-2.1,0-1.8-3.3-3.1-6.8-3.8-10.5-3.1-2.4-5.8-5.1-8.2-8.2.4-.5.7-1,.9-1.5,2,2.8,4.4,5.3,7,7.4,0-1.6,0-3.2.5-4.7-1.6-.8-3.2-1.8-4.7-2.9.3-.5.4-1.1.5-1.7,2.3,2,5,3.4,8,4.2l-2.5-3.8,8-5.2,3.7,5.7c.5-.2,1-.3,1.4-.5l-5.3-8.2,1.4-.9,11.9,18.4-1.3.9-5.5-8.5c-.6.1-1.1.2-1.5.3l4.4,6.8-8,5.2-5.4-8.4c-.6,0-1.3-.2-1.9-.4l4.9,7.6.3.2v1.5s0,0,0,0ZM167.3,104.1l7.1,11,1.3-.8-7.1-11-1.3.8ZM169.7,102.6l7.1,11,1.3-.8-7.1-11-1.3.8ZM165.4,108.6c-.4,1.6-.4,3.3-.1,5,1.5,1,3.1,1.8,4.8,2.3l-4.7-7.3ZM172,101.1l7.1,11,1.3-.8-7.1-11-1.3.8Z"/>
        <path id="_パス_760" data-name="パス 760" class="cls-1" d="M189.6,120.9c.9,1.5,3.3,5.8,5.6,10,1.4,2.5,2.5,4.7,3.3,6.2l-1.9.8c-.6-1.6-1.4-3.1-2.4-4.5-2.6-2.7-6.5-3.5-9.9-2.1-4.6,2-4.2,7-2.6,11l-2.3.2c-1.8-4.5-1.6-10.5,3.7-12.9,3.3-1.4,7-1.1,10,.9-1.4-2.4-4.6-8.2-6.3-10.6l2-1.1c.4.9.8,1.6,1,2.1h0ZM189.7,139.2l-1.1-1c.9-1.1,1.8-2.2,2.5-3.4l1.1,1c-.7,1.2-1.6,2.3-2.4,3.4h0ZM191.9,141.5l-1.1-1c.9-1.1,1.7-2.2,2.5-3.5l1.1.9c-.7,1.2-1.5,2.4-2.4,3.5h0Z"/>
        <path id="_パス_761" data-name="パス 761" class="cls-1" d="M205.3,151.3c-.7.1-1.6.2-2.7.4.5,1.7,1.1,3.4,1.8,5l-1.9.5c-.6-1.6-1.2-3.3-1.7-5,0,0,0-.1,0-.2-1.5.2-3.2.5-4.7.7,0,.2,0,.3.1.5.5,1.7,1.1,3.5,1.8,5.1l-1.9.5c-.6-1.6-1.2-3.2-1.6-4.8,0-.3-.2-.6-.2-.9-1,.2-1.9.4-2.5.6-2.4.7-3.5,2.5-2.7,5.3,1.1,3.8,3.4,5.7,6,5,2-.7,3.6-2.2,4.3-4.2l1.1,2.1c-1.1,2-2.9,3.5-5.1,4.2-3.7,1.1-6.9-1.6-8.3-6.6-1-3.4-.3-6.5,3.8-7.7.7-.2,1.7-.4,2.9-.6-.4-1.8-.6-3.6-.6-5.5l2-.4c0,1.9,0,3.8.5,5.6,1.5-.3,3.1-.5,4.7-.7-.4-1.9-.6-3.7-.7-5.6l1.9-.4c0,1.9.2,3.9.6,5.7,1-.2,2-.3,2.7-.5.6,0,1.2-.3,1.8-.5l.5,2.3c-.6,0-1.2,0-1.8.2h0Z"/>
      </g>
    </g>
  </g>
</svg>