<?xml version="1.0" encoding="UTF-8"?>
<svg id="_レイヤー_1" data-name="レイヤー 1" xmlns="http://www.w3.org/2000/svg" version="1.1" viewBox="0 0 145 75.6">
  <defs>
    <style>
      .cls-1 {
        fill: #52b2ff;
        stroke-width: 0px;
      }
    </style>
  </defs>
  <path id="_パス_910" data-name="パス 910" class="cls-1" d="M17.6,23.1c-1.6,1.5-2.6,1.9-3.6,1.9-1.7,0-2.6-1.2-2.6-3.7,0-2.4.8-4.7,2.1-6.6.8-1.3,2.1-2.2,3.6-2.2.9,0,1.7.4,2.1,1.2l-1.7,9.4ZM22.7,11.4l-.5-.5-2.3,1.3c-.6-.8-1.6-1.3-2.6-1.3-2.2.2-4.3,1.3-5.6,3.1-1.9,2.2-3,5.1-3.1,8,0,3.5,1.9,5,4.1,5s3.7-1.2,5.2-3.1c.4,1.9,2.1,3.2,4.1,3.1,3.4,0,8.3-3.3,8.3-10.6s-4.7-12.2-12.3-12.2C8.7,4.1,1.2,11.4,1.1,20.5c0,.2,0,.4,0,.6,0,8.9,6,13.4,13.6,13.4,2.6,0,5.2-.6,7.6-1.7l-.4-.9c-2.1,1-4.4,1.5-6.7,1.4-6.8,0-12.4-4.3-12.4-12.5s6.1-15.3,14.8-15.3,10.9,4.1,10.9,10.7-3.4,9.6-6.1,9.6-2.3-1-1.9-3.4l2.1-10.9ZM57,22c-1.3,1.5-2.8,2.8-4.6,3.8-1.7-.7-3.3-1.7-4.7-3,.4-.3.8-.6,1.2-.9h8.1ZM45.9,14.4h13.4v2.7h-13.4v-2.7ZM59.3,7.2v2.6h-13.4v-2.6h13.4ZM59.3,13.5h-13.4v-2.6h13.4v2.6ZM59.3,19.3l-2,1.7h-7.3c.5-.5,1.1-1,1.6-1.5,1,0,1.4-.2,1.6-.6l-3.1-.9h9.2v1.2h.5c1,0,1.9-.4,2.7-1V7.8c.5,0,1-.3,1.3-.7l-3.3-2.5-1.6,1.7h-6.7c.6-.8,1.4-1.9,2-2.8h12.7c.4,0,.8-.2.9-.5-1.4-1.2-3.7-2.9-3.7-2.9l-2,2.5h-24.7l.3,1h13c-.1.9-.2,1.9-.4,2.8h-4.2l-3.4-1.4v14.9h.4c1.4,0,2.7-.7,2.7-1.1v-.7h2.7c-2.9,4-6.7,7.2-11.2,9.3l.3.4c3.3-1,6.5-2.5,9.4-4.5,1,1.3,2.3,2.5,3.6,3.5-4.3,2.1-8.9,3.5-13.7,4.2l.2.5c5.4-.3,10.6-1.4,15.6-3.4,3.3,1.8,7.5,2.8,13.5,3.3,0-1.3.9-2.4,2.1-2.8v-.4c-4.4,0-8.8-.4-13-1.5,2-1.1,3.8-2.6,5.4-4.3.9,0,1.3,0,1.5-.4l-3-2.8ZM81.5,9.7c1.4-2.4,2.7-5,3.6-7.6.7,0,1.2-.2,1.3-.7L81.8,0c-1.4,6.2-3.9,12.1-7.4,17.5l.4.3c1.7-1.5,3.3-3.2,4.6-5v18.7h.6c1,0,1.9-.3,2.6-1V11.2c.6-.1,1-.3,1.1-.6l-2.2-.8ZM105.5,9.9c.5,0,.8-.2.9-.5-1.4-1.3-3.6-3-3.6-3l-2,2.5h-4.6V1.9c.9-.1,1.2-.5,1.3-1l-4.5-.4v8.4h-8.9l.3,1h7c-1.4,6.1-4.3,12.3-8.4,16.6l.4.4c4.1-2.9,7.4-6.9,9.6-11.4v16h.6c1.3,0,2.6-.7,2.6-1.2V10.5c1.4,6.5,4.2,12.4,8.2,16,.3-1.5,1.2-2.7,2.6-3.4v-.4c-4.8-2.9-8.4-7.5-10.1-12.9h8.6ZM119.3,22.9c-.7,1.1-1.2,1.5-2,1.5s-1.6-1.5-1.3-2.8c.5-2,3.3-3.9,6.8-4.5-1.1,2-2.6,4.6-3.4,5.7h0ZM135.3,13.1c.5,0,1,.3,1.4.6.4.2.6.7.5,1.1,0,1,0,1.9-.3,2.9-3.4-1.5-7-2.2-10.6-2.3,1.5-2.6,3.3-5,5.2-7.3.9-1,2.2-1.4,2.2-2.2s-2.5-2.8-3.6-2.8-1,.6-2.2,1c-1.8.7-3.8,1.1-5.7,1.4-1,0-1.4-.8-2-1.8h-.5c-.1.8-.1,1.4,0,2.1.2,1.1,1.9,2.8,3.2,2.8s1.3-.6,1.8-.9c1.3-.7,2.6-1.3,3.9-1.8.5-.2.7,0,.4.6-.6,1.3-3.7,6.2-5.3,9.1-4.2.6-8.6,3-9.1,6.5-.4,2.6.8,5.7,2.8,5.7s2.8-.9,4-2.8c.9-1.2,2.6-5.1,4-8,3.8,0,7.6,1.2,10.7,3.4-1.8,4.5-5.4,7.9-11.1,9.8l.4.7c6.4-1.2,10.9-4,13.1-8.7,2,1.7,3,3.1,4,3.1.7,0,1.4-.5,1.4-1.2,0,0,0-.1,0-.2,0-1-.4-1.9-1.1-2.6-1-.9-2.1-1.7-3.3-2.3.3-1.2.4-2.2.5-2.9.1-.7.2-1.3.3-2,0-.8-1.6-2-3-2.1-.7,0-1.5.2-2.1.5v.5ZM66.6,56.5c-1.4,2.1-2.9,4.2-4.6,6.1-.7-1.9-1.3-3.8-1.7-5.8,1.4-.9,2.7-1.9,3.9-3,.6.2,1,.1,1.2-.2l-3.6-2.2c-2.2,3.2-6.8,6.9-11,9.1,0-.8,0-1.7,0-2.5.5,0,1-.2,1.4-.6l-3.1-2.5-1.6,1.7h-2.7c0-1.5.1-3.1.1-4.7h7.4c.2,0,.5,0,.6-.2-.7,1.5-1.6,2.9-2.6,4.2l.4.3c2.1-1.4,3.9-3.2,5.3-5.3h12.3c.5,0,.8-.2,1-.5-1.3-1.2-3.4-2.9-3.4-2.9l-1.9,2.5h-7.4c.7-1.2,1.4-2.4,1.9-3.7.7,0,1.2-.2,1.3-.6l-4.5-1.5c-.5,2.4-1.3,4.8-2.4,7.1-1.3-1.2-3.3-2.9-3.3-2.9l-1.9,2.6h-1.5v-5.3c.8-.1,1.1-.4,1.1-.9l-4.4-.4v6.6h-5.5l.3,1h3.7c0,8.1,0,16.5-4.4,23.3l.5.5c5.2-4.9,6.5-11.3,6.9-18.1h3.1c-.2,8.6-.7,13.1-1.7,14-.3.3-.7.4-1.1.3-.6,0-2.4,0-3.5-.2v.5c.9.1,1.8.5,2.5,1.1.4.6.6,1.4.5,2.1,1.4,0,2.8-.4,3.8-1.4,1.4-1.3,2-4.9,2.3-12.9,1.4-.4,2.7-.9,4-1.4v15.9h.5c1.5,0,2.6-.6,2.6-.8v-16.6c.7-.3,1.3-.7,2-1.1.9,8.7,2.8,14.6,7.4,18.3.3-1.4,1.3-2.6,2.7-3.1v-.4c-3.3-1.6-5.8-4.7-7.6-8.7,2.3-1.1,4.4-2.5,6.4-4,.5.3,1.1.2,1.4-.2l-3.5-2.5ZM105.6,48.3c.5,0,.8-.2.9-.5-1.2-1.2-3.4-2.8-3.4-2.8l-1.8,2.4h-11.7l.3,1h15.7ZM84.1,44.1c-2.1,3.6-4.7,6.8-7.8,9.6l.3.4c3.7-1.9,7.1-4.4,10.1-7.3.7.1,1.1,0,1.3-.3l-3.9-2.3ZM84.4,51c-2.3,4.6-5.3,8.8-8.9,12.5l.4.4c1.9-1.2,3.6-2.5,5.3-3.9v15.6h.6c1.2,0,2.6-.6,2.6-.9v-16.4c.4,0,.8-.3,1.1-.6l-1.3-.5c1.2-1.2,2.2-2.4,3-3.4.9.1,1.2,0,1.4-.4l-4.1-2.4ZM102.5,55.2h-14.7l.3,1h10.3v14.9c0,.5-.2.7-.9.7s-5.8-.3-5.8-.3v.5c1.4,0,2.7.5,3.9,1.2.7.6,1,1.4,1,2.3,4.5-.3,5.1-1.9,5.1-4.3v-15h5.2c.5,0,.8-.2,1-.5-1.3-1.2-3.5-2.9-3.5-2.9l-1.9,2.4Z"/>
</svg>