<?xml version="1.0" encoding="UTF-8"?>
<svg id="_レイヤー_1" data-name="レイヤー 1" xmlns="http://www.w3.org/2000/svg" version="1.1" viewBox="0 0 153 111.3">
  <defs>
    <style>
      .cls-1 {
        fill: #ff9d64;
        stroke-width: 0px;
      }
    </style>
  </defs>
  <g id="_レイヤー_1-2" data-name="レイヤー 1">
    <g id="_グループ_1605" data-name="グループ 1605">
      <path id="_パス_829" data-name="パス 829" class="cls-1" d="M64.1,95.6c-6.2,10.5-15.5,15.8-27.3,15.8C13.3,111.3.2,93,.2,55.8S3.4,26.3,9.5,15.8C15.8,5.3,25,0,36.8,0,60.4,0,73.4,18.3,73.4,55.5s-3,29.6-9.3,40ZM20.5,61.4c0,5.8.1,16.5.9,26.2.9,10.3,3.1,21.6,15.5,21.6s9.8-2.4,12-7.1c4.3-9.4,4.3-23.2,4.3-46.5v-9.8c0-5.1-.2-11.2-.5-18.6-.1-6.2-1.3-12.3-3.6-18-2.1-4.8-6.2-7.2-12.5-7.2-11.2,0-15.1,8.4-15.9,32.7-.3,8.1-.3,16.6-.3,26.5Z"/>
      <path id="_パス_830" data-name="パス 830" class="cls-1" d="M133.9,11.9c-3.6,3.3-11.8,11.7-24.6,27.6-12.8,15.9-21.9,30.9-27.8,43.8h39.6v-38.4h18.3v38.4h13.4v2.1h-13.4v21.8h13.4v2.1h-44.9v-2.1h13.2v-21.8h-42.4c2.8-8.8,8.7-22.2,16.9-39.8,8.6-18.3,15.2-29.1,18.8-34.5,3.9-5.9,6.8-8.4,8.6-9.5S126.4,0,130.7,0s8.6,1.8,8.6,4.8-1.8,3.8-5.4,7h0Z"/>
    </g>
  </g>
</svg>