<?xml version="1.0" encoding="UTF-8"?>
<svg id="_レイヤー_1" data-name="レイヤー 1" xmlns="http://www.w3.org/2000/svg" version="1.1" viewBox="0 0 153 111.3">
  <defs>
    <style>
      .cls-1 {
        fill: #ff9d64;
        stroke-width: 0px;
      }
    </style>
  </defs>
  <g id="_レイヤー_1-2" data-name="レイヤー 1">
    <g id="_グループ_1604" data-name="グループ 1604">
      <path id="_パス_827" data-name="パス 827" class="cls-1" d="M66.2,95.6c-6.2,10.5-15.5,15.8-27.3,15.8-23.5,0-36.6-18.3-36.6-55.5S5.4,26.3,11.6,15.8C17.9,5.3,27,0,38.9,0,62.4,0,75.5,18.3,75.5,55.5s-3,29.6-9.3,40ZM22.5,61.4c0,5.8.1,16.5.9,26.2.9,10.3,3.1,21.6,15.5,21.6s9.8-2.4,12-7.1c4.3-9.4,4.3-23.2,4.3-46.5v-9.8c0-5.1-.2-11.2-.5-18.6-.1-6.2-1.3-12.3-3.6-18-2.1-4.8-6.2-7.2-12.5-7.2-11.2,0-15.1,8.4-15.9,32.7-.3,8.1-.3,16.6-.3,26.5Z"/>
      <path id="_パス_828" data-name="パス 828" class="cls-1" d="M115.1,47.6v.3c24.6,4.1,35.7,14.4,35.7,30.2s-14.7,33.3-40.3,33.3-28-8.4-31.3-23.4l2.4-.8c2.6,13.1,12.4,22,26.5,22s22.5-7.5,22.5-32.7-2.9-27-19.5-27-12.2,2.4-18,6l-1.2-2.1c4.1-2.7,9.8-5.1,20.7-7.1,10.1-1.8,15.6-10.3,15.6-25.2s-4.9-19-14.4-19-10.5,2.2-10.5,8.2,1.2,8.5,1.2,9.3c0,3.3-1.1,6.9-9,6.9s-8.7-1.7-8.7-7.2C86.7,7.4,98.4,0,116.1,0s31.5,10.4,31.5,22-7.8,19.8-32.6,25.5Z"/>
    </g>
  </g>
</svg>