<?xml version="1.0" encoding="UTF-8"?>
<svg id="_レイヤー_1" data-name="レイヤー 1" xmlns="http://www.w3.org/2000/svg" version="1.1" viewBox="0 0 145 75.6">
  <defs>
    <style>
      .cls-1 {
        fill: #52b2ff;
        stroke-width: 0px;
      }
    </style>
  </defs>
  <path id="_パス_911" data-name="パス 911" class="cls-1" d="M17.7,23.1c-1.6,1.5-2.6,1.9-3.6,1.9-1.7,0-2.6-1.2-2.6-3.7,0-2.4.8-4.7,2.1-6.6.8-1.3,2.1-2.2,3.6-2.2.9,0,1.7.4,2.1,1.2l-1.7,9.4ZM22.8,11.4l-.5-.5-2.3,1.3c-.6-.8-1.6-1.3-2.6-1.3-2.2.2-4.3,1.3-5.6,3.1-1.9,2.2-3,5.1-3.1,8,0,3.5,1.9,5,4.1,5s3.7-1.2,5.2-3.1c.4,1.9,2.1,3.2,4.1,3.1,3.4,0,8.3-3.3,8.3-10.6s-4.7-12.2-12.3-12.2C8.8,4.1,1.3,11.4,1.1,20.5c0,.2,0,.4,0,.6,0,8.9,6,13.4,13.6,13.4,2.6,0,5.2-.6,7.6-1.7l-.4-.9c-2.1,1-4.4,1.5-6.7,1.4-6.8,0-12.4-4.3-12.4-12.5s6.1-15.3,14.8-15.3,10.9,4.1,10.9,10.7-3.4,9.6-6.1,9.6-2.3-1-1.9-3.4l2.1-10.9ZM44.2,0c-1.5,6.2-4.1,12.2-7.6,17.5l.4.3c1.5-1.3,2.9-2.7,4.1-4.2v18h.6c1,0,1.9-.3,2.7-1V10.5c.6-.1,1-.3,1.1-.6l-1.4-.5c1.4-2.3,2.6-4.7,3.5-7.2.7,0,1.2-.2,1.3-.6L44.2,0ZM67.7,12.7c.5,0,.8-.2,1-.5-1.4-1.2-3.6-3-3.6-3l-2,2.6h-5V1.9c.9-.1,1.2-.5,1.3-1l-4.7-.5v11.4h-8.9l.3,1h8.7v16.1h-8l.3,1h20.2c.4,0,.8-.2.9-.5-1.3-1.3-3.7-3.1-3.7-3.1l-2,2.6h-4.2V12.7h9.7ZM98.6,24.1h-6.4v-3.1h6.4v3.1ZM92.3,16.8h6.4v3.2h-6.4v-3.2ZM82.8,11.8v-3.4h6.2v3.4h-6.2ZM98.6,8.3v3.4h-6.4v-3.4h6.4ZM102.2,20h-.4v-2.7c.5,0,1-.3,1.4-.7l-3.3-2.4-1.6,1.7h-6v-3.1h6.4v1.2h.6c1,0,1.9-.3,2.7-.9v-4.1c.5,0,1-.3,1.4-.6l-3.4-2.5-1.6,1.6h-6v-2.7h13.1c.5,0,.9-.2,1-.5-1.4-1.2-3.7-2.9-3.7-2.9l-2,2.5h-8.3V1.4c.9-.1,1.2-.4,1.3-1L89,0v3.7h-13.9l.3,1h13.6v2.7h-5.9l-3.5-1.4v8.6h.5c1.3,0,2.8-.7,2.8-1v-1h6.2v3.1h-10.1l.3,1h9.8v3.2h-14l.3,1h13.7v3.1h-10.4l.3,1h10.1v2.4c0,.5-.2.7-.9.7s-5.1-.3-5.1-.3v.5c1.2,0,2.4.4,3.4,1.1.6.6.9,1.3,1,2.1,4.2-.4,4.8-1.7,4.8-4v-2.5h6.4v1.9h.5c.9,0,1.9-.4,2.6-.9v-5.1h4.3c.5,0,.8-.2.9-.5-1.1-1.2-3.1-2.8-3.1-2.8l-1.7,2.3ZM113.8,7.1c-.1.6-.2,1.3,0,1.9.2,1.4,2.2,3.4,3.7,3.4s1.5-.7,2.2-1.1c3.4-1.6,7-2.8,10.7-3.6.4-.1.4.1.1.3-3.7,2.7-5.8,7.1-5.7,11.6,0,4.1,1.4,6.3,3.6,7.9,2.2,1.5,5.1,1.8,7.4,1.8s2.9-.3,2.9-1.6-1.3-2-2.3-2-4,.2-6.1-1c-1.3-.7-2.9-2.1-2.9-6,0-6.2,3.1-9.1,4.5-10,1.7-1,3.6-1.5,5.5-1.4,1.1,0,2.2.1,3,.1s1.5-.5,1.5-1.2-.5-1.3-1.4-1.6c-.9-.3-1.8-.5-2.7-.5-2.7.3-5.4.9-8,1.6-5.8,1.4-11.5,3-13.4,3s-1.6-.9-2.2-1.7l-.5.2ZM138.1,9.9c1.2.8,2.2,1.8,3.1,3,.7.9,1.1,1.5,1.7,1.5.5,0,1-.4,1-.9,0,0,0-.1,0-.2,0-.9-.5-1.6-1.2-2.1-1.3-.8-2.7-1.5-4.2-1.8l-.4.5ZM135,12.1c1.2,1,2.2,2.1,3.1,3.3.6.9,1,1.5,1.5,1.5.6,0,1-.4,1.1-1,0,0,0,0,0-.1,0-.8-.4-1.5-1-2-1.3-1-2.7-1.8-4.2-2.2l-.4.5ZM53.3,47.9l-1.8,1.9h-4.3c.4-1.2.9-2.5,1.2-3.8.6,0,1.1-.2,1.3-.7l-4.7-1.2c-1.1,7.3-4,14.2-7.3,18.6l.4.3c2.2-1.7,4-3.8,5.5-6.1,1.2,1.3,2.1,2.9,2.6,4.7,2.8,2.1,5.4-3.2-1.9-5.6,1-1.6,1.8-3.3,2.4-5h4.9c-1.4,9.8-5.2,18.9-13.8,24.2l.4.4c11.4-5,15.2-14.2,16.9-24.1.8,0,1.2-.2,1.4-.5l-3.2-3ZM62.4,45.9c.9-.1,1.1-.5,1.2-1l-4.5-.5v12.6c-1.3-1.4-2.3-3-3.1-4.7l-.5.2c.8,2.7,2,5.3,3.6,7.7v15.2h.6c1.3,0,2.7-.7,2.7-1v-10.6c1.6,1.3,3.3,2.4,5.2,3.1.3-1.4,1.3-2.6,2.7-3v-.4c-2.8-.7-5.5-2-7.9-3.7v-14.1ZM102,61.1v10.4h-8.6v-13.4h7v1.9h.6c1.2,0,2.5-.6,2.5-.9v-10.6c.9-.1,1.1-.4,1.2-.9l-4.3-.4v9.9h-7v-11.5c.9-.1,1.1-.5,1.2-1l-4.5-.5v13h-6.8v-8.5c.9-.1,1.1-.4,1.2-.9l-4.3-.4v12.9h.5c1.2,0,2.6-.6,2.6-.9v-1.2h6.8v13.4h-8.4v-9c.8-.1,1.1-.4,1.2-.9l-4.3-.4v14.4h.6c1.2,0,2.6-.5,2.6-.8v-2.2h20.3v2.8h.6c1.2,0,2.6-.5,2.6-.8v-12c.8-.1,1.1-.4,1.2-.9l-4.4-.4Z"/>
</svg>