<svg xmlns="http://www.w3.org/2000/svg" width="168.238" height="27.15" viewBox="0 0 168.238 27.15">
  <g id="レイヤー_1" data-name="レイヤー 1" transform="translate(-21.262 -3.12)">
    <g id="グループ_1742" data-name="グループ 1742">
      <path id="パス_898" data-name="パス 898" d="M30.85,11.3l1.53-.42,1.46,5.39-1.66.45c-.82-2.42-2.63-3.73-5.2-3.03-3.23.88-4.35,3.62-3.29,7.53,1.13,4.16,3.44,6.04,6.6,5.18a3.883,3.883,0,0,0,2.92-4.92l1.95-.53c.76,3.48-1.02,6.04-4.48,6.99-5.16,1.4-7.96-2.1-9.01-5.98-1.12-4.14-.05-8.4,4.68-9.68,2.21-.6,3.98-.12,5.08,1.24l-.6-2.21Z"/>
      <path id="パス_899" data-name="パス 899" d="M53.08,19.97a6.533,6.533,0,0,1-5.21,4.06c-4.43.84-7.91-1.66-8.81-6.39-1.05-5.56,1.54-8.78,5.71-9.57a6.714,6.714,0,0,1,6.54,2.01,9.475,9.475,0,0,1,2.09,4.78,9.524,9.524,0,0,1-.33,5.12ZM51.35,15.1c-.77-4.06-3.11-6.24-6.4-5.62-3.48.66-4.55,3.87-3.83,7.67.46,2.44,1.31,3.72,2.39,4.56a5.072,5.072,0,0,0,4.07.91c3.07-.58,4.54-3.46,3.77-7.53Z"/>
      <path id="パス_900" data-name="パス 900" d="M71.3,17.58a6.516,6.516,0,0,1-5.47,3.69c-4.48.54-7.78-2.19-8.35-6.98-.67-5.62,2.13-8.66,6.35-9.16a6.731,6.731,0,0,1,6.39,2.45,9.558,9.558,0,0,1,1.76,4.91,9.682,9.682,0,0,1-.67,5.09Zm-1.4-4.97c-.49-4.11-2.68-6.44-6-6.04-3.52.42-4.81,3.55-4.34,7.39.3,2.47,1.05,3.8,2.07,4.72a5.035,5.035,0,0,0,4,1.18C68.73,19.49,70.39,16.72,69.9,12.61Z"/>
      <path id="パス_901" data-name="パス 901" d="M83.63,3.66a5.937,5.937,0,0,1,2.82.39,3.949,3.949,0,0,1,1.98,3.37c.14,2.44-.98,4.04-3.07,4.34a2.365,2.365,0,0,1,2.03,1.16,49.838,49.838,0,0,1,1.71,4.75l1.69-.1.08,1.45-3.23.19c-.29-.78-.77-2.31-1.25-3.58-.26-.67-.54-2.08-1.39-2.72a2.754,2.754,0,0,0-1.96-.37l-2.26.13.32,5.47,2.13-.12.08,1.45-6.28.37-.08-1.45,2.24-.13L78.44,5.44l-2.24.13-.08-1.45,7.51-.44Zm-.28,7.38a4.3,4.3,0,0,0,2.08-.56,2.986,2.986,0,0,0,1.08-2.66A3.114,3.114,0,0,0,85.43,5.5a3.269,3.269,0,0,0-1.89-.37l-3.18.19.34,5.88,2.66-.16Z"/>
      <path id="パス_902" data-name="パス 902" d="M101.22,3.12c3.41-.02,5.84,1.28,6.96,4.51a9.954,9.954,0,0,1,.55,2.99c.02,3.04-.8,5.07-2.07,6.35-1.53,1.55-3.55,1.89-5.78,1.91l-6.29.04V17.47l2.21-.01L96.72,4.61H94.5V3.17l6.73-.04Zm-.33,14.3c4.73-.03,5.88-3.45,5.86-6.22,0-1.1-.08-6.67-5.83-6.63H98.63l.08,12.86h2.18Z"/>
      <path id="パス_903" data-name="パス 903" d="M120.3,3.51l-.06,1.45-2.22-.09-.51,12.84,2.22.09-.06,1.45L113.34,19l.06-1.45,2.2.09.51-12.84-2.2-.09.06-1.45,6.33.25Z"/>
      <path id="パス_904" data-name="パス 904" d="M130.12,4.14l5.73,14.26,1.07-12.2-2.19-.19.13-1.45,6.05.53-.13,1.45-2.15-.19-1.25,14.24-2.65-.23L128.82,5.69l-1.11,12.6,2.26.2-.13,1.45-6.13-.54.13-1.45,2.21.19,1.12-12.8-2.21-.19.13-1.45,5.04.44Z"/>
      <path id="パス_905" data-name="パス 905" d="M152.22,6.69l3.32,14.95,1.57.23-.21,1.44-5.79-.86.21-1.44,2.15.32-.79-3.94-6.44-.96-1.88,3.55,2.13.32-.21,1.44-5.7-.85.21-1.44,1.61.24,7.61-13.33,2.22.33Zm-5.16,8.4,5.22.78-1.51-7.65-3.71,6.88Z"/>
      <path id="パス_906" data-name="パス 906" d="M173.6,10.75l-1.04,4.93-1.72-.36.7-3.29-3.57-.75-2.61,12.36,2.39.5-.3,1.42-6.63-1.4.3-1.42,2.37.5,2.61-12.36-3.59-.76-.7,3.29-1.72-.36,1.04-4.93,12.49,2.64Z"/>
      <path id="パス_907" data-name="パス 907" d="M189.49,15.12l-1.29,4.53-1.65-.47.89-3.13-6.45-1.84-1.53,5.35,3.13.89.66-2.3,1.52.43-1.7,5.96-1.52-.43.65-2.26-3.13-.89-1.6,5.6,6.45,1.84.95-3.32,1.65.47-1.35,4.72-12.1-3.46.4-1.4,2.16.62,3.53-12.35L177,13.06l.4-1.4,12.1,3.46Z"/>
    </g>
  </g>
</svg>
