<?xml version="1.0" encoding="UTF-8"?>
<svg id="_レイヤー_1" data-name="レイヤー 1" xmlns="http://www.w3.org/2000/svg" version="1.1" viewBox="0 0 145 80.6">
  <defs>
    <style>
      .cls-1 {
        fill: #52b2ff;
        stroke-width: 0px;
      }
    </style>
  </defs>
  <path id="_パス_912" data-name="パス 912" class="cls-1" d="M36.2,23.1c-1.6,1.5-2.6,1.9-3.6,1.9-1.7,0-2.6-1.2-2.6-3.7,0-2.4.8-4.7,2.1-6.6.8-1.3,2.1-2.1,3.6-2.2.9,0,1.7.4,2.1,1.2l-1.7,9.4ZM41.3,11.4l-.5-.5-2.3,1.3c-.6-.8-1.6-1.3-2.6-1.3-2.2.2-4.3,1.3-5.6,3.1-1.9,2.2-3,5.1-3.1,8,0,3.5,1.9,5,4.1,5s3.7-1.2,5.2-3.1c.4,1.9,2.1,3.2,4.1,3.1,3.4,0,8.3-3.3,8.3-10.6s-4.7-12.2-12.3-12.2c-9.1-.2-16.7,7.1-16.8,16.3,0,.2,0,.4,0,.6,0,8.9,6,13.4,13.6,13.4,2.6,0,5.2-.6,7.6-1.7l-.4-.9c-2.1,1-4.4,1.5-6.7,1.4-6.8,0-12.4-4.3-12.4-12.5s6.1-15.3,14.8-15.3,10.9,4.1,10.9,10.7-3.4,9.6-6.1,9.6-2.3-1-1.9-3.4l2.1-10.9ZM56.4,1.3c1.8,1.7,3,3.9,3.6,6.3,3.2,2.3,5.9-4.3-3.3-6.5l-.3.2ZM68.9,3.1h12.9v19.7c0,.4-.1.7-.7.7s-3.8-.2-3.8-.2v.5c1,0,1.9.4,2.7,1,.5.5.7,1.2.7,1.9,3.6-.3,4.1-1.5,4.1-3.6V3.6c.5,0,1-.3,1.4-.7l-3.3-2.5-1.5,1.7h-12l-3.4-1.3v9.9c0,5.2-.1,10.7-2.5,15.1-.3-.3-.7-.6-1-.9v-8.8c.6,0,1.2-.3,1.7-.7l-3.5-2.9-1.6,2.2h-3.7l.2,1h3.9v10.2c-1.6.8-3.2,1.6-4.2,2l1.9,3.6c.3-.1.5-.4.4-.8,1.6-1.6,3.1-3.4,4.5-5.2,2.4,4.4,5.1,5.3,11.6,5.3h11.4c0-1.3.9-2.4,2.2-2.7v-.4c-4.3.1-9.7.1-13.7.1s-7.7-.2-9.8-1.7c4.7-4.2,5-10.4,5-15.4V3.1ZM73,20.5v-4.7h3.9v4.7h-3.9ZM77.3,22.7c.8,0,1.6-.3,2.2-.8v-5.8c.4,0,.8-.2,1.1-.5l-2.7-2-1.3,1.3h-3.5l-2.7-1.2v10.3h.4c1,0,2.2-.6,2.2-.8v-1.7h3.9v1.3h.4ZM69.5,11.4l.3,1h11c.4,0,.7-.2.9-.5-.9-.9-2.4-2.1-2.4-2.1l-1.3,1.7h-1.6v-3.4h4c.4,0,.7-.2.8-.5-.8-.9-2.3-2-2.3-2l-1.3,1.6h-1.3v-2.1c.7-.1.9-.4,1-.8l-3.7-.3v3.3h-3.7l.3,1h3.5v3.4h-4.1ZM122.2,14.6c.5,0,.8-.2.9-.5-1.4-1.3-3.8-3-3.8-3l-2,2.6h-6.5v-6.1h13c.5,0,.8-.2,1-.5-1.4-1.2-3.8-3-3.8-3l-2,2.6h-8.1V1.4c.9-.1,1.2-.5,1.3-1L107.6,0v6.6h-13.7l.3,1h13.4v6.1h-12l.3,1h9.5c-2.7,5.7-6.8,10.7-12,14.3l.3.4c5.6-2.5,10.4-6.5,13.9-11.6v13.8h.6c1.2,0,2.6-.8,2.6-1.2v-15.8h0c2.3,6.7,6.4,11.6,11.6,14.5.3-1.4,1.4-2.5,2.8-2.8v-.3c-5.6-2.1-10.5-6.1-13.6-11.3h10.6ZM40.8,71.3c0-3.4,0-6.9,0-10.9h2c4.9,0,7.1,1.8,7.1,5.5s-2.3,5.4-6.7,5.4h-2.4ZM43.2,49c3.9,0,5.6,1.5,5.6,4.8s-2,5.2-6.2,5.2h-1.8c0-3.4,0-6.7,0-10h2.4ZM33.5,47.6v1.2l3.4.4c0,3.3,0,6.6,0,10v1.7c0,3.5,0,6.9,0,10.2l-3.4.4v1.2h10.3c7.6,0,10.3-3.5,10.3-6.9s-2.2-5.6-7.6-6.3c4.6-.9,6.2-3.3,6.2-5.9s-2.7-6-8.3-6h-10.9ZM67.8,71.3c0-3.4,0-6.9,0-10.9h2c4.9,0,7.1,1.8,7.1,5.5s-2.3,5.4-6.7,5.4h-2.4ZM70.2,49c3.9,0,5.6,1.5,5.6,4.8s-2,5.2-6.2,5.2h-1.8c0-3.4,0-6.7,0-10h2.4ZM60.4,47.6v1.2l3.4.4c0,3.3,0,6.6,0,10v1.7c0,3.5,0,6.9,0,10.2l-3.4.4v1.2h10.3c7.6,0,10.3-3.5,10.3-6.9s-2.2-5.6-7.6-6.3c4.6-.9,6.2-3.3,6.2-5.9s-2.7-6-8.3-6h-10.9ZM92.4,60.2c0-6.2,2.2-11.7,7.2-11.7s7.2,5.5,7.2,11.7-2.2,11.6-7.2,11.6-7.2-5.4-7.2-11.6ZM109.3,78.4c-.9.3-1.9.5-2.9.5-3.1,0-5.1-2.1-5.1-5.7,5.3-.8,9.8-5.5,9.8-13s-5.5-13.2-11.5-13.2-11.5,4.8-11.5,13.2,4.3,12,9.5,13c.1,4.1,2.7,7.4,7.5,7.4,1.6,0,3.2-.4,4.7-1.2l-.4-1Z"/>
</svg>