<?xml version="1.0" encoding="UTF-8"?>
<svg id="_レイヤー_1" data-name=" レイヤー 1" xmlns="http://www.w3.org/2000/svg" version="1.1" viewBox="0 0 153 111.3">
  <defs>
    <style>
      .cls-1 {
        fill: #ff9d64;
        stroke-width: 0px;
      }
    </style>
  </defs>
  <g id="_グループ_1594" data-name="グループ 1594">
    <path id="_パス_768" data-name="パス 768" class="cls-1" d="M72,95.5c-6.2,10.5-15.5,15.8-27.3,15.8-23.5,0-36.6-18.3-36.6-55.5s3.1-29.5,9.3-40C23.7,5.2,32.8,0,44.7,0c23.5,0,36.6,18.3,36.6,55.5s-3,29.6-9.3,40ZM28.3,61.3c0,5.8.1,16.5.9,26.2.9,10.3,3.1,21.6,15.5,21.6s9.8-2.4,12-7.1c4.3-9.4,4.3-23.2,4.3-46.5v-9.8c0-5.1-.2-11.2-.5-18.6-.1-6.2-1.3-12.3-3.6-18-2.1-4.8-6.2-7.2-12.5-7.2-11.2,0-15.1,8.4-15.9,32.7-.3,8.1-.3,16.6-.3,26.5Z"/>
    <path id="_パス_769" data-name="パス 769" class="cls-1" d="M131.1,0v107.1h13.8v2.1h-46.2v-2.1h14.1V13.6l-19.6,11.1-1.2-2c5.8-3.3,11.1-6.5,15.9-9.3S118.4,6.1,125.1,0h6Z"/>
  </g>
</svg>