<?xml version="1.0" encoding="UTF-8"?>
<svg id="_レイヤー_1" data-name="レイヤー 1" xmlns="http://www.w3.org/2000/svg" version="1.1" viewBox="0 0 145 74.3">
  <defs>
    <style>
      .cls-1 {
        fill: #52b2ff;
        stroke-width: 0px;
      }
    </style>
  </defs>
  <path id="_パス_913" data-name="パス 913" class="cls-1" d="M16.7,20.6c0,.2,0,.3,0,.5-1.3,1.5-2.2,1.8-3.1,1.8s-2.5-1.2-2.5-3.6c0-2.2.7-4.4,1.9-6.3,1.3-1.7,2.6-2.3,3.7-2.3.6,0,1.3.2,1.7.7l-1.6,9.1ZM22,9.6l-.5-.3-2.5,1c-.7-.8-1.7-1.3-2.7-1.3-2.2.1-4.3,1.2-5.7,3-1.9,2.2-3,4.9-3.1,7.8,0,3.8,2,5.2,4.2,5.2,2,0,3.9-1,5-2.8.4,1.8,1.9,2.8,4.3,2.8,3.6,0,8.7-2.9,8.7-10.5S25.2,2.6,17.1,2.6,0,10.5,0,19s5.6,13.5,14,13.5c2.7,0,5.3-.6,7.6-1.8l-.6-1c-2.1,1-4.4,1.5-6.7,1.4-7.4,0-12.2-4.4-12.2-12.3s5.9-14.8,14.6-14.8,10.9,3.8,10.9,10.5-3.3,9.1-6.1,9.1-2-.9-1.5-3.5l1.9-10.5ZM48,12.5c-1.2.4-2.3.9-3.4,1.3v-5h4.2c.5,0,.8-.2.9-.5-.9-1-1.9-1.9-2.9-2.8l-1.6,2.3h-.6V1.4c.9-.1,1.2-.5,1.3-1L41.5,0v7.9h-4.6l.3,1h4.3v6.1c-2.2.8-4.1,1.4-5.1,1.7l1.5,3.8c.4-.2.6-.6.7-1,1-.6,1.9-1.3,2.8-1.9v9.7c0,.4-.1.6-.7.6s-3.5-.2-3.5-.2v.5c.9,0,1.8.4,2.5,1.1.4.7.7,1.4.6,2.2,3.6-.4,4.1-1.7,4.1-4v-12c1.4-1,2.6-1.9,3.6-2.6v-.4ZM53.5,21.6h4.4v6.3h-4.4v-6.3ZM57.9,8.1v5.7h-4.4v-5.7h4.4ZM57.9,20.6h-4.4v-5.9h4.4v5.9ZM63.8,27.9h-2.8v-6.3h5.9c.4,0,.7-.2.8-.5-1.1-1.2-3.1-2.8-3.1-2.8l-1.7,2.4h-2v-5.9h5.8c.4,0,.8-.2.9-.5-1.1-1.2-3.1-2.8-3.1-2.8l-1.7,2.3h-2v-5.7h6.5c.5,0,.8-.2.9-.5-1.2-1.2-3.3-2.9-3.3-2.9l-1.9,2.4h-4c1.3-1.4,2.9-3.3,3.9-4.7.7,0,1.2-.2,1.4-.7l-4.5-1.2c-.5,1.9-1.3,4.7-1.9,6.5h-4.4c.8-1.7,1.4-3.3,2-5.1.8,0,1.2-.3,1.3-.7L52.6,0c-1.1,5.9-3.2,11.5-6.3,16.7l.4.3c1.4-1.2,2.6-2.6,3.7-4v18.5h.5c1.6,0,2.5-.7,2.5-1v-1.6h14.6c.5,0,.8-.2.9-.5-1.2-1.3-3.3-3.1-3.3-3.1l-1.9,2.6ZM82.8,4.6c.6.4.8,1,.8,2.4,0,2.3-.7,9.7-.7,14.7s2.7,8.5,7.3,8.5,11.7-4.3,14-9.8l-.7-.4c-2.7,3.7-7.7,7-13,7s-5.1-1.5-5.1-5.6c0-4.2.5-8.4,1.3-12.5.3-1.7,1.2-2,1.2-2.9,0-1.2-2.9-3.4-4.9-3.5-.8,0-1.7.2-2.5.5v.6c.8.2,1.5.5,2.2,1ZM115.4.8c1.6,1.3,2.9,3,3.8,4.9,3.2,1.8,5.1-4.5-3.5-5.2l-.3.3ZM112.9,8.3c1.6,1.2,2.8,2.7,3.5,4.6,3.1,1.8,5.1-4.2-3.2-4.8l-.3.3ZM123,6.8q-6.3,13.1-7.1,14.3c-.4.6-.5.6-1,.6h-1.5v.7c.6,0,1.2.2,1.7.5.8.5,1,3.4.4,6.9.2,1.1.8,1.7,1.5,1.7,1.3,0,2.4-1,2.5-2.3,0,0,0-.2,0-.3,0-2.9-1.1-4.2-1.1-5.8,0-1,.3-2.1.6-3.1.4-1.7,3.1-9.2,4.6-13.2h-.6ZM138.9,19.5v8.1h-11.3v-8.1h11.3ZM139.5,10.9h-4.6v-6.4c2.4-.3,4.6-.7,6.4-1.1,1,.4,1.7.3,2,0l-3.4-3.2c-5.5,2.2-11.2,3.8-17,4.8v.6c2.9-.1,5.8-.3,8.6-.7v5.9h-9.2l.3,1h8.9v6.7h-3.8l-3.4-1.4v14.4h.5c1.4,0,2.7-.7,2.7-1v-1.8h11.3v2.7h.5c1,0,1.9-.4,2.7-1v-10.3c.5,0,1-.3,1.4-.7l-3.4-2.6-1.6,1.8h-3.6v-6.7h9.1c.5,0,.8-.1.9-.5-1.3-1.2-3.5-3-3.5-3l-1.9,2.6ZM16.9,46.8c1.2.6,2,1.2,2,1.8-.1.7-.5,1.4-.9,1.9-2.4,3.7-9,10.5-16.8,14.9l.4.7c4.8-1.9,9.3-4.5,13.3-7.9.2.4.3.9.3,1.4,0,3,0,6-.4,9-.1,1.1-.4,1.8-.4,2.5,0,1.5.7,3.2,2.2,3.2s1.5-.7,1.5-2.1-.2-6.9,0-11.6c0-.9.3-1.5.3-2s-.8-1.2-1.9-1.9c2.1-2,3.8-3.8,5-5.1,1-1,1.7-1,1.7-1.8s-1.8-2.8-3.4-3.3c-.9-.3-1.8-.3-2.7-.3l-.2.6ZM61.9,56.8c.6,0,1.1-.4,1.1-1,0,0,0,0,0,0,0-.9-.5-1.7-1.2-2.2-1.3-1.1-2.9-2-4.6-2.4l-.4.5c1.3,1,2.5,2.3,3.4,3.7.6.9,1.1,1.5,1.7,1.5ZM65.4,53.8c.6,0,1-.4,1.1-1,0,0,0,0,0-.1,0-1-.6-1.8-1.4-2.3-1.3-1-2.9-1.7-4.5-2l-.4.5c1.4.9,2.6,2.1,3.6,3.4.7,1,1.1,1.5,1.7,1.5ZM38.1,63c.8,1.1,2.1,1.9,3.5,2,1.1,0,1.6-.9,2.4-2,1.1-1.6,3.6-5.2,4.7-6.5.5-.6.9-.9,1.2-.9s.9.2,1.5.9c2.2,2.2,7.6,8.1,9.7,10.2,2.5,2.5,4.2,3.9,5.3,3.9.7,0,1.4-.5,1.4-1.3,0,0,0-.2,0-.2,0-1.3-.7-2.4-1.7-3.1-3.7-2.5-8.7-7.1-13.2-11.5-.8-.9-1.9-1.4-3.1-1.5-1,0-1.9.6-2.5,1.4-1.1,1.1-4,4.5-5.6,5.9-.5.5-1.1.9-1.8,1-.8-.1-1.5-.5-2-1.1l-.4.4c0,.8.3,1.6.7,2.2h0ZM80,49.7c2.2,1.5,4.2,3.4,5.8,5.6.9,1.2,1.5,1.7,2.3,1.7,1,0,1.8-.8,1.8-1.7,0,0,0,0,0-.1,0-3.2-5.2-5.3-9.5-6.1l-.4.6ZM83.6,68.3c-1.2,0-2.3-1.2-3.2-2.1l-.5.3c0,.9.3,1.9.7,2.7.7,1.2,2.9,3.1,4.6,3.1s1.3-1,2.2-1.6c7.7-4.8,13.9-10.5,17.9-17.9l-.7-.4c-4.9,6.8-17.8,16-21,16ZM122.3,47.6c1.6.2,2.5.5,2.7,1.7.2,2.8.3,5.6.3,8.4,0,2.3,0,7.3-.3,9.8-.1,1.4-.4,2.1-.4,3,0,1.9.8,3.8,2.3,3.8s1.5-.6,1.5-2,0-1.6,0-3.3c0-3.2,0-8.2,0-11.2,1.7.7,3.3,1.6,4.8,2.7,2.4,2,2.7,3.6,4.4,3.6.9,0,1.6-.7,1.6-1.6,0,0,0,0,0-.1,0-1.5-.9-2.4-2.2-3.2-2.6-1.4-5.5-2.3-8.5-2.7,0-2,.1-4.1.3-5.5.2-1.2.8-1.5.8-2.3s-2.7-2.5-4.3-2.5c-.9,0-1.8.3-2.7.7v.6Z"/>
</svg>