<?xml version="1.0" encoding="UTF-8"?>
<svg id="_レイヤー_1" data-name="レイヤー 1" xmlns="http://www.w3.org/2000/svg" version="1.1" viewBox="0 0 168.2 27.1">
  <defs>
    <style>
      .cls-1 {
        fill: #fff;
        stroke-width: 0px;
      }
    </style>
  </defs>
  <g id="_レイヤー_1-2" data-name="レイヤー 1">
    <g id="_グループ_1742" data-name="グループ 1742">
      <path id="_パス_898" data-name="パス 898" class="cls-1" d="M9.6,8.2l1.5-.4,1.5,5.4-1.7.5c-.8-2.4-2.6-3.7-5.2-3-3.2.9-4.4,3.6-3.3,7.5,1.1,4.2,3.4,6,6.6,5.2,2.1-.4,3.4-2.5,3-4.6,0-.1,0-.2,0-.3l2-.5c.8,3.5-1,6-4.5,7-5.2,1.4-8-2.1-9-6-1.1-4.1,0-8.4,4.7-9.7,2.2-.6,4-.1,5.1,1.2l-.6-2.2h0Z"/>
      <path id="_パス_899" data-name="パス 899" class="cls-1" d="M31.8,16.9c-.9,2.2-2.9,3.7-5.2,4.1-4.4.8-7.9-1.7-8.8-6.4-1-5.6,1.5-8.8,5.7-9.6,2.4-.6,4.9.2,6.5,2,1.1,1.4,1.9,3,2.1,4.8.4,1.7.2,3.5-.3,5.1h0ZM30.1,12c-.8-4.1-3.1-6.2-6.4-5.6-3.5.7-4.5,3.9-3.8,7.7.5,2.4,1.3,3.7,2.4,4.6,1.2.9,2.6,1.2,4.1.9,3.1-.6,4.5-3.5,3.8-7.5h0Z"/>
      <path id="_パス_900" data-name="パス 900" class="cls-1" d="M50,14.5c-1,2.1-3.1,3.5-5.5,3.7-4.5.5-7.8-2.2-8.3-7-.7-5.6,2.1-8.7,6.3-9.2,2.4-.4,4.9.5,6.4,2.4,1,1.4,1.6,3.1,1.8,4.9.2,1.7,0,3.5-.7,5.1h0ZM48.6,9.5c-.5-4.1-2.7-6.4-6-6-3.5.4-4.8,3.6-4.3,7.4.3,2.5,1,3.8,2.1,4.7,1.1,1,2.6,1.4,4,1.2,3.1-.4,4.8-3.1,4.3-7.2Z"/>
      <path id="_パス_901" data-name="パス 901" class="cls-1" d="M62.4.5c1-.1,1.9,0,2.8.4,1.2.7,2,2,2,3.4.1,2.4-1,4-3.1,4.3.8,0,1.6.4,2,1.2.6,1.6,1.2,3.1,1.7,4.8h1.7c0-.1,0,1.4,0,1.4l-3.2.2c-.3-.8-.8-2.3-1.2-3.6-.3-.7-.5-2.1-1.4-2.7-.6-.4-1.3-.5-2-.4h-2.3c0,.1.3,5.6.3,5.6h2.1c0-.1,0,1.3,0,1.3l-6.3.4v-1.5c0,0,2.2-.1,2.2-.1l-.7-12.8h-2.2c0,.1,0-1.3,0-1.3l7.5-.4h0ZM62.1,7.9c.7,0,1.4-.2,2.1-.6.8-.6,1.2-1.6,1.1-2.7,0-.9-.4-1.7-1.1-2.3-.6-.3-1.2-.4-1.9-.4l-3.2.2.3,5.9,2.7-.2h0Z"/>
      <path id="_パス_902" data-name="パス 902" class="cls-1" d="M80,0c3.4,0,5.8,1.3,7,4.5.3,1,.5,2,.6,3,0,3-.8,5.1-2.1,6.3-1.5,1.5-3.6,1.9-5.8,1.9h-6.3s0-1.4,0-1.4h2.2s0-12.9,0-12.9h-2.2V0h6.7s0,0,0,0ZM79.6,14.3c4.7,0,5.9-3.4,5.9-6.2,0-1.1,0-6.7-5.8-6.6h-2.3v12.9h2.3Z"/>
      <path id="_パス_903" data-name="パス 903" class="cls-1" d="M99,.4v1.5c0,0-2.3,0-2.3,0l-.5,12.8h2.2c0,0,0,1.5,0,1.5l-6.3-.2v-1.5c0,0,2.3,0,2.3,0l.5-12.8h-2.2c0,0,0-1.5,0-1.5,0,0,6.3.2,6.3.3Z"/>
      <path id="_パス_904" data-name="パス 904" class="cls-1" d="M108.9,1l5.7,14.3,1.1-12.2-2.2-.2v-1.5c.1,0,6.2.5,6.2.5v1.4c-.1,0-2.3-.2-2.3-.2l-1.2,14.2-2.6-.2-5.9-14.7-1.1,12.6,2.3.2v1.5c-.1,0-6.3-.5-6.3-.5v-1.5c.1,0,2.3.2,2.3.2l1.1-12.8-2.2-.2V.6c.1,0,5.2.4,5.2.4h0Z"/>
      <path id="_パス_905" data-name="パス 905" class="cls-1" d="M131,3.6l3.3,14.9,1.6.2-.2,1.4-5.8-.9.2-1.4,2.1.3-.8-3.9-6.4-1-1.9,3.5,2.1.3-.2,1.4-5.7-.9.2-1.4,1.6.2,7.6-13.3,2.2.3h0ZM125.8,12l5.2.8-1.5-7.7-3.7,6.9h0Z"/>
      <path id="_パス_906" data-name="パス 906" class="cls-1" d="M152.3,7.6l-1,4.9-1.7-.4.7-3.3-3.6-.8-2.6,12.4,2.4.5-.3,1.4-6.6-1.4.3-1.4,2.4.5,2.6-12.4-3.6-.8-.7,3.3-1.7-.4,1-4.9,12.5,2.6h0Z"/>
      <path id="_パス_907" data-name="パス 907" class="cls-1" d="M168.2,12l-1.3,4.5-1.6-.5.9-3.1-6.4-1.8-1.5,5.4,3.1.9.7-2.3,1.5.4-1.7,6-1.5-.4.6-2.3-3.1-.9-1.6,5.6,6.4,1.8.9-3.3,1.6.5-1.4,4.7-12.1-3.5.4-1.4,2.2.6,3.5-12.4-2.2-.6.4-1.4,12.1,3.5h0Z"/>
    </g>
  </g>
</svg>