<?xml version="1.0" encoding="UTF-8"?>
<svg id="_レイヤー_1" data-name="レイヤー 1" xmlns="http://www.w3.org/2000/svg" version="1.1" viewBox="0 0 153 111.3">
  <defs>
    <style>
      .cls-1 {
        fill: #ff9d64;
        stroke-width: 0px;
      }
    </style>
  </defs>
  <g id="_レイヤー_1-2" data-name="レイヤー 1">
    <g id="_グループ_1603" data-name="グループ 1603">
      <path id="_パス_825" data-name="パス 825" class="cls-1" d="M67.8,95.6c-6.2,10.5-15.5,15.8-27.3,15.8-23.5,0-36.6-18.3-36.6-55.5S7.1,26.3,13.2,15.8C19.5,5.3,28.7,0,40.5,0,64.1,0,77.1,18.3,77.1,55.5s-3,29.6-9.3,40ZM24.2,61.4c0,5.8.1,16.5.9,26.2.9,10.3,3.1,21.6,15.5,21.6s9.8-2.4,12-7.1c4.3-9.4,4.3-23.2,4.3-46.5v-9.8c0-5.1-.2-11.2-.5-18.6-.1-6.2-1.3-12.3-3.6-18-2.1-4.8-6.2-7.2-12.5-7.2-11.2,0-15.1,8.4-15.9,32.7-.3,8.1-.3,16.6-.3,26.5Z"/>
      <path id="_パス_826" data-name="パス 826" class="cls-1" d="M132.7,59.3c-11.6,12-22.9,23.4-34.2,34.3h33.3c9.4,0,15-6,15-15.2h2.2v30.8h-68.4v-2.1c2.6-2.2,9.2-8.6,19.7-19,10.7-10.5,17.7-19.7,21.3-27.6,3.8-7.9,5.6-18.3,5.6-30.8s-1.1-18.1-3.2-21.9c-1.9-3.8-5.4-5.7-10.1-5.7-7.9,0-12.3,3.9-12.3,11.5l.9,8.5c0,5-3.9,6.6-8.6,6.6-6.6,0-9.2-2.7-9.2-7.7s2.8-9.8,8.6-14.2C99.2,2.3,106.7,0,116,0,135.9,0,147.4,11.6,147.4,29.1s-5.1,20.3-14.7,30.1Z"/>
    </g>
  </g>
</svg>